  0
SECTION
  2
HEADER
  9
$ACADVER
  1
AC1032
  9
$ACADMAINTVER
 90
      155
  9
$DWGCODEPAGE
  3
ANSI_1252
  9
$LASTSAVEDBY
  1
carlo
  9
$REQUIREDVERSIONS
160
                 0
  9
$INSBASE
 10
0.0
 20
0.0
 30
0.0
  9
$EXTMIN
 10
-9.5
 20
-0.0000000000000001
 30
0.0
  9
$EXTMAX
 10
443.0
 20
129.5
 30
0.0
  9
$LIMMIN
 10
0.0
 20
0.0
  9
$LIMMAX
 10
12.0
 20
9.0
  9
$ORTHOMODE
 70
     0
  9
$REGENMODE
 70
     1
  9
$FILLMODE
 70
     1
  9
$QTEXTMODE
 70
     0
  9
$MIRRTEXT
 70
     0
  9
$LTSCALE
 40
1.0
  9
$ATTMODE
 70
     1
  9
$TEXTSIZE
 40
0.2
  9
$TRACEWID
 40
0.05
  9
$TEXTSTYLE
  7
Standard
  9
$CLAYER
  8
0
  9
$CELTYPE
  6
CONTINUOUS
  9
$CECOLOR
 62
   256
  9
$CELTSCALE
 40
1.0
  9
$DISPSILH
 70
     0
  9
$DIMSCALE
 40
1.0
  9
$DIMASZ
 40
0.18
  9
$DIMEXO
 40
0.0625
  9
$DIMDLI
 40
0.38
  9
$DIMRND
 40
0.0
  9
$DIMDLE
 40
0.0
  9
$DIMEXE
 40
0.18
  9
$DIMTP
 40
0.0
  9
$DIMTM
 40
0.0
  9
$DIMTXT
 40
0.18
  9
$DIMCEN
 40
0.09
  9
$DIMTSZ
 40
0.0
  9
$DIMTOL
 70
     0
  9
$DIMLIM
 70
     0
  9
$DIMTIH
 70
     1
  9
$DIMTOH
 70
     1
  9
$DIMSE1
 70
     0
  9
$DIMSE2
 70
     0
  9
$DIMTAD
 70
     0
  9
$DIMZIN
 70
     0
  9
$DIMBLK
  1

  9
$DIMASO
 70
     1
  9
$DIMSHO
 70
     1
  9
$DIMPOST
  1

  9
$DIMAPOST
  1

  9
$DIMALT
 70
     0
  9
$DIMALTD
 70
     2
  9
$DIMALTF
 40
25.4
  9
$DIMLFAC
 40
1.0
  9
$DIMTOFL
 70
     0
  9
$DIMTVP
 40
0.0
  9
$DIMTIX
 70
     0
  9
$DIMSOXD
 70
     0
  9
$DIMSAH
 70
     0
  9
$DIMBLK1
  1

  9
$DIMBLK2
  1

  9
$DIMSTYLE
  2
Standard
  9
$DIMCLRD
 70
     0
  9
$DIMCLRE
 70
     0
  9
$DIMCLRT
 70
     0
  9
$DIMTFAC
 40
1.0
  9
$DIMGAP
 40
0.09
  9
$DIMJUST
 70
     0
  9
$DIMSD1
 70
     0
  9
$DIMSD2
 70
     0
  9
$DIMTOLJ
 70
     1
  9
$DIMTZIN
 70
     0
  9
$DIMALTZ
 70
     0
  9
$DIMALTTZ
 70
     0
  9
$DIMUPT
 70
     0
  9
$DIMDEC
 70
     4
  9
$DIMTDEC
 70
     4
  9
$DIMALTU
 70
     2
  9
$DIMALTTD
 70
     2
  9
$DIMTXSTY
  7
Standard
  9
$DIMAUNIT
 70
     0
  9
$DIMADEC
 70
     0
  9
$DIMALTRND
 40
0.0
  9
$DIMAZIN
 70
     0
  9
$DIMDSEP
 70
    46
  9
$DIMATFIT
 70
     3
  9
$DIMFRAC
 70
     0
  9
$DIMLDRBLK
  1

  9
$DIMLUNIT
 70
     2
  9
$DIMLWD
 70
    -2
  9
$DIMLWE
 70
    -2
  9
$DIMTMOVE
 70
     0
  9
$DIMFXL
 40
1.0
  9
$DIMFXLON
 70
     0
  9
$DIMJOGANG
 40
0.7853981633974483
  9
$DIMTFILL
 70
     0
  9
$DIMTFILLCLR
 70
     0
  9
$DIMARCSYM
 70
     0
  9
$DIMLTYPE
  6

  9
$DIMLTEX1
  6

  9
$DIMLTEX2
  6

  9
$DIMTXTDIRECTION
 70
     0
  9
$LUNITS
 70
     2
  9
$LUPREC
 70
     4
  9
$SKETCHINC
 40
0.1
  9
$FILLETRAD
 40
5.0
  9
$AUNITS
 70
     0
  9
$AUPREC
 70
     0
  9
$MENU
  1
.
  9
$ELEVATION
 40
0.0
  9
$PELEVATION
 40
0.0
  9
$THICKNESS
 40
0.0
  9
$LIMCHECK
 70
     0
  9
$CHAMFERA
 40
0.0
  9
$CHAMFERB
 40
0.0
  9
$CHAMFERC
 40
0.0
  9
$CHAMFERD
 40
0.0
  9
$SKPOLY
 70
     0
  9
$TDCREATE
 40
2459343.970370371
  9
$TDUCREATE
 40
2459343.887037037
  9
$TDUPDATE
 40
2459366.839861111
  9
$TDUUPDATE
 40
2459366.756527778
  9
$TDINDWG
 40
0.1829976852
  9
$TDUSRTIMER
 40
0.1829976852
  9
$USRTIMER
 70
     1
  9
$ANGBASE
 50
0.0
  9
$ANGDIR
 70
     0
  9
$PDMODE
 70
     0
  9
$PDSIZE
 40
0.0
  9
$PLINEWID
 40
0.0
  9
$SPLFRAME
 70
     0
  9
$SPLINETYPE
 70
     6
  9
$SPLINESEGS
 70
     8
  9
$HANDSEED
  5
B2A
  9
$SURFTAB1
 70
     6
  9
$SURFTAB2
 70
     6
  9
$SURFTYPE
 70
     6
  9
$SURFU
 70
     6
  9
$SURFV
 70
     6
  9
$UCSBASE
  2

  9
$UCSNAME
  2

  9
$UCSORG
 10
0.0
 20
0.0
 30
0.0
  9
$UCSXDIR
 10
1.0
 20
0.0
 30
0.0
  9
$UCSYDIR
 10
0.0
 20
1.0
 30
0.0
  9
$UCSORTHOREF
  2

  9
$UCSORTHOVIEW
 70
     0
  9
$UCSORGTOP
 10
0.0
 20
0.0
 30
0.0
  9
$UCSORGBOTTOM
 10
0.0
 20
0.0
 30
0.0
  9
$UCSORGLEFT
 10
0.0
 20
0.0
 30
0.0
  9
$UCSORGRIGHT
 10
0.0
 20
0.0
 30
0.0
  9
$UCSORGFRONT
 10
0.0
 20
0.0
 30
0.0
  9
$UCSORGBACK
 10
0.0
 20
0.0
 30
0.0
  9
$PUCSBASE
  2

  9
$PUCSNAME
  2

  9
$PUCSORG
 10
0.0
 20
0.0
 30
0.0
  9
$PUCSXDIR
 10
1.0
 20
0.0
 30
0.0
  9
$PUCSYDIR
 10
0.0
 20
1.0
 30
0.0
  9
$PUCSORTHOREF
  2

  9
$PUCSORTHOVIEW
 70
     0
  9
$PUCSORGTOP
 10
0.0
 20
0.0
 30
0.0
  9
$PUCSORGBOTTOM
 10
0.0
 20
0.0
 30
0.0
  9
$PUCSORGLEFT
 10
0.0
 20
0.0
 30
0.0
  9
$PUCSORGRIGHT
 10
0.0
 20
0.0
 30
0.0
  9
$PUCSORGFRONT
 10
0.0
 20
0.0
 30
0.0
  9
$PUCSORGBACK
 10
0.0
 20
0.0
 30
0.0
  9
$USERI1
 70
     0
  9
$USERI2
 70
     0
  9
$USERI3
 70
     0
  9
$USERI4
 70
     0
  9
$USERI5
 70
     0
  9
$USERR1
 40
0.0
  9
$USERR2
 40
0.0
  9
$USERR3
 40
0.0
  9
$USERR4
 40
0.0
  9
$USERR5
 40
0.0
  9
$WORLDVIEW
 70
     1
  9
$SHADEDGE
 70
     3
  9
$SHADEDIF
 70
    70
  9
$TILEMODE
 70
     1
  9
$MAXACTVP
 70
    64
  9
$PINSBASE
 10
0.0
 20
0.0
 30
0.0
  9
$PLIMCHECK
 70
     0
  9
$PEXTMIN
 10
1.000000000000000E+20
 20
1.000000000000000E+20
 30
1.000000000000000E+20
  9
$PEXTMAX
 10
-1.000000000000000E+20
 20
-1.000000000000000E+20
 30
-1.000000000000000E+20
  9
$PLIMMIN
 10
0.0
 20
0.0
  9
$PLIMMAX
 10
12.0
 20
9.0
  9
$UNITMODE
 70
     0
  9
$VISRETAIN
 70
     1
  9
$PLINEGEN
 70
     0
  9
$PSLTSCALE
 70
     1
  9
$TREEDEPTH
 70
  3020
  9
$CMLSTYLE
  2
Standard
  9
$CMLJUST
 70
     0
  9
$CMLSCALE
 40
1.0
  9
$PROXYGRAPHICS
 70
     1
  9
$MEASUREMENT
 70
     0
  9
$CELWEIGHT
370
    -1
  9
$ENDCAPS
280
     0
  9
$JOINSTYLE
280
     0
  9
$LWDISPLAY
290
     0
  9
$INSUNITS
 70
     4
  9
$HYPERLINKBASE
  1

  9
$STYLESHEET
  1

  9
$XEDIT
290
     1
  9
$CEPSNTYPE
380
     0
  9
$PSTYLEMODE
290
     1
  9
$FINGERPRINTGUID
  2
{4757FEAD-3247-DA41-B5C6-E8FF47E80B78}
  9
$VERSIONGUID
  2
{4F62178F-7E1B-024E-9D71-5964C50DDA89}
  9
$EXTNAMES
290
     1
  9
$PSVPSCALE
 40
0.0
  9
$OLESTARTUP
290
     0
  9
$SORTENTS
280
   127
  9
$INDEXCTL
280
     0
  9
$HIDETEXT
280
     0
  9
$XCLIPFRAME
280
     2
  9
$HALOGAP
280
     0
  9
$OBSCOLOR
 70
   257
  9
$OBSLTYPE
280
     0
  9
$INTERSECTIONDISPLAY
280
     0
  9
$INTERSECTIONCOLOR
 70
   257
  9
$DIMASSOC
280
     1
  9
$PROJECTNAME
  1

  9
$CAMERADISPLAY
290
     0
  9
$LENSLENGTH
 40
50.0
  9
$CAMERAHEIGHT
 40
0.0
  9
$STEPSPERSEC
 40
2.0
  9
$STEPSIZE
 40
6.0
  9
$3DDWFPREC
 40
2.0
  9
$PSOLWIDTH
 40
0.25
  9
$PSOLHEIGHT
 40
4.0
  9
$LOFTANG1
 40
1.570796326794896
  9
$LOFTANG2
 40
1.570796326794896
  9
$LOFTMAG1
 40
0.0
  9
$LOFTMAG2
 40
0.0
  9
$LOFTPARAM
 70
     7
  9
$LOFTNORMALS
280
     1
  9
$LATITUDE
 40
37.795
  9
$LONGITUDE
 40
-122.394
  9
$NORTHDIRECTION
 40
0.0
  9
$TIMEZONE
 70
 -8000
  9
$LIGHTGLYPHDISPLAY
280
     1
  9
$TILEMODELIGHTSYNCH
280
     1
  9
$CMATERIAL
347
11
  9
$SOLIDHIST
280
     0
  9
$SHOWHIST
280
     1
  9
$DWFFRAME
280
     2
  9
$DGNFRAME
280
     0
  9
$REALWORLDSCALE
290
     1
  9
$INTERFERECOLOR
 62
     1
  9
$INTERFEREOBJVS
345
33
  9
$INTERFEREVPVS
346
30
  9
$CSHADOW
280
     0
  9
$SHADOWPLANELOCATION
 40
0.0
  0
ENDSEC
  0
SECTION
  2
CLASSES
  0
CLASS
  1
ACDBDICTIONARYWDFLT
  2
AcDbDictionaryWithDefault
  3
ObjectDBX Classes
 90
        0
 91
        1
280
     0
281
     0
  0
CLASS
  1
MATERIAL
  2
AcDbMaterial
  3
ObjectDBX Classes
 90
     1153
 91
        3
280
     0
281
     0
  0
CLASS
  1
VISUALSTYLE
  2
AcDbVisualStyle
  3
ObjectDBX Classes
 90
     4095
 91
       24
280
     0
281
     0
  0
CLASS
  1
SCALE
  2
AcDbScale
  3
ObjectDBX Classes
 90
     1153
 91
       17
280
     0
281
     0
  0
CLASS
  1
TABLESTYLE
  2
AcDbTableStyle
  3
ObjectDBX Classes
 90
     4095
 91
        1
280
     0
281
     0
  0
CLASS
  1
MLEADERSTYLE
  2
AcDbMLeaderStyle
  3
ACDB_MLEADERSTYLE_CLASS
 90
     4095
 91
        1
280
     0
281
     0
  0
CLASS
  1
ACDBSECTIONVIEWSTYLE
  2
AcDbSectionViewStyle
  3
ObjectDBX Classes
 90
     1025
 91
        1
280
     0
281
     0
  0
CLASS
  1
ACDBDETAILVIEWSTYLE
  2
AcDbDetailViewStyle
  3
ObjectDBX Classes
 90
     1025
 91
        1
280
     0
281
     0
  0
CLASS
  1
DICTIONARYVAR
  2
AcDbDictionaryVar
  3
ObjectDBX Classes
 90
        0
 91
        9
280
     0
281
     0
  0
CLASS
  1
MULTILEADER
  2
AcDbMLeader
  3
ACDB_MLEADER_CLASS
 90
     1025
 91
        0
280
     0
281
     1
  0
CLASS
  1
CELLSTYLEMAP
  2
AcDbCellStyleMap
  3
ObjectDBX Classes
 90
     1152
 91
        1
280
     0
281
     0
  0
ENDSEC
  0
SECTION
  2
TABLES
  0
TABLE
  2
VPORT
  5
8
330
0
100
AcDbSymbolTable
 70
     1
  0
VPORT
  5
75
330
8
100
AcDbSymbolTableRecord
100
AcDbViewportTableRecord
  2
*Active
 70
     0
 10
0.0
 20
0.0
 11
1.0
 21
1.0
 12
229.1838003964311
 22
71.36602936720243
 13
0.0
 23
0.0
 14
1.0
 24
1.0
 15
0.0
 25
0.0
 16
0.0
 26
0.0
 36
1.0
 17
0.0
 27
0.0
 37
0.0
 40
320.4517093308845
 41
2.265643447461629
 42
50.0
 43
0.0
 44
0.0
 50
0.0
 51
0.0
 71
     0
 72
   100
 73
     1
 74
     0
 75
     0
 76
     1
 77
     0
 78
     0
281
     0
 65
     1
110
0.0
120
0.0
130
0.0
111
1.0
121
0.0
131
0.0
112
0.0
122
1.0
132
0.0
 79
     0
146
0.0
348
2F
 60
     3
 61
     5
292
     1
282
     1
141
0.0
142
0.0
 63
   250
421
  3355443
1001
ACAD_NAV_VCDISPLAY
1070
     3
  0
ENDTAB
  0
TABLE
  2
LTYPE
  5
5
330
0
100
AcDbSymbolTable
 70
     1
  0
LTYPE
  5
5A
330
5
100
AcDbSymbolTableRecord
100
AcDbLinetypeTableRecord
  2
ByBlock
 70
     0
  3

 72
    65
 73
     0
 40
0.0
  0
LTYPE
  5
5B
330
5
100
AcDbSymbolTableRecord
100
AcDbLinetypeTableRecord
  2
ByLayer
 70
     0
  3

 72
    65
 73
     0
 40
0.0
  0
LTYPE
  5
5C
330
5
100
AcDbSymbolTableRecord
100
AcDbLinetypeTableRecord
  2
CONTINUOUS
 70
     0
  3
Solid line
 72
    65
 73
     0
 40
0.0
  0
ENDTAB
  0
TABLE
  2
LAYER
  5
2
102
{ACAD_XDICTIONARY
360
798
102
}
330
0
100
AcDbSymbolTable
 70
     3
  0
LAYER
  5
54
102
{ACAD_XDICTIONARY
360
791
102
}
330
2
100
AcDbSymbolTableRecord
100
AcDbLayerTableRecord
  2
0
 70
     0
 62
     7
  6
CONTINUOUS
370
    -3
390
F
347
21
348
0
  0
LAYER
  5
73
102
{ACAD_XDICTIONARY
360
793
102
}
330
2
100
AcDbSymbolTableRecord
100
AcDbLayerTableRecord
  2
LAYER1
 70
     0
 62
     7
  6
CONTINUOUS
370
    -3
390
F
347
21
348
0
  0
LAYER
  5
88F
330
2
100
AcDbSymbolTableRecord
100
AcDbLayerTableRecord
  2
Defpoints
 70
     0
 62
     7
  6
CONTINUOUS
290
     0
370
    -3
390
F
347
21
348
0
  0
ENDTAB
  0
TABLE
  2
STYLE
  5
3
330
0
100
AcDbSymbolTable
 70
     2
  0
STYLE
  5
55
330
3
100
AcDbSymbolTableRecord
100
AcDbTextStyleTableRecord
  2
Standard
 70
     0
 40
0.0
 41
1.0
 50
0.0
 71
     0
 42
0.2
  3
txt
  4

  0
STYLE
  5
59
330
3
100
AcDbSymbolTableRecord
100
AcDbTextStyleTableRecord
  2
Annotative
 70
     0
 40
0.0
 41
1.0
 50
0.0
 71
     0
 42
0.2
  3
txt
  4

1001
AcadAnnotative
1000
AnnotativeData
1002
{
1070
     1
1070
     1
1002
}
  0
ENDTAB
  0
TABLE
  2
VIEW
  5
6
330
0
100
AcDbSymbolTable
 70
     0
  0
ENDTAB
  0
TABLE
  2
UCS
  5
7
330
0
100
AcDbSymbolTable
 70
     0
  0
ENDTAB
  0
TABLE
  2
APPID
  5
9
330
0
100
AcDbSymbolTable
 70
     5
  0
APPID
  5
56
330
9
100
AcDbSymbolTableRecord
100
AcDbRegAppTableRecord
  2
ACAD
 70
     0
  0
APPID
  5
5D
330
9
100
AcDbSymbolTableRecord
100
AcDbRegAppTableRecord
  2
AcadAnnotative
 70
     0
  0
APPID
  5
786
330
9
100
AcDbSymbolTableRecord
100
AcDbRegAppTableRecord
  2
ACAD_NAV_VCDISPLAY
 70
     0
  0
APPID
  5
7DB
330
9
100
AcDbSymbolTableRecord
100
AcDbRegAppTableRecord
  2
ACAD_EXEMPT_FROM_CAD_STANDARDS
 70
     0
  0
APPID
  5
A5F
330
9
100
AcDbSymbolTableRecord
100
AcDbRegAppTableRecord
  2
ACAD_DSTYLE_DIMRADIAL_EXTENSION
 70
     0
  0
ENDTAB
  0
TABLE
  2
DIMSTYLE
  5
A
330
0
100
AcDbSymbolTable
 70
     2
100
AcDbDimStyleTable
 71
     1
340
57
  0
DIMSTYLE
105
57
330
A
100
AcDbSymbolTableRecord
100
AcDbDimStyleTableRecord
  2
Standard
 70
     0
340
55
  0
DIMSTYLE
105
58
330
A
100
AcDbSymbolTableRecord
100
AcDbDimStyleTableRecord
  2
Annotative
 70
     0
340
55
1001
AcadAnnotative
1000
AnnotativeData
1002
{
1070
     1
1070
     1
1002
}
  0
ENDTAB
  0
TABLE
  2
BLOCK_RECORD
  5
1
330
0
100
AcDbSymbolTable
 70
     0
  0
BLOCK_RECORD
  5
6F
330
1
100
AcDbSymbolTableRecord
100
AcDbBlockTableRecord
  2
*Model_Space
340
72
 70
     0
280
     1
281
     0
  0
BLOCK_RECORD
  5
6B
330
1
100
AcDbSymbolTableRecord
100
AcDbBlockTableRecord
  2
*Paper_Space
340
6E
 70
     0
280
     1
281
     0
  0
ENDTAB
  0
ENDSEC
  0
SECTION
  2
BLOCKS
  0
BLOCK
  5
70
330
6F
100
AcDbEntity
  8
0
100
AcDbBlockBegin
  2
*Model_Space
 70
     0
 10
0.0
 20
0.0
 30
0.0
  3
*Model_Space
  1

  0
ENDBLK
  5
71
330
6F
100
AcDbEntity
  8
0
100
AcDbBlockEnd
  0
BLOCK
  5
6C
330
6B
100
AcDbEntity
 67
     1
  8
0
100
AcDbBlockBegin
  2
*Paper_Space
 70
     0
 10
0.0
 20
0.0
 30
0.0
  3
*Paper_Space
  1

  0
ENDBLK
  5
6D
330
6B
100
AcDbEntity
 67
     1
  8
0
100
AcDbBlockEnd
  0
ENDSEC
  0
SECTION
  2
ENTITIES
  0
LWPOLYLINE
  5
7D
330
6F
100
AcDbEntity
  8
LAYER1
100
AcDbPolyline
 90
       13
 70
     1
 43
0.0
 10
19.5
 20
111.0
 10
20.3
 20
111.0
 10
20.3
 20
123.0
 10
19.5
 20
123.0
 10
19.5
 20
124.0
 10
5.5
 20
124.0
 10
5.5
 20
123.0
 10
4.7
 20
123.0
 10
4.7
 20
111.0
 10
5.5
 20
111.0
 10
5.5
 20
110.0
 10
19.5
 20
110.0
 10
19.5
 20
111.0
  0
LWPOLYLINE
  5
8C
330
6F
100
AcDbEntity
  8
LAYER1
100
AcDbPolyline
 90
       13
 70
     1
 43
0.0
 10
57.5
 20
111.0
 10
58.3
 20
111.0
 10
58.3
 20
123.0
 10
57.5
 20
123.0
 10
57.5
 20
124.0
 10
43.5
 20
124.0
 10
43.5
 20
123.0
 10
42.7
 20
123.0
 10
42.7
 20
111.0
 10
43.5
 20
111.0
 10
43.5
 20
110.0
 10
57.5
 20
110.0
 10
57.5
 20
111.0
  0
LWPOLYLINE
  5
9B
330
6F
100
AcDbEntity
  8
LAYER1
100
AcDbPolyline
 90
       13
 70
     1
 43
0.0
 10
76.5
 20
111.0
 10
77.3
 20
111.0
 10
77.3
 20
123.0
 10
76.5
 20
123.0
 10
76.5
 20
124.0
 10
62.5
 20
124.0
 10
62.5
 20
123.0
 10
61.7
 20
123.0
 10
61.7
 20
111.0
 10
62.5
 20
111.0
 10
62.5
 20
110.0
 10
76.5
 20
110.0
 10
76.5
 20
111.0
  0
LWPOLYLINE
  5
AA
330
6F
100
AcDbEntity
  8
LAYER1
100
AcDbPolyline
 90
       13
 70
     1
 43
0.0
 10
95.5
 20
111.0
 10
96.3
 20
111.0
 10
96.3
 20
123.0
 10
95.5
 20
123.0
 10
95.5
 20
124.0
 10
81.5
 20
124.0
 10
81.5
 20
123.0
 10
80.7
 20
123.0
 10
80.7
 20
111.0
 10
81.5
 20
111.0
 10
81.5
 20
110.0
 10
95.5
 20
110.0
 10
95.5
 20
111.0
  0
LWPOLYLINE
  5
B9
330
6F
100
AcDbEntity
  8
LAYER1
100
AcDbPolyline
 90
       13
 70
     1
 43
0.0
 10
114.5
 20
111.0
 10
115.3
 20
111.0
 10
115.3
 20
123.0
 10
114.5
 20
123.0
 10
114.5
 20
124.0
 10
100.5
 20
124.0
 10
100.5
 20
123.0
 10
99.7
 20
123.0
 10
99.7
 20
111.0
 10
100.5
 20
111.0
 10
100.5
 20
110.0
 10
114.5
 20
110.0
 10
114.5
 20
111.0
  0
LWPOLYLINE
  5
C8
330
6F
100
AcDbEntity
  8
LAYER1
100
AcDbPolyline
 90
       13
 70
     1
 43
0.0
 10
143.0
 20
111.0
 10
143.8
 20
111.0
 10
143.8
 20
123.0
 10
143.0
 20
123.0
 10
143.0
 20
124.0
 10
129.0
 20
124.0
 10
129.0
 20
123.0
 10
128.2
 20
123.0
 10
128.2
 20
111.0
 10
129.0
 20
111.0
 10
129.0
 20
110.0
 10
143.0
 20
110.0
 10
143.0
 20
111.0
  0
LWPOLYLINE
  5
D7
330
6F
100
AcDbEntity
  8
LAYER1
100
AcDbPolyline
 90
       13
 70
     1
 43
0.0
 10
162.0
 20
111.0
 10
162.8
 20
111.0
 10
162.8
 20
123.0
 10
162.0
 20
123.0
 10
162.0
 20
124.0
 10
148.0
 20
124.0
 10
148.0
 20
123.0
 10
147.2
 20
123.0
 10
147.2
 20
111.0
 10
148.0
 20
111.0
 10
148.0
 20
110.0
 10
162.0
 20
110.0
 10
162.0
 20
111.0
  0
LWPOLYLINE
  5
E6
330
6F
100
AcDbEntity
  8
LAYER1
100
AcDbPolyline
 90
       13
 70
     1
 43
0.0
 10
181.0
 20
111.0
 10
181.8
 20
111.0
 10
181.8
 20
123.0
 10
181.0
 20
123.0
 10
181.0
 20
124.0
 10
167.0
 20
124.0
 10
167.0
 20
123.0
 10
166.2
 20
123.0
 10
166.2
 20
111.0
 10
167.0
 20
111.0
 10
167.0
 20
110.0
 10
181.0
 20
110.0
 10
181.0
 20
111.0
  0
LWPOLYLINE
  5
F5
330
6F
100
AcDbEntity
  8
LAYER1
100
AcDbPolyline
 90
       13
 70
     1
 43
0.0
 10
200.0
 20
111.0
 10
200.8
 20
111.0
 10
200.8
 20
123.0
 10
200.0
 20
123.0
 10
200.0
 20
124.0
 10
186.0
 20
124.0
 10
186.0
 20
123.0
 10
185.2
 20
123.0
 10
185.2
 20
111.0
 10
186.0
 20
111.0
 10
186.0
 20
110.0
 10
200.0
 20
110.0
 10
200.0
 20
111.0
  0
LWPOLYLINE
  5
104
330
6F
100
AcDbEntity
  8
LAYER1
100
AcDbPolyline
 90
       13
 70
     1
 43
0.0
 10
228.5
 20
111.0
 10
229.3
 20
111.0
 10
229.3
 20
123.0
 10
228.5
 20
123.0
 10
228.5
 20
124.0
 10
214.5
 20
124.0
 10
214.5
 20
123.0
 10
213.7
 20
123.0
 10
213.7
 20
111.0
 10
214.5
 20
111.0
 10
214.5
 20
110.0
 10
228.5
 20
110.0
 10
228.5
 20
111.0
  0
LWPOLYLINE
  5
113
330
6F
100
AcDbEntity
  8
LAYER1
100
AcDbPolyline
 90
       13
 70
     1
 43
0.0
 10
247.5
 20
111.0
 10
248.3
 20
111.0
 10
248.3
 20
123.0
 10
247.5
 20
123.0
 10
247.5
 20
124.0
 10
233.5
 20
124.0
 10
233.5
 20
123.0
 10
232.7
 20
123.0
 10
232.7
 20
111.0
 10
233.5
 20
111.0
 10
233.5
 20
110.0
 10
247.5
 20
110.0
 10
247.5
 20
111.0
  0
LWPOLYLINE
  5
122
330
6F
100
AcDbEntity
  8
LAYER1
100
AcDbPolyline
 90
       13
 70
     1
 43
0.0
 10
266.5
 20
111.0
 10
267.3
 20
111.0
 10
267.3
 20
123.0
 10
266.5
 20
123.0
 10
266.5
 20
124.0
 10
252.5
 20
124.0
 10
252.5
 20
123.0
 10
251.7
 20
123.0
 10
251.7
 20
111.0
 10
252.5
 20
111.0
 10
252.5
 20
110.0
 10
266.5
 20
110.0
 10
266.5
 20
111.0
  0
LWPOLYLINE
  5
131
330
6F
100
AcDbEntity
  8
LAYER1
100
AcDbPolyline
 90
       13
 70
     1
 43
0.0
 10
285.5
 20
111.0
 10
286.3
 20
111.0
 10
286.3
 20
123.0
 10
285.5
 20
123.0
 10
285.5
 20
124.0
 10
271.5
 20
124.0
 10
271.5
 20
123.0
 10
270.7
 20
123.0
 10
270.7
 20
111.0
 10
271.5
 20
111.0
 10
271.5
 20
110.0
 10
285.5
 20
110.0
 10
285.5
 20
111.0
  0
LWPOLYLINE
  5
140
330
6F
100
AcDbEntity
  8
LAYER1
100
AcDbPolyline
 90
       13
 70
     1
 43
0.0
 10
309.25
 20
44.5
 10
310.05
 20
44.5
 10
310.05
 20
56.5
 10
309.25
 20
56.5
 10
309.25
 20
57.5
 10
295.25
 20
57.5
 10
295.25
 20
56.5
 10
294.45
 20
56.5
 10
294.45
 20
44.5
 10
295.25
 20
44.5
 10
295.25
 20
43.5
 10
309.25
 20
43.5
 10
309.25
 20
44.5
  0
LWPOLYLINE
  5
14F
330
6F
100
AcDbEntity
  8
LAYER1
100
AcDbPolyline
 90
       13
 70
     1
 43
0.0
 10
328.25
 20
44.5
 10
329.05
 20
44.5
 10
329.05
 20
56.5
 10
328.25
 20
56.5
 10
328.25
 20
57.5
 10
314.25
 20
57.5
 10
314.25
 20
56.5
 10
313.45
 20
56.5
 10
313.45
 20
44.5
 10
314.25
 20
44.5
 10
314.25
 20
43.5
 10
328.25
 20
43.5
 10
328.25
 20
44.5
  0
LWPOLYLINE
  5
15E
330
6F
100
AcDbEntity
  8
LAYER1
100
AcDbPolyline
 90
       13
 70
     1
 43
0.0
 10
347.25
 20
44.5
 10
348.05
 20
44.5
 10
348.05
 20
56.5
 10
347.25
 20
56.5
 10
347.25
 20
57.5
 10
333.25
 20
57.5
 10
333.25
 20
56.5
 10
332.45
 20
56.5
 10
332.45
 20
44.5
 10
333.25
 20
44.5
 10
333.25
 20
43.5
 10
347.25
 20
43.5
 10
347.25
 20
44.5
  0
LWPOLYLINE
  5
16D
330
6F
100
AcDbEntity
  8
LAYER1
100
AcDbPolyline
 90
       13
 70
     1
 43
0.0
 10
19.5
 20
82.5
 10
20.3
 20
82.5
 10
20.3
 20
94.50000000000001
 10
19.5
 20
94.50000000000001
 10
19.5
 20
95.5
 10
5.5
 20
95.5
 10
5.5
 20
94.50000000000001
 10
4.7
 20
94.50000000000001
 10
4.7
 20
82.5
 10
5.5
 20
82.5
 10
5.5
 20
81.5
 10
19.5
 20
81.5
 10
19.5
 20
82.5
  0
LWPOLYLINE
  5
17C
330
6F
100
AcDbEntity
  8
LAYER1
100
AcDbPolyline
 90
       13
 70
     1
 43
0.0
 10
38.5
 20
82.5
 10
39.3
 20
82.5
 10
39.3
 20
94.50000000000001
 10
38.5
 20
94.50000000000001
 10
38.5
 20
95.5
 10
24.5
 20
95.5
 10
24.5
 20
94.50000000000001
 10
23.7
 20
94.50000000000001
 10
23.7
 20
82.5
 10
24.5
 20
82.5
 10
24.5
 20
81.5
 10
38.5
 20
81.5
 10
38.5
 20
82.5
  0
LWPOLYLINE
  5
18B
330
6F
100
AcDbEntity
  8
LAYER1
100
AcDbPolyline
 90
       13
 70
     1
 43
0.0
 10
57.5
 20
82.5
 10
58.3
 20
82.5
 10
58.3
 20
94.50000000000001
 10
57.5
 20
94.50000000000001
 10
57.5
 20
95.5
 10
43.5
 20
95.5
 10
43.5
 20
94.50000000000001
 10
42.7
 20
94.50000000000001
 10
42.7
 20
82.5
 10
43.5
 20
82.5
 10
43.5
 20
81.5
 10
57.5
 20
81.5
 10
57.5
 20
82.5
  0
LWPOLYLINE
  5
19A
330
6F
100
AcDbEntity
  8
LAYER1
100
AcDbPolyline
 90
       13
 70
     1
 43
0.0
 10
76.5
 20
82.5
 10
77.3
 20
82.5
 10
77.3
 20
94.50000000000001
 10
76.5
 20
94.50000000000001
 10
76.5
 20
95.5
 10
62.5
 20
95.5
 10
62.5
 20
94.50000000000001
 10
61.7
 20
94.50000000000001
 10
61.7
 20
82.5
 10
62.5
 20
82.5
 10
62.5
 20
81.5
 10
76.5
 20
81.5
 10
76.5
 20
82.5
  0
LWPOLYLINE
  5
1A9
330
6F
100
AcDbEntity
  8
LAYER1
100
AcDbPolyline
 90
       13
 70
     1
 43
0.0
 10
95.5
 20
82.5
 10
96.3
 20
82.5
 10
96.3
 20
94.50000000000001
 10
95.5
 20
94.50000000000001
 10
95.5
 20
95.5
 10
81.5
 20
95.5
 10
81.5
 20
94.50000000000001
 10
80.7
 20
94.50000000000001
 10
80.7
 20
82.5
 10
81.5
 20
82.5
 10
81.5
 20
81.5
 10
95.5
 20
81.5
 10
95.5
 20
82.5
  0
LWPOLYLINE
  5
1B8
330
6F
100
AcDbEntity
  8
LAYER1
100
AcDbPolyline
 90
       13
 70
     1
 43
0.0
 10
114.5
 20
82.5
 10
115.3
 20
82.5
 10
115.3
 20
94.50000000000001
 10
114.5
 20
94.50000000000001
 10
114.5
 20
95.5
 10
100.5
 20
95.5
 10
100.5
 20
94.50000000000001
 10
99.7
 20
94.50000000000001
 10
99.7
 20
82.5
 10
100.5
 20
82.5
 10
100.5
 20
81.5
 10
114.5
 20
81.5
 10
114.5
 20
82.5
  0
LWPOLYLINE
  5
1C7
330
6F
100
AcDbEntity
  8
LAYER1
100
AcDbPolyline
 90
       13
 70
     1
 43
0.0
 10
133.5
 20
82.5
 10
134.3
 20
82.5
 10
134.3
 20
94.50000000000001
 10
133.5
 20
94.50000000000001
 10
133.5
 20
95.5
 10
119.5
 20
95.5
 10
119.5
 20
94.50000000000001
 10
118.7
 20
94.50000000000001
 10
118.7
 20
82.5
 10
119.5
 20
82.5
 10
119.5
 20
81.5
 10
133.5
 20
81.5
 10
133.5
 20
82.5
  0
LWPOLYLINE
  5
1D6
330
6F
100
AcDbEntity
  8
LAYER1
100
AcDbPolyline
 90
       13
 70
     1
 43
0.0
 10
152.5
 20
82.5
 10
153.3
 20
82.5
 10
153.3
 20
94.50000000000001
 10
152.5
 20
94.50000000000001
 10
152.5
 20
95.5
 10
138.5
 20
95.5
 10
138.5
 20
94.50000000000001
 10
137.7
 20
94.50000000000001
 10
137.7
 20
82.5
 10
138.5
 20
82.5
 10
138.5
 20
81.5
 10
152.5
 20
81.5
 10
152.5
 20
82.5
  0
LWPOLYLINE
  5
1E5
330
6F
100
AcDbEntity
  8
LAYER1
100
AcDbPolyline
 90
       13
 70
     1
 43
0.0
 10
171.5
 20
82.5
 10
172.3
 20
82.5
 10
172.3
 20
94.50000000000001
 10
171.5
 20
94.50000000000001
 10
171.5
 20
95.5
 10
157.5
 20
95.5
 10
157.5
 20
94.50000000000001
 10
156.7
 20
94.50000000000001
 10
156.7
 20
82.5
 10
157.5
 20
82.5
 10
157.5
 20
81.5
 10
171.5
 20
81.5
 10
171.5
 20
82.5
  0
LWPOLYLINE
  5
1F4
330
6F
100
AcDbEntity
  8
LAYER1
100
AcDbPolyline
 90
       13
 70
     1
 43
0.0
 10
190.5
 20
82.5
 10
191.3
 20
82.5
 10
191.3
 20
94.50000000000001
 10
190.5
 20
94.50000000000001
 10
190.5
 20
95.5
 10
176.5
 20
95.5
 10
176.5
 20
94.50000000000001
 10
175.7
 20
94.50000000000001
 10
175.7
 20
82.5
 10
176.5
 20
82.5
 10
176.5
 20
81.5
 10
190.5
 20
81.5
 10
190.5
 20
82.5
  0
LWPOLYLINE
  5
203
330
6F
100
AcDbEntity
  8
LAYER1
100
AcDbPolyline
 90
       13
 70
     1
 43
0.0
 10
209.5
 20
82.5
 10
210.3
 20
82.5
 10
210.3
 20
94.50000000000001
 10
209.5
 20
94.50000000000001
 10
209.5
 20
95.5
 10
195.5
 20
95.5
 10
195.5
 20
94.50000000000001
 10
194.7
 20
94.50000000000001
 10
194.7
 20
82.5
 10
195.5
 20
82.5
 10
195.5
 20
81.5
 10
209.5
 20
81.5
 10
209.5
 20
82.5
  0
LWPOLYLINE
  5
212
330
6F
100
AcDbEntity
  8
LAYER1
100
AcDbPolyline
 90
       13
 70
     1
 43
0.0
 10
228.5
 20
82.5
 10
229.3
 20
82.5
 10
229.3
 20
94.50000000000001
 10
228.5
 20
94.50000000000001
 10
228.5
 20
95.5
 10
214.5
 20
95.5
 10
214.5
 20
94.50000000000001
 10
213.7
 20
94.50000000000001
 10
213.7
 20
82.5
 10
214.5
 20
82.5
 10
214.5
 20
81.5
 10
228.5
 20
81.5
 10
228.5
 20
82.5
  0
LWPOLYLINE
  5
221
330
6F
100
AcDbEntity
  8
LAYER1
100
AcDbPolyline
 90
       13
 70
     1
 43
0.0
 10
247.5
 20
82.5
 10
248.3
 20
82.5
 10
248.3
 20
94.50000000000001
 10
247.5
 20
94.50000000000001
 10
247.5
 20
95.5
 10
233.5
 20
95.5
 10
233.5
 20
94.50000000000001
 10
232.7
 20
94.50000000000001
 10
232.7
 20
82.5
 10
233.5
 20
82.5
 10
233.5
 20
81.5
 10
247.5
 20
81.5
 10
247.5
 20
82.5
  0
LWPOLYLINE
  5
230
330
6F
100
AcDbEntity
  8
LAYER1
100
AcDbPolyline
 90
       45
 70
     1
 43
0.0
 10
258.6
 20
81.73
 10
260.425
 20
81.73
 10
260.425
 20
82.53
 10
261.2
 20
82.53
 10
261.2
 20
82.5
 10
262.0
 20
82.5
 10
262.0
 20
81.5
 10
276.0
 20
81.5
 10
276.0
 20
82.5
 10
276.8
 20
82.5
 10
276.8
 20
82.53
 10
277.575
 20
82.53
 10
277.575
 20
81.73
 10
279.4
 20
81.73
 10
279.4
 20
80.53
 10
282.4
 20
80.53
 10
282.4
 20
81.73
 10
284.225
 20
81.73
 10
284.225
 20
88.0
 10
285.1
 20
88.0
 10
285.1
 20
90.8
 10
284.225
 20
90.8
 10
284.225
 20
94.03
 10
277.575
 20
94.03
 10
277.575
 20
93.23
 10
276.8
 20
93.23
 10
276.8
 20
94.50000000000001
 10
276.0
 20
94.50000000000001
 10
276.0
 20
95.5
 10
262.0
 20
95.5
 10
262.0
 20
94.50000000000001
 10
261.2
 20
94.50000000000001
 10
261.2
 20
93.23
 10
260.425
 20
93.23
 10
260.425
 20
94.03
 10
253.775
 20
94.03
 10
253.775
 20
90.8
 10
252.9
 20
90.8
 10
252.9
 20
88.0
 10
253.775
 20
88.0
 10
253.775
 20
81.73
 10
255.6
 20
81.73
 10
255.6
 20
80.53
 10
258.6
 20
80.53
 10
258.6
 20
81.73
  0
LWPOLYLINE
  5
25F
330
6F
100
AcDbEntity
  8
LAYER1
100
AcDbPolyline
 90
       13
 70
     1
 43
0.0
 10
309.25
 20
82.5
 10
310.05
 20
82.5
 10
310.05
 20
94.50000000000001
 10
309.25
 20
94.50000000000001
 10
309.25
 20
95.5
 10
295.25
 20
95.5
 10
295.25
 20
94.50000000000001
 10
294.45
 20
94.50000000000001
 10
294.45
 20
82.5
 10
295.25
 20
82.5
 10
295.25
 20
81.5
 10
309.25
 20
81.5
 10
309.25
 20
82.5
  0
LWPOLYLINE
  5
26E
330
6F
100
AcDbEntity
  8
LAYER1
100
AcDbPolyline
 90
       13
 70
     1
 43
0.0
 10
328.25
 20
82.5
 10
329.05
 20
82.5
 10
329.05
 20
94.50000000000001
 10
328.25
 20
94.50000000000001
 10
328.25
 20
95.5
 10
314.25
 20
95.5
 10
314.25
 20
94.50000000000001
 10
313.45
 20
94.50000000000001
 10
313.45
 20
82.5
 10
314.25
 20
82.5
 10
314.25
 20
81.5
 10
328.25
 20
81.5
 10
328.25
 20
82.5
  0
LWPOLYLINE
  5
27D
330
6F
100
AcDbEntity
  8
LAYER1
100
AcDbPolyline
 90
       13
 70
     1
 43
0.0
 10
347.25
 20
82.5
 10
348.05
 20
82.5
 10
348.05
 20
94.50000000000001
 10
347.25
 20
94.50000000000001
 10
347.25
 20
95.5
 10
333.25
 20
95.5
 10
333.25
 20
94.50000000000001
 10
332.45
 20
94.50000000000001
 10
332.45
 20
82.5
 10
333.25
 20
82.5
 10
333.25
 20
81.5
 10
347.25
 20
81.5
 10
347.25
 20
82.5
  0
LWPOLYLINE
  5
28C
330
6F
100
AcDbEntity
  8
LAYER1
100
AcDbPolyline
 90
       13
 70
     1
 43
0.0
 10
371.0
 20
82.5
 10
371.8
 20
82.5
 10
371.8
 20
94.50000000000001
 10
371.0
 20
94.50000000000001
 10
371.0
 20
95.5
 10
357.0
 20
95.5
 10
357.0
 20
94.50000000000001
 10
356.2
 20
94.50000000000001
 10
356.2
 20
82.5
 10
357.0
 20
82.5
 10
357.0
 20
81.5
 10
371.0
 20
81.5
 10
371.0
 20
82.5
  0
LWPOLYLINE
  5
29B
330
6F
100
AcDbEntity
  8
LAYER1
100
AcDbPolyline
 90
       13
 70
     1
 43
0.0
 10
390.0
 20
82.5
 10
390.8
 20
82.5
 10
390.8
 20
94.50000000000001
 10
390.0
 20
94.50000000000001
 10
390.0
 20
95.5
 10
376.0
 20
95.5
 10
376.0
 20
94.50000000000001
 10
375.2
 20
94.50000000000001
 10
375.2
 20
82.5
 10
376.0
 20
82.5
 10
376.0
 20
81.5
 10
390.0
 20
81.5
 10
390.0
 20
82.5
  0
LWPOLYLINE
  5
2AA
330
6F
100
AcDbEntity
  8
LAYER1
100
AcDbPolyline
 90
       13
 70
     1
 43
0.0
 10
409.0
 20
82.5
 10
409.7999999999999
 20
82.5
 10
409.7999999999999
 20
94.50000000000001
 10
409.0
 20
94.50000000000001
 10
409.0
 20
95.5
 10
395.0
 20
95.5
 10
395.0
 20
94.50000000000001
 10
394.2
 20
94.50000000000001
 10
394.2
 20
82.5
 10
395.0
 20
82.5
 10
395.0
 20
81.5
 10
409.0
 20
81.5
 10
409.0
 20
82.5
  0
LWPOLYLINE
  5
2B9
330
6F
100
AcDbEntity
  8
LAYER1
100
AcDbPolyline
 90
       13
 70
     1
 43
0.0
 10
428.0
 20
82.5
 10
428.8
 20
82.5
 10
428.8
 20
94.50000000000001
 10
428.0
 20
94.50000000000001
 10
428.0
 20
95.5
 10
414.0
 20
95.5
 10
414.0
 20
94.50000000000001
 10
413.1999999999999
 20
94.50000000000001
 10
413.1999999999999
 20
82.5
 10
414.0
 20
82.5
 10
414.0
 20
81.5
 10
428.0
 20
81.5
 10
428.0
 20
82.5
  0
LWPOLYLINE
  5
2C8
330
6F
100
AcDbEntity
  8
LAYER1
100
AcDbPolyline
 90
       13
 70
     1
 43
0.0
 10
24.25
 20
63.5
 10
25.05
 20
63.5
 10
25.05
 20
75.5
 10
24.25
 20
75.5
 10
24.25
 20
76.5
 10
10.25
 20
76.5
 10
10.25
 20
75.5
 10
9.449999999999999
 20
75.5
 10
9.449999999999999
 20
63.5
 10
10.25
 20
63.5
 10
10.25
 20
62.5
 10
24.25
 20
62.5
 10
24.25
 20
63.5
  0
LWPOLYLINE
  5
2D7
330
6F
100
AcDbEntity
  8
LAYER1
100
AcDbPolyline
 90
       13
 70
     1
 43
0.0
 10
48.0
 20
63.5
 10
48.79999999999999
 20
63.5
 10
48.79999999999999
 20
75.5
 10
48.0
 20
75.5
 10
48.0
 20
76.5
 10
34.0
 20
76.5
 10
34.0
 20
75.5
 10
33.2
 20
75.5
 10
33.2
 20
63.5
 10
34.0
 20
63.5
 10
34.0
 20
62.5
 10
48.0
 20
62.5
 10
48.0
 20
63.5
  0
LWPOLYLINE
  5
2E6
330
6F
100
AcDbEntity
  8
LAYER1
100
AcDbPolyline
 90
       13
 70
     1
 43
0.0
 10
67.0
 20
63.5
 10
67.8
 20
63.5
 10
67.8
 20
75.5
 10
67.0
 20
75.5
 10
67.0
 20
76.5
 10
53.0
 20
76.5
 10
53.0
 20
75.5
 10
52.2
 20
75.5
 10
52.2
 20
63.5
 10
53.0
 20
63.5
 10
53.0
 20
62.5
 10
67.0
 20
62.5
 10
67.0
 20
63.5
  0
LWPOLYLINE
  5
2F5
330
6F
100
AcDbEntity
  8
LAYER1
100
AcDbPolyline
 90
       13
 70
     1
 43
0.0
 10
86.0
 20
63.5
 10
86.79999999999999
 20
63.5
 10
86.79999999999999
 20
75.5
 10
86.0
 20
75.5
 10
86.0
 20
76.5
 10
72.0
 20
76.5
 10
72.0
 20
75.5
 10
71.2
 20
75.5
 10
71.2
 20
63.5
 10
72.0
 20
63.5
 10
72.0
 20
62.5
 10
86.0
 20
62.5
 10
86.0
 20
63.5
  0
LWPOLYLINE
  5
304
330
6F
100
AcDbEntity
  8
LAYER1
100
AcDbPolyline
 90
       13
 70
     1
 43
0.0
 10
105.0
 20
63.5
 10
105.8
 20
63.5
 10
105.8
 20
75.5
 10
105.0
 20
75.5
 10
105.0
 20
76.5
 10
91.0
 20
76.5
 10
91.0
 20
75.5
 10
90.20000000000001
 20
75.5
 10
90.20000000000001
 20
63.5
 10
91.0
 20
63.5
 10
91.0
 20
62.5
 10
105.0
 20
62.5
 10
105.0
 20
63.5
  0
LWPOLYLINE
  5
313
330
6F
100
AcDbEntity
  8
LAYER1
100
AcDbPolyline
 90
       13
 70
     1
 43
0.0
 10
124.0
 20
63.5
 10
124.8
 20
63.5
 10
124.8
 20
75.5
 10
124.0
 20
75.5
 10
124.0
 20
76.5
 10
110.0
 20
76.5
 10
110.0
 20
75.5
 10
109.2
 20
75.5
 10
109.2
 20
63.5
 10
110.0
 20
63.5
 10
110.0
 20
62.5
 10
124.0
 20
62.5
 10
124.0
 20
63.5
  0
LWPOLYLINE
  5
322
330
6F
100
AcDbEntity
  8
LAYER1
100
AcDbPolyline
 90
       13
 70
     1
 43
0.0
 10
143.0
 20
63.5
 10
143.8
 20
63.5
 10
143.8
 20
75.5
 10
143.0
 20
75.5
 10
143.0
 20
76.5
 10
129.0
 20
76.5
 10
129.0
 20
75.5
 10
128.2
 20
75.5
 10
128.2
 20
63.5
 10
129.0
 20
63.5
 10
129.0
 20
62.5
 10
143.0
 20
62.5
 10
143.0
 20
63.5
  0
LWPOLYLINE
  5
331
330
6F
100
AcDbEntity
  8
LAYER1
100
AcDbPolyline
 90
       13
 70
     1
 43
0.0
 10
162.0
 20
63.5
 10
162.8
 20
63.5
 10
162.8
 20
75.5
 10
162.0
 20
75.5
 10
162.0
 20
76.5
 10
148.0
 20
76.5
 10
148.0
 20
75.5
 10
147.2
 20
75.5
 10
147.2
 20
63.5
 10
148.0
 20
63.5
 10
148.0
 20
62.5
 10
162.0
 20
62.5
 10
162.0
 20
63.5
  0
LWPOLYLINE
  5
340
330
6F
100
AcDbEntity
  8
LAYER1
100
AcDbPolyline
 90
       13
 70
     1
 43
0.0
 10
181.0
 20
63.5
 10
181.8
 20
63.5
 10
181.8
 20
75.5
 10
181.0
 20
75.5
 10
181.0
 20
76.5
 10
167.0
 20
76.5
 10
167.0
 20
75.5
 10
166.2
 20
75.5
 10
166.2
 20
63.5
 10
167.0
 20
63.5
 10
167.0
 20
62.5
 10
181.0
 20
62.5
 10
181.0
 20
63.5
  0
LWPOLYLINE
  5
34F
330
6F
100
AcDbEntity
  8
LAYER1
100
AcDbPolyline
 90
       13
 70
     1
 43
0.0
 10
200.0
 20
63.5
 10
200.8
 20
63.5
 10
200.8
 20
75.5
 10
200.0
 20
75.5
 10
200.0
 20
76.5
 10
186.0
 20
76.5
 10
186.0
 20
75.5
 10
185.2
 20
75.5
 10
185.2
 20
63.5
 10
186.0
 20
63.5
 10
186.0
 20
62.5
 10
200.0
 20
62.5
 10
200.0
 20
63.5
  0
LWPOLYLINE
  5
35E
330
6F
100
AcDbEntity
  8
LAYER1
100
AcDbPolyline
 90
       13
 70
     1
 43
0.0
 10
219.0
 20
63.5
 10
219.8
 20
63.5
 10
219.8
 20
75.5
 10
219.0
 20
75.5
 10
219.0
 20
76.5
 10
205.0
 20
76.5
 10
205.0
 20
75.5
 10
204.2
 20
75.5
 10
204.2
 20
63.5
 10
205.0
 20
63.5
 10
205.0
 20
62.5
 10
219.0
 20
62.5
 10
219.0
 20
63.5
  0
LWPOLYLINE
  5
36D
330
6F
100
AcDbEntity
  8
LAYER1
100
AcDbPolyline
 90
       13
 70
     1
 43
0.0
 10
238.0
 20
63.5
 10
238.8
 20
63.5
 10
238.8
 20
75.5
 10
238.0
 20
75.5
 10
238.0
 20
76.5
 10
224.0
 20
76.5
 10
224.0
 20
75.5
 10
223.2
 20
75.5
 10
223.2
 20
63.5
 10
224.0
 20
63.5
 10
224.0
 20
62.5
 10
238.0
 20
62.5
 10
238.0
 20
63.5
  0
LWPOLYLINE
  5
37C
330
6F
100
AcDbEntity
  8
LAYER1
100
AcDbPolyline
 90
       13
 70
     1
 43
0.0
 10
257.0
 20
63.5
 10
257.8
 20
63.5
 10
257.8
 20
75.5
 10
257.0
 20
75.5
 10
257.0
 20
76.5
 10
243.0
 20
76.5
 10
243.0
 20
75.5
 10
242.2
 20
75.5
 10
242.2
 20
63.5
 10
243.0
 20
63.5
 10
243.0
 20
62.5
 10
257.0
 20
62.5
 10
257.0
 20
63.5
  0
LWPOLYLINE
  5
38B
330
6F
100
AcDbEntity
  8
LAYER1
100
AcDbPolyline
 90
       45
 70
     1
 43
0.0
 10
269.355
 20
70.4
 10
269.355
 20
68.575
 10
270.155
 20
68.575
 10
270.155
 20
67.8
 10
270.125
 20
67.8
 10
270.125
 20
67.0
 10
269.125
 20
67.0
 10
269.125
 20
53.0
 10
270.125
 20
53.0
 10
270.125
 20
52.2
 10
270.155
 20
52.2
 10
270.155
 20
51.425
 10
269.355
 20
51.425
 10
269.355
 20
49.6
 10
268.155
 20
49.6
 10
268.155
 20
46.6
 10
269.355
 20
46.6
 10
269.355
 20
44.775
 10
275.625
 20
44.775
 10
275.625
 20
43.89999999999999
 10
278.425
 20
43.89999999999999
 10
278.425
 20
44.775
 10
281.655
 20
44.775
 10
281.655
 20
51.425
 10
280.855
 20
51.425
 10
280.855
 20
52.2
 10
282.125
 20
52.2
 10
282.125
 20
53.0
 10
283.125
 20
53.0
 10
283.125
 20
67.0
 10
282.125
 20
67.0
 10
282.125
 20
67.8
 10
280.855
 20
67.8
 10
280.855
 20
68.575
 10
281.655
 20
68.575
 10
281.655
 20
75.22499999999999
 10
278.425
 20
75.22499999999999
 10
278.425
 20
76.09999999999999
 10
275.625
 20
76.09999999999999
 10
275.625
 20
75.22499999999999
 10
269.355
 20
75.22499999999999
 10
269.355
 20
73.4
 10
268.155
 20
73.4
 10
268.155
 20
70.4
 10
269.355
 20
70.4
  0
LWPOLYLINE
  5
3BA
330
6F
100
AcDbEntity
  8
LAYER1
100
AcDbPolyline
 90
       13
 70
     1
 43
0.0
 10
309.25
 20
63.5
 10
310.05
 20
63.5
 10
310.05
 20
75.5
 10
309.25
 20
75.5
 10
309.25
 20
76.5
 10
295.25
 20
76.5
 10
295.25
 20
75.5
 10
294.45
 20
75.5
 10
294.45
 20
63.5
 10
295.25
 20
63.5
 10
295.25
 20
62.5
 10
309.25
 20
62.5
 10
309.25
 20
63.5
  0
LWPOLYLINE
  5
3C9
330
6F
100
AcDbEntity
  8
LAYER1
100
AcDbPolyline
 90
       13
 70
     1
 43
0.0
 10
328.25
 20
63.5
 10
329.05
 20
63.5
 10
329.05
 20
75.5
 10
328.25
 20
75.5
 10
328.25
 20
76.5
 10
314.25
 20
76.5
 10
314.25
 20
75.5
 10
313.45
 20
75.5
 10
313.45
 20
63.5
 10
314.25
 20
63.5
 10
314.25
 20
62.5
 10
328.25
 20
62.5
 10
328.25
 20
63.5
  0
LWPOLYLINE
  5
3D8
330
6F
100
AcDbEntity
  8
LAYER1
100
AcDbPolyline
 90
       13
 70
     1
 43
0.0
 10
347.25
 20
63.5
 10
348.05
 20
63.5
 10
348.05
 20
75.5
 10
347.25
 20
75.5
 10
347.25
 20
76.5
 10
333.25
 20
76.5
 10
333.25
 20
75.5
 10
332.45
 20
75.5
 10
332.45
 20
63.5
 10
333.25
 20
63.5
 10
333.25
 20
62.5
 10
347.25
 20
62.5
 10
347.25
 20
63.5
  0
LWPOLYLINE
  5
3E7
330
6F
100
AcDbEntity
  8
LAYER1
100
AcDbPolyline
 90
       13
 70
     1
 43
0.0
 10
371.0
 20
63.5
 10
371.8
 20
63.5
 10
371.8
 20
75.5
 10
371.0
 20
75.5
 10
371.0
 20
76.5
 10
357.0
 20
76.5
 10
357.0
 20
75.5
 10
356.2
 20
75.5
 10
356.2
 20
63.5
 10
357.0
 20
63.5
 10
357.0
 20
62.5
 10
371.0
 20
62.5
 10
371.0
 20
63.5
  0
LWPOLYLINE
  5
3F6
330
6F
100
AcDbEntity
  8
LAYER1
100
AcDbPolyline
 90
       13
 70
     1
 43
0.0
 10
390.0
 20
63.5
 10
390.8
 20
63.5
 10
390.8
 20
75.5
 10
390.0
 20
75.5
 10
390.0
 20
76.5
 10
376.0
 20
76.5
 10
376.0
 20
75.5
 10
375.2
 20
75.5
 10
375.2
 20
63.5
 10
376.0
 20
63.5
 10
376.0
 20
62.5
 10
390.0
 20
62.5
 10
390.0
 20
63.5
  0
LWPOLYLINE
  5
405
330
6F
100
AcDbEntity
  8
LAYER1
100
AcDbPolyline
 90
       13
 70
     1
 43
0.0
 10
409.0
 20
63.5
 10
409.7999999999999
 20
63.5
 10
409.7999999999999
 20
75.5
 10
409.0
 20
75.5
 10
409.0
 20
76.5
 10
395.0
 20
76.5
 10
395.0
 20
75.5
 10
394.2
 20
75.5
 10
394.2
 20
63.5
 10
395.0
 20
63.5
 10
395.0
 20
62.5
 10
409.0
 20
62.5
 10
409.0
 20
63.5
  0
LWPOLYLINE
  5
414
330
6F
100
AcDbEntity
  8
LAYER1
100
AcDbPolyline
 90
       45
 70
     1
 43
0.0
 10
414.23
 20
70.4
 10
414.23
 20
68.575
 10
415.0299999999999
 20
68.575
 10
415.0299999999999
 20
67.8
 10
415.0
 20
67.8
 10
415.0
 20
67.0
 10
414.0
 20
67.0
 10
414.0
 20
53.0
 10
415.0
 20
53.0
 10
415.0
 20
52.2
 10
415.0299999999999
 20
52.2
 10
415.0299999999999
 20
51.425
 10
414.23
 20
51.425
 10
414.23
 20
49.6
 10
413.03
 20
49.6
 10
413.03
 20
46.6
 10
414.23
 20
46.6
 10
414.23
 20
44.775
 10
420.5
 20
44.775
 10
420.5
 20
43.89999999999999
 10
423.3
 20
43.89999999999999
 10
423.3
 20
44.775
 10
426.5299999999999
 20
44.775
 10
426.5299999999999
 20
51.425
 10
425.7299999999999
 20
51.425
 10
425.7299999999999
 20
52.2
 10
427.0
 20
52.2
 10
427.0
 20
53.0
 10
428.0
 20
53.0
 10
428.0
 20
67.0
 10
427.0
 20
67.0
 10
427.0
 20
67.8
 10
425.7299999999999
 20
67.8
 10
425.7299999999999
 20
68.575
 10
426.5299999999999
 20
68.575
 10
426.5299999999999
 20
75.22499999999999
 10
423.3
 20
75.22499999999999
 10
423.3
 20
76.09999999999999
 10
420.5
 20
76.09999999999999
 10
420.5
 20
75.22499999999999
 10
414.23
 20
75.22499999999999
 10
414.23
 20
73.4
 10
413.03
 20
73.4
 10
413.03
 20
70.4
 10
414.23
 20
70.4
  0
LWPOLYLINE
  5
443
330
6F
100
AcDbEntity
  8
LAYER1
100
AcDbPolyline
 90
       13
 70
     1
 43
0.0
 10
26.625
 20
44.5
 10
27.425
 20
44.5
 10
27.425
 20
56.5
 10
26.625
 20
56.5
 10
26.625
 20
57.5
 10
12.625
 20
57.5
 10
12.625
 20
56.5
 10
11.825
 20
56.5
 10
11.825
 20
44.5
 10
12.625
 20
44.5
 10
12.625
 20
43.5
 10
26.625
 20
43.5
 10
26.625
 20
44.5
  0
LWPOLYLINE
  5
452
330
6F
100
AcDbEntity
  8
LAYER1
100
AcDbPolyline
 90
       13
 70
     1
 43
0.0
 10
52.75
 20
44.5
 10
53.55
 20
44.5
 10
53.55
 20
56.5
 10
52.75
 20
56.5
 10
52.75
 20
57.5
 10
38.75
 20
57.5
 10
38.75
 20
56.5
 10
37.95
 20
56.5
 10
37.95
 20
44.5
 10
38.75
 20
44.5
 10
38.75
 20
43.5
 10
52.75
 20
43.5
 10
52.75
 20
44.5
  0
LWPOLYLINE
  5
461
330
6F
100
AcDbEntity
  8
LAYER1
100
AcDbPolyline
 90
       13
 70
     1
 43
0.0
 10
71.75
 20
44.5
 10
72.54999999999999
 20
44.5
 10
72.54999999999999
 20
56.5
 10
71.75
 20
56.5
 10
71.75
 20
57.5
 10
57.75
 20
57.5
 10
57.75
 20
56.5
 10
56.95
 20
56.5
 10
56.95
 20
44.5
 10
57.75
 20
44.5
 10
57.75
 20
43.5
 10
71.75
 20
43.5
 10
71.75
 20
44.5
  0
LWPOLYLINE
  5
470
330
6F
100
AcDbEntity
  8
LAYER1
100
AcDbPolyline
 90
       13
 70
     1
 43
0.0
 10
90.75000000000001
 20
44.5
 10
91.54999999999999
 20
44.5
 10
91.54999999999999
 20
56.5
 10
90.75000000000001
 20
56.5
 10
90.75000000000001
 20
57.5
 10
76.75
 20
57.5
 10
76.75
 20
56.5
 10
75.95
 20
56.5
 10
75.95
 20
44.5
 10
76.75
 20
44.5
 10
76.75
 20
43.5
 10
90.75000000000001
 20
43.5
 10
90.75000000000001
 20
44.5
  0
LWPOLYLINE
  5
47F
330
6F
100
AcDbEntity
  8
LAYER1
100
AcDbPolyline
 90
       13
 70
     1
 43
0.0
 10
109.75
 20
44.5
 10
110.55
 20
44.5
 10
110.55
 20
56.5
 10
109.75
 20
56.5
 10
109.75
 20
57.5
 10
95.75000000000001
 20
57.5
 10
95.75000000000001
 20
56.5
 10
94.95
 20
56.5
 10
94.95
 20
44.5
 10
95.75000000000001
 20
44.5
 10
95.75000000000001
 20
43.5
 10
109.75
 20
43.5
 10
109.75
 20
44.5
  0
LWPOLYLINE
  5
48E
330
6F
100
AcDbEntity
  8
LAYER1
100
AcDbPolyline
 90
       13
 70
     1
 43
0.0
 10
128.75
 20
44.5
 10
129.55
 20
44.5
 10
129.55
 20
56.5
 10
128.75
 20
56.5
 10
128.75
 20
57.5
 10
114.75
 20
57.5
 10
114.75
 20
56.5
 10
113.95
 20
56.5
 10
113.95
 20
44.5
 10
114.75
 20
44.5
 10
114.75
 20
43.5
 10
128.75
 20
43.5
 10
128.75
 20
44.5
  0
LWPOLYLINE
  5
49D
330
6F
100
AcDbEntity
  8
LAYER1
100
AcDbPolyline
 90
       13
 70
     1
 43
0.0
 10
147.75
 20
44.5
 10
148.55
 20
44.5
 10
148.55
 20
56.5
 10
147.75
 20
56.5
 10
147.75
 20
57.5
 10
133.75
 20
57.5
 10
133.75
 20
56.5
 10
132.95
 20
56.5
 10
132.95
 20
44.5
 10
133.75
 20
44.5
 10
133.75
 20
43.5
 10
147.75
 20
43.5
 10
147.75
 20
44.5
  0
LWPOLYLINE
  5
4AC
330
6F
100
AcDbEntity
  8
LAYER1
100
AcDbPolyline
 90
       13
 70
     1
 43
0.0
 10
166.75
 20
44.5
 10
167.55
 20
44.5
 10
167.55
 20
56.5
 10
166.75
 20
56.5
 10
166.75
 20
57.5
 10
152.75
 20
57.5
 10
152.75
 20
56.5
 10
151.95
 20
56.5
 10
151.95
 20
44.5
 10
152.75
 20
44.5
 10
152.75
 20
43.5
 10
166.75
 20
43.5
 10
166.75
 20
44.5
  0
LWPOLYLINE
  5
4BB
330
6F
100
AcDbEntity
  8
LAYER1
100
AcDbPolyline
 90
       13
 70
     1
 43
0.0
 10
185.75
 20
44.5
 10
186.55
 20
44.5
 10
186.55
 20
56.5
 10
185.75
 20
56.5
 10
185.75
 20
57.5
 10
171.75
 20
57.5
 10
171.75
 20
56.5
 10
170.95
 20
56.5
 10
170.95
 20
44.5
 10
171.75
 20
44.5
 10
171.75
 20
43.5
 10
185.75
 20
43.5
 10
185.75
 20
44.5
  0
LWPOLYLINE
  5
4CA
330
6F
100
AcDbEntity
  8
LAYER1
100
AcDbPolyline
 90
       13
 70
     1
 43
0.0
 10
204.75
 20
44.5
 10
205.55
 20
44.5
 10
205.55
 20
56.5
 10
204.75
 20
56.5
 10
204.75
 20
57.5
 10
190.75
 20
57.5
 10
190.75
 20
56.5
 10
189.95
 20
56.5
 10
189.95
 20
44.5
 10
190.75
 20
44.5
 10
190.75
 20
43.5
 10
204.75
 20
43.5
 10
204.75
 20
44.5
  0
LWPOLYLINE
  5
4D9
330
6F
100
AcDbEntity
  8
LAYER1
100
AcDbPolyline
 90
       13
 70
     1
 43
0.0
 10
223.75
 20
44.5
 10
224.55
 20
44.5
 10
224.55
 20
56.5
 10
223.75
 20
56.5
 10
223.75
 20
57.5
 10
209.75
 20
57.5
 10
209.75
 20
56.5
 10
208.95
 20
56.5
 10
208.95
 20
44.5
 10
209.75
 20
44.5
 10
209.75
 20
43.5
 10
223.75
 20
43.5
 10
223.75
 20
44.5
  0
LWPOLYLINE
  5
4E8
330
6F
100
AcDbEntity
  8
LAYER1
100
AcDbPolyline
 90
       13
 70
     1
 43
0.0
 10
242.75
 20
44.5
 10
243.55
 20
44.5
 10
243.55
 20
56.5
 10
242.75
 20
56.5
 10
242.75
 20
57.5
 10
228.75
 20
57.5
 10
228.75
 20
56.5
 10
227.95
 20
56.5
 10
227.95
 20
44.5
 10
228.75
 20
44.5
 10
228.75
 20
43.5
 10
242.75
 20
43.5
 10
242.75
 20
44.5
  0
LWPOLYLINE
  5
4F7
330
6F
100
AcDbEntity
  8
LAYER1
100
AcDbPolyline
 90
       13
 70
     1
 43
0.0
 10
261.75
 20
44.5
 10
262.55
 20
44.5
 10
262.55
 20
56.5
 10
261.75
 20
56.5
 10
261.75
 20
57.5
 10
247.75
 20
57.5
 10
247.75
 20
56.5
 10
246.95
 20
56.5
 10
246.95
 20
44.5
 10
247.75
 20
44.5
 10
247.75
 20
43.5
 10
261.75
 20
43.5
 10
261.75
 20
44.5
  0
LWPOLYLINE
  5
506
330
6F
100
AcDbEntity
  8
LAYER1
100
AcDbPolyline
 90
       13
 70
     1
 43
0.0
 10
371.0
 20
44.5
 10
371.8
 20
44.5
 10
371.8
 20
56.5
 10
371.0
 20
56.5
 10
371.0
 20
57.5
 10
357.0
 20
57.5
 10
357.0
 20
56.5
 10
356.2
 20
56.5
 10
356.2
 20
44.5
 10
357.0
 20
44.5
 10
357.0
 20
43.5
 10
371.0
 20
43.5
 10
371.0
 20
44.5
  0
LWPOLYLINE
  5
515
330
6F
100
AcDbEntity
  8
LAYER1
100
AcDbPolyline
 90
       13
 70
     1
 43
0.0
 10
390.0
 20
44.5
 10
390.8
 20
44.5
 10
390.8
 20
56.5
 10
390.0
 20
56.5
 10
390.0
 20
57.5
 10
376.0
 20
57.5
 10
376.0
 20
56.5
 10
375.2
 20
56.5
 10
375.2
 20
44.5
 10
376.0
 20
44.5
 10
376.0
 20
43.5
 10
390.0
 20
43.5
 10
390.0
 20
44.5
  0
LWPOLYLINE
  5
524
330
6F
100
AcDbEntity
  8
LAYER1
100
AcDbPolyline
 90
       13
 70
     1
 43
0.0
 10
409.0
 20
44.5
 10
409.7999999999999
 20
44.5
 10
409.7999999999999
 20
56.5
 10
409.0
 20
56.5
 10
409.0
 20
57.5
 10
395.0
 20
57.5
 10
395.0
 20
56.5
 10
394.2
 20
56.5
 10
394.2
 20
44.5
 10
395.0
 20
44.5
 10
395.0
 20
43.5
 10
409.0
 20
43.5
 10
409.0
 20
44.5
  0
LWPOLYLINE
  5
533
330
6F
100
AcDbEntity
  8
LAYER1
100
AcDbPolyline
 90
       13
 70
     1
 43
0.0
 10
21.875
 20
25.5
 10
22.675
 20
25.5
 10
22.675
 20
37.5
 10
21.875
 20
37.5
 10
21.875
 20
38.5
 10
7.875
 20
38.5
 10
7.875
 20
37.5
 10
7.075
 20
37.5
 10
7.075
 20
25.5
 10
7.875
 20
25.5
 10
7.875
 20
24.5
 10
21.875
 20
24.5
 10
21.875
 20
25.5
  0
LWPOLYLINE
  5
542
330
6F
100
AcDbEntity
  8
LAYER1
100
AcDbPolyline
 90
       13
 70
     1
 43
0.0
 10
43.25
 20
25.5
 10
44.05
 20
25.5
 10
44.05
 20
37.5
 10
43.25
 20
37.5
 10
43.25
 20
38.5
 10
29.25
 20
38.5
 10
29.25
 20
37.5
 10
28.45
 20
37.5
 10
28.45
 20
25.5
 10
29.25
 20
25.5
 10
29.25
 20
24.5
 10
43.25
 20
24.5
 10
43.25
 20
25.5
  0
LWPOLYLINE
  5
551
330
6F
100
AcDbEntity
  8
LAYER1
100
AcDbPolyline
 90
       13
 70
     1
 43
0.0
 10
62.25
 20
25.5
 10
63.04999999999999
 20
25.5
 10
63.04999999999999
 20
37.5
 10
62.25
 20
37.5
 10
62.25
 20
38.5
 10
48.25
 20
38.5
 10
48.25
 20
37.5
 10
47.45
 20
37.5
 10
47.45
 20
25.5
 10
48.25
 20
25.5
 10
48.25
 20
24.5
 10
62.25
 20
24.5
 10
62.25
 20
25.5
  0
LWPOLYLINE
  5
560
330
6F
100
AcDbEntity
  8
LAYER1
100
AcDbPolyline
 90
       13
 70
     1
 43
0.0
 10
81.25
 20
25.5
 10
82.05
 20
25.5
 10
82.05
 20
37.5
 10
81.25
 20
37.5
 10
81.25
 20
38.5
 10
67.25
 20
38.5
 10
67.25
 20
37.5
 10
66.45
 20
37.5
 10
66.45
 20
25.5
 10
67.25
 20
25.5
 10
67.25
 20
24.5
 10
81.25
 20
24.5
 10
81.25
 20
25.5
  0
LWPOLYLINE
  5
56F
330
6F
100
AcDbEntity
  8
LAYER1
100
AcDbPolyline
 90
       13
 70
     1
 43
0.0
 10
100.25
 20
25.5
 10
101.05
 20
25.5
 10
101.05
 20
37.5
 10
100.25
 20
37.5
 10
100.25
 20
38.5
 10
86.25
 20
38.5
 10
86.25
 20
37.5
 10
85.44999999999999
 20
37.5
 10
85.44999999999999
 20
25.5
 10
86.25
 20
25.5
 10
86.25
 20
24.5
 10
100.25
 20
24.5
 10
100.25
 20
25.5
  0
LWPOLYLINE
  5
57E
330
6F
100
AcDbEntity
  8
LAYER1
100
AcDbPolyline
 90
       13
 70
     1
 43
0.0
 10
119.25
 20
25.5
 10
120.05
 20
25.5
 10
120.05
 20
37.5
 10
119.25
 20
37.5
 10
119.25
 20
38.5
 10
105.25
 20
38.5
 10
105.25
 20
37.5
 10
104.45
 20
37.5
 10
104.45
 20
25.5
 10
105.25
 20
25.5
 10
105.25
 20
24.5
 10
119.25
 20
24.5
 10
119.25
 20
25.5
  0
LWPOLYLINE
  5
58D
330
6F
100
AcDbEntity
  8
LAYER1
100
AcDbPolyline
 90
       13
 70
     1
 43
0.0
 10
138.25
 20
25.5
 10
139.05
 20
25.5
 10
139.05
 20
37.5
 10
138.25
 20
37.5
 10
138.25
 20
38.5
 10
124.25
 20
38.5
 10
124.25
 20
37.5
 10
123.45
 20
37.5
 10
123.45
 20
25.5
 10
124.25
 20
25.5
 10
124.25
 20
24.5
 10
138.25
 20
24.5
 10
138.25
 20
25.5
  0
LWPOLYLINE
  5
59C
330
6F
100
AcDbEntity
  8
LAYER1
100
AcDbPolyline
 90
       13
 70
     1
 43
0.0
 10
157.25
 20
25.5
 10
158.05
 20
25.5
 10
158.05
 20
37.5
 10
157.25
 20
37.5
 10
157.25
 20
38.5
 10
143.25
 20
38.5
 10
143.25
 20
37.5
 10
142.45
 20
37.5
 10
142.45
 20
25.5
 10
143.25
 20
25.5
 10
143.25
 20
24.5
 10
157.25
 20
24.5
 10
157.25
 20
25.5
  0
LWPOLYLINE
  5
5AB
330
6F
100
AcDbEntity
  8
LAYER1
100
AcDbPolyline
 90
       13
 70
     1
 43
0.0
 10
176.25
 20
25.5
 10
177.05
 20
25.5
 10
177.05
 20
37.5
 10
176.25
 20
37.5
 10
176.25
 20
38.5
 10
162.25
 20
38.5
 10
162.25
 20
37.5
 10
161.45
 20
37.5
 10
161.45
 20
25.5
 10
162.25
 20
25.5
 10
162.25
 20
24.5
 10
176.25
 20
24.5
 10
176.25
 20
25.5
  0
LWPOLYLINE
  5
5BA
330
6F
100
AcDbEntity
  8
LAYER1
100
AcDbPolyline
 90
       13
 70
     1
 43
0.0
 10
195.25
 20
25.5
 10
196.05
 20
25.5
 10
196.05
 20
37.5
 10
195.25
 20
37.5
 10
195.25
 20
38.5
 10
181.25
 20
38.5
 10
181.25
 20
37.5
 10
180.45
 20
37.5
 10
180.45
 20
25.5
 10
181.25
 20
25.5
 10
181.25
 20
24.5
 10
195.25
 20
24.5
 10
195.25
 20
25.5
  0
LWPOLYLINE
  5
5C9
330
6F
100
AcDbEntity
  8
LAYER1
100
AcDbPolyline
 90
       13
 70
     1
 43
0.0
 10
214.25
 20
25.5
 10
215.05
 20
25.5
 10
215.05
 20
37.5
 10
214.25
 20
37.5
 10
214.25
 20
38.5
 10
200.25
 20
38.5
 10
200.25
 20
37.5
 10
199.45
 20
37.5
 10
199.45
 20
25.5
 10
200.25
 20
25.5
 10
200.25
 20
24.5
 10
214.25
 20
24.5
 10
214.25
 20
25.5
  0
LWPOLYLINE
  5
5D8
330
6F
100
AcDbEntity
  8
LAYER1
100
AcDbPolyline
 90
       13
 70
     1
 43
0.0
 10
233.25
 20
25.5
 10
234.05
 20
25.5
 10
234.05
 20
37.5
 10
233.25
 20
37.5
 10
233.25
 20
38.5
 10
219.25
 20
38.5
 10
219.25
 20
37.5
 10
218.45
 20
37.5
 10
218.45
 20
25.5
 10
219.25
 20
25.5
 10
219.25
 20
24.5
 10
233.25
 20
24.5
 10
233.25
 20
25.5
  0
LWPOLYLINE
  5
5E7
330
6F
100
AcDbEntity
  8
LAYER1
100
AcDbPolyline
 90
       45
 70
     1
 43
0.0
 10
251.475
 20
24.73
 10
253.3
 20
24.73
 10
253.3
 20
25.53
 10
254.075
 20
25.53
 10
254.075
 20
25.5
 10
254.875
 20
25.5
 10
254.875
 20
24.5
 10
268.875
 20
24.5
 10
268.875
 20
25.5
 10
269.675
 20
25.5
 10
269.675
 20
25.53
 10
270.45
 20
25.53
 10
270.45
 20
24.73
 10
272.275
 20
24.73
 10
272.275
 20
23.53
 10
275.275
 20
23.53
 10
275.275
 20
24.73
 10
277.1
 20
24.73
 10
277.1
 20
31.0
 10
277.975
 20
31.0
 10
277.975
 20
33.8
 10
277.1
 20
33.8
 10
277.1
 20
37.03
 10
270.45
 20
37.03
 10
270.45
 20
36.23
 10
269.675
 20
36.23
 10
269.675
 20
37.5
 10
268.875
 20
37.5
 10
268.875
 20
38.5
 10
254.875
 20
38.5
 10
254.875
 20
37.5
 10
254.075
 20
37.5
 10
254.075
 20
36.23
 10
253.3
 20
36.23
 10
253.3
 20
37.03
 10
246.65
 20
37.03
 10
246.65
 20
33.8
 10
245.775
 20
33.8
 10
245.775
 20
31.0
 10
246.65
 20
31.0
 10
246.65
 20
24.73
 10
248.475
 20
24.73
 10
248.475
 20
23.53
 10
251.475
 20
23.53
 10
251.475
 20
24.73
  0
LWPOLYLINE
  5
616
330
6F
100
AcDbEntity
  8
LAYER1
100
AcDbPolyline
 90
       13
 70
     1
 43
0.0
 10
328.25
 20
25.5
 10
329.05
 20
25.5
 10
329.05
 20
37.5
 10
328.25
 20
37.5
 10
328.25
 20
38.5
 10
314.25
 20
38.5
 10
314.25
 20
37.5
 10
313.45
 20
37.5
 10
313.45
 20
25.5
 10
314.25
 20
25.5
 10
314.25
 20
24.5
 10
328.25
 20
24.5
 10
328.25
 20
25.5
  0
LWPOLYLINE
  5
625
330
6F
100
AcDbEntity
  8
LAYER1
100
AcDbPolyline
 90
       13
 70
     1
 43
0.0
 10
371.0
 20
25.5
 10
371.8
 20
25.5
 10
371.8
 20
37.5
 10
371.0
 20
37.5
 10
371.0
 20
38.5
 10
357.0
 20
38.5
 10
357.0
 20
37.5
 10
356.2
 20
37.5
 10
356.2
 20
25.5
 10
357.0
 20
25.5
 10
357.0
 20
24.5
 10
371.0
 20
24.5
 10
371.0
 20
25.5
  0
LWPOLYLINE
  5
634
330
6F
100
AcDbEntity
  8
LAYER1
100
AcDbPolyline
 90
       13
 70
     1
 43
0.0
 10
390.0
 20
25.5
 10
390.8
 20
25.5
 10
390.8
 20
37.5
 10
390.0
 20
37.5
 10
390.0
 20
38.5
 10
376.0
 20
38.5
 10
376.0
 20
37.5
 10
375.2
 20
37.5
 10
375.2
 20
25.5
 10
376.0
 20
25.5
 10
376.0
 20
24.5
 10
390.0
 20
24.5
 10
390.0
 20
25.5
  0
LWPOLYLINE
  5
643
330
6F
100
AcDbEntity
  8
LAYER1
100
AcDbPolyline
 90
       13
 70
     1
 43
0.0
 10
409.0
 20
25.5
 10
409.7999999999999
 20
25.5
 10
409.7999999999999
 20
37.5
 10
409.0
 20
37.5
 10
409.0
 20
38.5
 10
395.0
 20
38.5
 10
395.0
 20
37.5
 10
394.2
 20
37.5
 10
394.2
 20
25.5
 10
395.0
 20
25.5
 10
395.0
 20
24.5
 10
409.0
 20
24.5
 10
409.0
 20
25.5
  0
LWPOLYLINE
  5
652
330
6F
100
AcDbEntity
  8
LAYER1
100
AcDbPolyline
 90
       45
 70
     1
 43
0.0
 10
414.23
 20
32.4
 10
414.23
 20
30.575
 10
415.0299999999999
 20
30.575
 10
415.0299999999999
 20
29.8
 10
415.0
 20
29.8
 10
415.0
 20
29.0
 10
414.0
 20
29.0
 10
414.0
 20
15.0
 10
415.0
 20
15.0
 10
415.0
 20
14.2
 10
415.0299999999999
 20
14.2
 10
415.0299999999999
 20
13.425
 10
414.23
 20
13.425
 10
414.23
 20
11.6
 10
413.03
 20
11.6
 10
413.03
 20
8.599999999999999
 10
414.23
 20
8.599999999999999
 10
414.23
 20
6.775
 10
420.5
 20
6.775
 10
420.5
 20
5.9
 10
423.3
 20
5.9
 10
423.3
 20
6.775
 10
426.5299999999999
 20
6.775
 10
426.5299999999999
 20
13.425
 10
425.7299999999999
 20
13.425
 10
425.7299999999999
 20
14.2
 10
427.0
 20
14.2
 10
427.0
 20
15.0
 10
428.0
 20
15.0
 10
428.0
 20
29.0
 10
427.0
 20
29.0
 10
427.0
 20
29.8
 10
425.7299999999999
 20
29.8
 10
425.7299999999999
 20
30.575
 10
426.5299999999999
 20
30.575
 10
426.5299999999999
 20
37.225
 10
423.3
 20
37.225
 10
423.3
 20
38.1
 10
420.5
 20
38.1
 10
420.5
 20
37.225
 10
414.23
 20
37.225
 10
414.23
 20
35.4
 10
413.03
 20
35.4
 10
413.03
 20
32.4
 10
414.23
 20
32.4
  0
LWPOLYLINE
  5
681
330
6F
100
AcDbEntity
  8
LAYER1
100
AcDbPolyline
 90
       13
 70
     1
 43
0.0
 10
21.875
 20
6.5
 10
22.675
 20
6.5
 10
22.675
 20
18.5
 10
21.875
 20
18.5
 10
21.875
 20
19.5
 10
7.875
 20
19.5
 10
7.875
 20
18.5
 10
7.075
 20
18.5
 10
7.075
 20
6.5
 10
7.875
 20
6.5
 10
7.875
 20
5.5
 10
21.875
 20
5.5
 10
21.875
 20
6.5
  0
LWPOLYLINE
  5
690
330
6F
100
AcDbEntity
  8
LAYER1
100
AcDbPolyline
 90
       13
 70
     1
 43
0.0
 10
45.625
 20
6.5
 10
46.425
 20
6.5
 10
46.425
 20
18.5
 10
45.625
 20
18.5
 10
45.625
 20
19.5
 10
31.625
 20
19.5
 10
31.625
 20
18.5
 10
30.825
 20
18.5
 10
30.825
 20
6.5
 10
31.625
 20
6.5
 10
31.625
 20
5.5
 10
45.625
 20
5.5
 10
45.625
 20
6.5
  0
LWPOLYLINE
  5
69F
330
6F
100
AcDbEntity
  8
LAYER1
100
AcDbPolyline
 90
       13
 70
     1
 43
0.0
 10
69.375
 20
6.5
 10
70.175
 20
6.5
 10
70.175
 20
18.5
 10
69.375
 20
18.5
 10
69.375
 20
19.5
 10
55.375
 20
19.5
 10
55.375
 20
18.5
 10
54.575
 20
18.5
 10
54.575
 20
6.5
 10
55.375
 20
6.5
 10
55.375
 20
5.5
 10
69.375
 20
5.5
 10
69.375
 20
6.5
  0
LWPOLYLINE
  5
6DD
330
6F
100
AcDbEntity
  8
LAYER1
100
AcDbPolyline
 90
       13
 70
     1
 43
0.0
 10
211.875
 20
6.5
 10
212.675
 20
6.5
 10
212.675
 20
18.5
 10
211.875
 20
18.5
 10
211.875
 20
19.5
 10
197.875
 20
19.5
 10
197.875
 20
18.5
 10
197.075
 20
18.5
 10
197.075
 20
6.5
 10
197.875
 20
6.5
 10
197.875
 20
5.5
 10
211.875
 20
5.5
 10
211.875
 20
6.5
  0
LWPOLYLINE
  5
6EC
330
6F
100
AcDbEntity
  8
LAYER1
100
AcDbPolyline
 90
       13
 70
     1
 43
0.0
 10
235.625
 20
6.5
 10
236.425
 20
6.5
 10
236.425
 20
18.5
 10
235.625
 20
18.5
 10
235.625
 20
19.5
 10
221.625
 20
19.5
 10
221.625
 20
18.5
 10
220.825
 20
18.5
 10
220.825
 20
6.5
 10
221.625
 20
6.5
 10
221.625
 20
5.5
 10
235.625
 20
5.5
 10
235.625
 20
6.5
  0
LWPOLYLINE
  5
6FB
330
6F
100
AcDbEntity
  8
LAYER1
100
AcDbPolyline
 90
       13
 70
     1
 43
0.0
 10
259.375
 20
6.5
 10
260.175
 20
6.5
 10
260.175
 20
18.5
 10
259.375
 20
18.5
 10
259.375
 20
19.5
 10
245.375
 20
19.5
 10
245.375
 20
18.5
 10
244.575
 20
18.5
 10
244.575
 20
6.5
 10
245.375
 20
6.5
 10
245.375
 20
5.5
 10
259.375
 20
5.5
 10
259.375
 20
6.5
  0
LWPOLYLINE
  5
70A
330
6F
100
AcDbEntity
  8
LAYER1
100
AcDbPolyline
 90
       13
 70
     1
 43
0.0
 10
283.125
 20
6.5
 10
283.925
 20
6.5
 10
283.925
 20
18.5
 10
283.125
 20
18.5
 10
283.125
 20
19.5
 10
269.125
 20
19.5
 10
269.125
 20
18.5
 10
268.325
 20
18.5
 10
268.325
 20
6.5
 10
269.125
 20
6.5
 10
269.125
 20
5.5
 10
283.125
 20
5.5
 10
283.125
 20
6.5
  0
LWPOLYLINE
  5
719
330
6F
100
AcDbEntity
  8
LAYER1
100
AcDbPolyline
 90
       13
 70
     1
 43
0.0
 10
309.25
 20
6.5
 10
310.05
 20
6.5
 10
310.05
 20
18.5
 10
309.25
 20
18.5
 10
309.25
 20
19.5
 10
295.25
 20
19.5
 10
295.25
 20
18.5
 10
294.45
 20
18.5
 10
294.45
 20
6.5
 10
295.25
 20
6.5
 10
295.25
 20
5.5
 10
309.25
 20
5.5
 10
309.25
 20
6.5
  0
LWPOLYLINE
  5
728
330
6F
100
AcDbEntity
  8
LAYER1
100
AcDbPolyline
 90
       13
 70
     1
 43
0.0
 10
328.25
 20
6.5
 10
329.05
 20
6.5
 10
329.05
 20
18.5
 10
328.25
 20
18.5
 10
328.25
 20
19.5
 10
314.25
 20
19.5
 10
314.25
 20
18.5
 10
313.45
 20
18.5
 10
313.45
 20
6.5
 10
314.25
 20
6.5
 10
314.25
 20
5.5
 10
328.25
 20
5.5
 10
328.25
 20
6.5
  0
LWPOLYLINE
  5
737
330
6F
100
AcDbEntity
  8
LAYER1
100
AcDbPolyline
 90
       13
 70
     1
 43
0.0
 10
347.25
 20
6.5
 10
348.05
 20
6.5
 10
348.05
 20
18.5
 10
347.25
 20
18.5
 10
347.25
 20
19.5
 10
333.25
 20
19.5
 10
333.25
 20
18.5
 10
332.45
 20
18.5
 10
332.45
 20
6.5
 10
333.25
 20
6.5
 10
333.25
 20
5.5
 10
347.25
 20
5.5
 10
347.25
 20
6.5
  0
LWPOLYLINE
  5
746
330
6F
100
AcDbEntity
  8
LAYER1
100
AcDbPolyline
 90
       45
 70
     1
 43
0.0
 10
363.1
 20
5.73
 10
364.925
 20
5.73
 10
364.925
 20
6.53
 10
365.7
 20
6.53
 10
365.7
 20
6.5
 10
366.5
 20
6.5
 10
366.5
 20
5.5
 10
380.5
 20
5.5
 10
380.5
 20
6.5
 10
381.3
 20
6.5
 10
381.3
 20
6.53
 10
382.075
 20
6.53
 10
382.075
 20
5.73
 10
383.9
 20
5.73
 10
383.9
 20
4.53
 10
386.9
 20
4.53
 10
386.9
 20
5.73
 10
388.725
 20
5.73
 10
388.725
 20
12.0
 10
389.6
 20
12.0
 10
389.6
 20
14.8
 10
388.725
 20
14.8
 10
388.725
 20
18.03
 10
382.075
 20
18.03
 10
382.075
 20
17.23
 10
381.3
 20
17.23
 10
381.3
 20
18.5
 10
380.5
 20
18.5
 10
380.5
 20
19.5
 10
366.5
 20
19.5
 10
366.5
 20
18.5
 10
365.7
 20
18.5
 10
365.7
 20
17.23
 10
364.925
 20
17.23
 10
364.925
 20
18.03
 10
358.275
 20
18.03
 10
358.275
 20
14.8
 10
357.4
 20
14.8
 10
357.4
 20
12.0
 10
358.275
 20
12.0
 10
358.275
 20
5.73
 10
360.1
 20
5.73
 10
360.1
 20
4.53
 10
363.1
 20
4.53
 10
363.1
 20
5.73
  0
LWPOLYLINE
  5
775
330
6F
100
AcDbEntity
  8
LAYER1
100
AcDbPolyline
 90
       13
 70
     1
 43
0.0
 10
409.0
 20
6.5
 10
409.7999999999999
 20
6.5
 10
409.7999999999999
 20
18.5
 10
409.0
 20
18.5
 10
409.0
 20
19.5
 10
395.0
 20
19.5
 10
395.0
 20
18.5
 10
394.2
 20
18.5
 10
394.2
 20
6.5
 10
395.0
 20
6.5
 10
395.0
 20
5.5
 10
409.0
 20
5.5
 10
409.0
 20
6.5
  0
LINE
  5
7E3
330
6F
100
AcDbEntity
  8
0
  6
Continuous
100
AcDbLine
 10
80.29999999999999
 20
14.8
 30
0.0
 11
80.29999999999999
 21
18.03
 31
0.0
  0
LINE
  5
7E4
330
6F
100
AcDbEntity
  8
0
  6
Continuous
100
AcDbLine
 10
80.29999999999999
 20
18.03
 30
0.0
 11
86.95
 21
18.03
 31
0.0
  0
LINE
  5
7E5
330
6F
100
AcDbEntity
  8
0
  6
Continuous
100
AcDbLine
 10
86.95
 20
18.03
 30
0.0
 11
86.95
 21
14.8
 31
0.0
  0
LINE
  5
7E7
330
6F
100
AcDbEntity
  8
0
  6
Continuous
100
AcDbLine
 10
125.825
 20
14.8
 30
0.0
 11
125.825
 21
18.5
 31
0.0
  0
LINE
  5
7E8
330
6F
100
AcDbEntity
  8
0
  6
Continuous
100
AcDbLine
 10
125.825
 20
18.5
 30
0.0
 11
126.625
 21
18.5
 31
0.0
  0
LINE
  5
7E9
330
6F
100
AcDbEntity
  8
0
  6
Continuous
100
AcDbLine
 10
126.625
 20
18.5
 30
0.0
 11
126.625
 21
19.5
 31
0.0
  0
LINE
  5
7EA
330
6F
100
AcDbEntity
  8
0
  6
Continuous
100
AcDbLine
 10
126.625
 20
19.5
 30
0.0
 11
140.625
 21
19.5
 31
0.0
  0
LINE
  5
7EB
330
6F
100
AcDbEntity
  8
0
  6
Continuous
100
AcDbLine
 10
140.625
 20
19.5
 30
0.0
 11
140.625
 21
18.5
 31
0.0
  0
LINE
  5
7EC
330
6F
100
AcDbEntity
  8
0
  6
Continuous
100
AcDbLine
 10
140.625
 20
18.5
 30
0.0
 11
141.425
 21
18.5
 31
0.0
  0
LINE
  5
7ED
330
6F
100
AcDbEntity
  8
0
  6
Continuous
100
AcDbLine
 10
141.425
 20
18.5
 30
0.0
 11
141.425
 21
14.8
 31
0.0
  0
LINE
  5
7EF
330
6F
100
AcDbEntity
  8
0
  6
Continuous
100
AcDbLine
 10
180.3
 20
14.8
 30
0.0
 11
180.3
 21
18.03
 31
0.0
  0
LINE
  5
7F0
330
6F
100
AcDbEntity
  8
0
  6
Continuous
100
AcDbLine
 10
180.3
 20
18.03
 30
0.0
 11
186.95
 21
18.03
 31
0.0
  0
LINE
  5
7F1
330
6F
100
AcDbEntity
  8
0
  6
Continuous
100
AcDbLine
 10
186.95
 20
18.03
 30
0.0
 11
186.95
 21
14.8
 31
0.0
  0
LINE
  5
7F2
330
6F
100
AcDbEntity
  8
0
  6
Continuous
100
AcDbLine
 10
186.95
 20
14.8
 30
0.0
 11
187.85
 21
14.8
 31
0.0
  0
LINE
  5
7F3
330
6F
100
AcDbEntity
  8
0
  6
Continuous
100
AcDbLine
 10
187.85
 20
14.8
 30
0.0
 11
187.85
 21
12.0
 31
0.0
  0
LINE
  5
7F4
330
6F
100
AcDbEntity
  8
0
  6
Continuous
100
AcDbLine
 10
187.85
 20
12.0
 30
0.0
 11
186.95
 21
12.0
 31
0.0
  0
LINE
  5
7F5
330
6F
100
AcDbEntity
  8
0
  6
Continuous
100
AcDbLine
 10
186.95
 20
12.0
 30
0.0
 11
186.95
 21
5.73
 31
0.0
  0
LINE
  5
7F6
330
6F
100
AcDbEntity
  8
0
  6
Continuous
100
AcDbLine
 10
186.95
 20
5.73
 30
0.0
 11
185.125
 21
5.73
 31
0.0
  0
LINE
  5
7F7
330
6F
100
AcDbEntity
  8
0
  6
Continuous
100
AcDbLine
 10
185.125
 20
5.73
 30
0.0
 11
185.125
 21
4.53
 31
0.0
  0
LINE
  5
7F8
330
6F
100
AcDbEntity
  8
0
  6
Continuous
100
AcDbLine
 10
185.125
 20
4.53
 30
0.0
 11
182.125
 21
4.53
 31
0.0
  0
LINE
  5
7F9
330
6F
100
AcDbEntity
  8
0
  6
Continuous
100
AcDbLine
 10
182.125
 20
4.53
 30
0.0
 11
182.125
 21
5.73
 31
0.0
  0
LINE
  5
7FA
330
6F
100
AcDbEntity
  8
0
  6
Continuous
100
AcDbLine
 10
182.125
 20
5.73
 30
0.0
 11
180.3
 21
5.73
 31
0.0
  0
LINE
  5
7FB
330
6F
100
AcDbEntity
  8
0
  6
Continuous
100
AcDbLine
 10
180.3
 20
5.73
 30
0.0
 11
180.3
 21
10.2
 31
0.0
  0
LINE
  5
7FD
330
6F
100
AcDbEntity
  8
0
  6
Continuous
100
AcDbLine
 10
141.425
 20
10.2
 30
0.0
 11
141.425
 21
6.5
 31
0.0
  0
LINE
  5
7FE
330
6F
100
AcDbEntity
  8
0
  6
Continuous
100
AcDbLine
 10
141.425
 20
6.5
 30
0.0
 11
140.625
 21
6.5
 31
0.0
  0
LINE
  5
7FF
330
6F
100
AcDbEntity
  8
0
  6
Continuous
100
AcDbLine
 10
140.625
 20
6.5
 30
0.0
 11
140.625
 21
5.5
 31
0.0
  0
LINE
  5
800
330
6F
100
AcDbEntity
  8
0
  6
Continuous
100
AcDbLine
 10
140.625
 20
5.5
 30
0.0
 11
126.625
 21
5.500000000000001
 31
0.0
  0
LINE
  5
801
330
6F
100
AcDbEntity
  8
0
  6
Continuous
100
AcDbLine
 10
126.625
 20
5.500000000000001
 30
0.0
 11
126.625
 21
6.5
 31
0.0
  0
LINE
  5
802
330
6F
100
AcDbEntity
  8
0
  6
Continuous
100
AcDbLine
 10
126.625
 20
6.5
 30
0.0
 11
125.825
 21
6.5
 31
0.0
  0
LINE
  5
803
330
6F
100
AcDbEntity
  8
0
  6
Continuous
100
AcDbLine
 10
125.825
 20
6.5
 30
0.0
 11
125.825
 21
10.2
 31
0.0
  0
LINE
  5
805
330
6F
100
AcDbEntity
  8
0
  6
Continuous
100
AcDbLine
 10
86.95
 20
10.2
 30
0.0
 11
86.95
 21
5.73
 31
0.0
  0
LINE
  5
806
330
6F
100
AcDbEntity
  8
0
  6
Continuous
100
AcDbLine
 10
86.95
 20
5.73
 30
0.0
 11
85.12500000000001
 21
5.73
 31
0.0
  0
LINE
  5
807
330
6F
100
AcDbEntity
  8
0
  6
Continuous
100
AcDbLine
 10
85.12500000000001
 20
5.73
 30
0.0
 11
85.12500000000001
 21
4.53
 31
0.0
  0
LINE
  5
808
330
6F
100
AcDbEntity
  8
0
  6
Continuous
100
AcDbLine
 10
85.12500000000001
 20
4.53
 30
0.0
 11
82.125
 21
4.53
 31
0.0
  0
LINE
  5
809
330
6F
100
AcDbEntity
  8
0
  6
Continuous
100
AcDbLine
 10
82.125
 20
4.53
 30
0.0
 11
82.125
 21
5.73
 31
0.0
  0
LINE
  5
80A
330
6F
100
AcDbEntity
  8
0
  6
Continuous
100
AcDbLine
 10
82.125
 20
5.73
 30
0.0
 11
80.29999999999999
 21
5.73
 31
0.0
  0
LINE
  5
80B
330
6F
100
AcDbEntity
  8
0
  6
Continuous
100
AcDbLine
 10
80.29999999999999
 20
5.73
 30
0.0
 11
80.29999999999999
 21
12.0
 31
0.0
  0
LINE
  5
80C
330
6F
100
AcDbEntity
  8
0
  6
Continuous
100
AcDbLine
 10
80.29999999999999
 20
12.0
 30
0.0
 11
79.40000000000001
 21
12.0
 31
0.0
  0
LINE
  5
80D
330
6F
100
AcDbEntity
  8
0
  6
Continuous
100
AcDbLine
 10
79.40000000000001
 20
12.0
 30
0.0
 11
79.40000000000001
 21
14.8
 31
0.0
  0
LINE
  5
80E
330
6F
100
AcDbEntity
  8
0
  6
Continuous
100
AcDbLine
 10
79.40000000000001
 20
14.8
 30
0.0
 11
80.29999999999999
 21
14.8
 31
0.0
  0
LINE
  5
80F
330
6F
100
AcDbEntity
  8
0
  6
Continuous
100
AcDbLine
 10
80.29999999999999
 20
14.8
 30
0.0
 11
80.29999999999999
 21
18.03
 31
0.0
  0
LINE
  5
810
330
6F
100
AcDbEntity
  8
0
  6
Continuous
100
AcDbLine
 10
80.29999999999999
 20
18.03
 30
0.0
 11
86.95
 21
18.03
 31
0.0
  0
LINE
  5
823
330
6F
100
AcDbEntity
  8
0
  6
Continuous
100
AcDbLine
 10
86.95
 20
10.2
 30
0.0
 11
87.94999999999999
 21
10.2
 31
0.0
  0
LINE
  5
824
330
6F
100
AcDbEntity
  8
0
  6
Continuous
100
AcDbLine
 10
87.94999999999999
 20
10.2
 30
0.0
 11
87.94999999999999
 21
14.8
 31
0.0
  0
LINE
  5
825
330
6F
100
AcDbEntity
  8
0
  6
Continuous
100
AcDbLine
 10
86.95
 20
14.8
 30
0.0
 11
87.94999999999999
 21
14.8
 31
0.0
  0
LINE
  5
826
330
6F
100
AcDbEntity
  8
0
  6
Continuous
100
AcDbLine
 10
125.825
 20
14.8
 30
0.0
 11
125.825
 21
10.2
 31
0.0
  0
LINE
  5
827
330
6F
100
AcDbEntity
  8
0
  6
Continuous
100
AcDbLine
 10
180.3
 20
10.2
 30
0.0
 11
179.3
 21
10.2
 31
0.0
  0
LINE
  5
828
330
6F
100
AcDbEntity
  8
0
  6
Continuous
100
AcDbLine
 10
179.3
 20
10.2
 30
0.0
 11
179.3
 21
14.8
 31
0.0
  0
LINE
  5
829
330
6F
100
AcDbEntity
  8
0
  6
Continuous
100
AcDbLine
 10
179.3
 20
14.8
 30
0.0
 11
180.3
 21
14.8
 31
0.0
  0
LINE
  5
82A
330
6F
100
AcDbEntity
  8
0
  6
Continuous
100
AcDbLine
 10
141.425
 20
14.8
 30
0.0
 11
141.425
 21
10.2
 31
0.0
  0
LINE
  5
900
330
6F
100
AcDbEntity
  8
0
  6
Continuous
100
AcDbLine
 10
0.0000000000000002
 20
125.9644660940672
 30
0.0
 11
-0.0000000000000222
 21
3.535533905932759
 31
0.0
  0
LINE
  5
901
330
6F
100
AcDbEntity
  8
0
  6
Continuous
100
AcDbLine
 10
3.535533905932736
 20
0.0
 30
0.0
 11
429.9644660940672
 21
0.000000000000004
 31
0.0
  0
LINE
  5
902
330
6F
100
AcDbEntity
  8
0
  6
Continuous
100
AcDbLine
 10
433.4999999999999
 20
3.535533905932735
 30
0.0
 11
433.5
 21
125.9602514733517
 31
0.0
  0
LINE
  5
903
330
6F
100
AcDbEntity
  8
0
  6
Continuous
100
AcDbLine
 10
429.9686706903964
 20
129.5
 30
0.0
 11
3.535533905932743
 21
129.5
 31
0.0
  0
LINE
  5
904
330
6F
100
AcDbEntity
  8
0
  6
Continuous
100
AcDbLine
 10
0.0000000000000002
 20
125.9644660940672
 30
0.0
 11
3.535533905932743
 21
129.5
 31
0.0
  0
LINE
  5
905
330
6F
100
AcDbEntity
  8
0
  6
Continuous
100
AcDbLine
 10
-0.0000000000000222
 20
3.535533905932759
 30
0.0
 11
3.535533905932736
 21
0.0
 31
0.0
  0
LINE
  5
906
330
6F
100
AcDbEntity
  8
0
  6
Continuous
100
AcDbLine
 10
429.9644660940672
 20
0.000000000000004
 30
0.0
 11
433.4999999999999
 21
3.535533905932735
 31
0.0
  0
LINE
  5
907
330
6F
100
AcDbEntity
  8
0
  6
Continuous
100
AcDbLine
 10
429.9686706903964
 20
129.5
 30
0.0
 11
433.5
 21
125.9602514733517
 31
0.0
  0
CIRCLE
  5
93B
330
6F
100
AcDbEntity
  8
0
  6
Continuous
100
AcDbCircle
 10
250.05
 20
37.63
 30
0.0
 40
1.399999999999999
  0
LINE
  5
944
330
6F
100
AcDbEntity
  8
0
  6
Continuous
100
AcDbLine
 10
251.475
 20
21.83
 30
0.0
 11
249.925
 21
21.83
 31
0.0
  0
CIRCLE
  5
945
330
6F
100
AcDbEntity
  8
0
  6
Continuous
100
AcDbCircle
 10
249.925
 20
21.83
 30
0.0
 40
2.1
  0
LINE
  5
946
330
6F
100
AcDbEntity
  8
0
  6
Continuous
100
AcDbLine
 10
250.05
 20
37.63
 30
0.0
 11
246.65
 21
37.63
 31
0.0
  0
LINE
  5
957
330
6F
100
AcDbEntity
  8
0
  6
Continuous
100
AcDbLine
 10
275.275
 20
21.83
 30
0.0
 11
273.7249999999999
 21
21.83
 31
0.0
  0
CIRCLE
  5
958
330
6F
100
AcDbEntity
  8
0
  6
Continuous
100
AcDbCircle
 10
273.7249999999999
 20
21.83
 30
0.0
 40
2.1
  0
LINE
  5
96B
330
6F
100
AcDbEntity
  8
0
  6
Continuous
100
AcDbLine
 10
266.4549999999999
 20
46.6
 30
0.0
 11
266.4549999999999
 21
48.15000000000007
 31
0.0
  0
CIRCLE
  5
96C
330
6F
100
AcDbEntity
  8
0
  6
Continuous
100
AcDbCircle
 10
266.4549999999999
 20
48.15000000000007
 30
0.0
 40
2.1
  0
CIRCLE
  5
97E
330
6F
100
AcDbEntity
  8
0
  6
Continuous
100
AcDbCircle
 10
282.2549999999999
 20
71.82499999999996
 30
0.0
 40
1.399999999999999
  0
LINE
  5
97F
330
6F
100
AcDbEntity
  8
0
  6
Continuous
100
AcDbLine
 10
282.2549999999999
 20
71.82499999999996
 30
0.0
 11
282.2549999999999
 21
75.22499999999999
 31
0.0
  0
LINE
  5
989
330
6F
100
AcDbEntity
  8
0
  6
Continuous
100
AcDbLine
 10
266.4549999999999
 20
70.4
 30
0.0
 11
266.4549999999999
 21
71.95000000000007
 31
0.0
  0
CIRCLE
  5
98A
330
6F
100
AcDbEntity
  8
0
  6
Continuous
100
AcDbCircle
 10
266.4549999999999
 20
71.95000000000007
 30
0.0
 40
2.1
  0
CIRCLE
  5
993
330
6F
100
AcDbEntity
  8
0
  6
Continuous
100
AcDbCircle
 10
273.7
 20
37.63
 30
0.0
 40
1.399999999999999
  0
LINE
  5
994
330
6F
100
AcDbEntity
  8
0
  6
Continuous
100
AcDbLine
 10
273.7
 20
37.63
 30
0.0
 11
277.1
 21
37.63
 31
0.0
  0
CIRCLE
  5
99E
330
6F
100
AcDbEntity
  8
0
  6
Continuous
100
AcDbCircle
 10
282.2549999999999
 20
48.17500000000003
 30
0.0
 40
1.399999999999999
  0
LINE
  5
99F
330
6F
100
AcDbEntity
  8
0
  6
Continuous
100
AcDbLine
 10
282.2549999999999
 20
48.17500000000003
 30
0.0
 11
282.2549999999999
 21
44.775
 31
0.0
  0
CIRCLE
  5
9A8
330
6F
100
AcDbEntity
  8
0
  6
Continuous
100
AcDbCircle
 10
257.175
 20
94.62999999999999
 30
0.0
 40
1.399999999999999
  0
LINE
  5
9A9
330
6F
100
AcDbEntity
  8
0
  6
Continuous
100
AcDbLine
 10
257.175
 20
94.62999999999999
 30
0.0
 11
253.775
 21
94.62999999999999
 31
0.0
  0
CIRCLE
  5
9B2
330
6F
100
AcDbEntity
  8
0
  6
Continuous
100
AcDbCircle
 10
280.825
 20
94.62999999999999
 30
0.0
 40
1.399999999999999
  0
LINE
  5
9B3
330
6F
100
AcDbEntity
  8
0
  6
Continuous
100
AcDbLine
 10
280.825
 20
94.62999999999999
 30
0.0
 11
284.225
 21
94.62999999999999
 31
0.0
  0
LINE
  5
9B6
330
6F
100
AcDbEntity
  8
0
  6
Continuous
100
AcDbLine
 10
258.6
 20
78.83
 30
0.0
 11
257.05
 21
78.83
 31
0.0
  0
CIRCLE
  5
9B7
330
6F
100
AcDbEntity
  8
0
  6
Continuous
100
AcDbCircle
 10
257.05
 20
78.83
 30
0.0
 40
2.1
  0
LINE
  5
9B9
330
6F
100
AcDbEntity
  8
0
  6
Continuous
100
AcDbLine
 10
282.4
 20
78.83
 30
0.0
 11
280.85
 21
78.83
 31
0.0
  0
CIRCLE
  5
9BA
330
6F
100
AcDbEntity
  8
0
  6
Continuous
100
AcDbCircle
 10
280.85
 20
78.83
 30
0.0
 40
2.1
  0
LINE
  5
9BC
330
6F
100
AcDbEntity
  8
0
  6
Continuous
100
AcDbLine
 10
363.1
 20
2.830000000000001
 30
0.0
 11
361.55
 21
2.830000000000001
 31
0.0
  0
CIRCLE
  5
9BD
330
6F
100
AcDbEntity
  8
0
  6
Continuous
100
AcDbCircle
 10
361.55
 20
2.830000000000001
 30
0.0
 40
2.1
  0
LINE
  5
9BF
330
6F
100
AcDbEntity
  8
0
  6
Continuous
100
AcDbLine
 10
386.9
 20
2.830000000000001
 30
0.0
 11
385.35
 21
2.830000000000001
 31
0.0
  0
CIRCLE
  5
9C0
330
6F
100
AcDbEntity
  8
0
  6
Continuous
100
AcDbCircle
 10
385.35
 20
2.830000000000001
 30
0.0
 40
2.1
  0
LINE
  5
9C2
330
6F
100
AcDbEntity
  8
0
  6
Continuous
100
AcDbLine
 10
185.125
 20
2.830000000000001
 30
0.0
 11
183.575
 21
2.830000000000001
 31
0.0
  0
CIRCLE
  5
9C3
330
6F
100
AcDbEntity
  8
0
  6
Continuous
100
AcDbCircle
 10
183.575
 20
2.830000000000001
 30
0.0
 40
2.1
  0
LINE
  5
9C5
330
6F
100
AcDbEntity
  8
0
  6
Continuous
100
AcDbLine
 10
85.12500000000001
 20
2.830000000000001
 30
0.0
 11
83.57499999999999
 21
2.830000000000001
 31
0.0
  0
CIRCLE
  5
9C6
330
6F
100
AcDbEntity
  8
0
  6
Continuous
100
AcDbCircle
 10
83.57499999999999
 20
2.830000000000001
 30
0.0
 40
2.1
  0
CIRCLE
  5
9C8
330
6F
100
AcDbEntity
  8
0
  6
Continuous
100
AcDbCircle
 10
427.1299999999999
 20
10.17500000000003
 30
0.0
 40
1.399999999999999
  0
LINE
  5
9C9
330
6F
100
AcDbEntity
  8
0
  6
Continuous
100
AcDbLine
 10
427.1299999999999
 20
10.17500000000003
 30
0.0
 11
427.1299999999999
 21
6.774999999999998
 31
0.0
  0
CIRCLE
  5
9CB
330
6F
100
AcDbEntity
  8
0
  6
Continuous
100
AcDbCircle
 10
427.1299999999999
 20
48.17500000000003
 30
0.0
 40
1.399999999999999
  0
LINE
  5
9CC
330
6F
100
AcDbEntity
  8
0
  6
Continuous
100
AcDbLine
 10
427.1299999999999
 20
48.17500000000003
 30
0.0
 11
427.1299999999999
 21
44.775
 31
0.0
  0
LINE
  5
9CF
330
6F
100
AcDbEntity
  8
0
  6
Continuous
100
AcDbLine
 10
411.3299999999999
 20
8.600000000000001
 30
0.0
 11
411.3299999999999
 21
10.15000000000007
 31
0.0
  0
CIRCLE
  5
9D0
330
6F
100
AcDbEntity
  8
0
  6
Continuous
100
AcDbCircle
 10
411.3299999999999
 20
10.15000000000007
 30
0.0
 40
2.1
  0
LINE
  5
9D2
330
6F
100
AcDbEntity
  8
0
  6
Continuous
100
AcDbLine
 10
411.3299999999999
 20
32.4
 30
0.0
 11
411.3299999999999
 21
33.95000000000007
 31
0.0
  0
CIRCLE
  5
9D3
330
6F
100
AcDbEntity
  8
0
  6
Continuous
100
AcDbCircle
 10
411.3299999999999
 20
33.95000000000007
 30
0.0
 40
2.1
  0
LINE
  5
9D5
330
6F
100
AcDbEntity
  8
0
  6
Continuous
100
AcDbLine
 10
411.3299999999999
 20
46.6
 30
0.0
 11
411.3299999999999
 21
48.15000000000007
 31
0.0
  0
CIRCLE
  5
9D6
330
6F
100
AcDbEntity
  8
0
  6
Continuous
100
AcDbCircle
 10
411.3299999999999
 20
48.15000000000007
 30
0.0
 40
2.1
  0
LINE
  5
9D8
330
6F
100
AcDbEntity
  8
0
  6
Continuous
100
AcDbLine
 10
411.3299999999999
 20
70.4
 30
0.0
 11
411.3299999999999
 21
71.95000000000007
 31
0.0
  0
CIRCLE
  5
9D9
330
6F
100
AcDbEntity
  8
0
  6
Continuous
100
AcDbCircle
 10
411.3299999999999
 20
71.95000000000007
 30
0.0
 40
2.1
  0
CIRCLE
  5
9DA
330
6F
100
AcDbEntity
  8
0
  6
Continuous
100
AcDbCircle
 10
427.1299999999999
 20
71.82499999999996
 30
0.0
 40
1.399999999999999
  0
LINE
  5
9DB
330
6F
100
AcDbEntity
  8
0
  6
Continuous
100
AcDbLine
 10
427.1299999999999
 20
71.82499999999996
 30
0.0
 11
427.1299999999999
 21
75.22499999999999
 31
0.0
  0
CIRCLE
  5
9DD
330
6F
100
AcDbEntity
  8
0
  6
Continuous
100
AcDbCircle
 10
427.1299999999999
 20
33.82499999999997
 30
0.0
 40
1.399999999999999
  0
LINE
  5
9DE
330
6F
100
AcDbEntity
  8
0
  6
Continuous
100
AcDbLine
 10
427.1299999999999
 20
33.82499999999997
 30
0.0
 11
427.1299999999999
 21
37.225
 31
0.0
  0
CIRCLE
  5
9E0
330
6F
100
AcDbEntity
  8
0
  6
Continuous
100
AcDbCircle
 10
385.325
 20
18.62999999999999
 30
0.0
 40
1.399999999999999
  0
LINE
  5
9E1
330
6F
100
AcDbEntity
  8
0
  6
Continuous
100
AcDbLine
 10
385.325
 20
18.62999999999999
 30
0.0
 11
388.725
 21
18.63
 31
0.0
  0
CIRCLE
  5
9E3
330
6F
100
AcDbEntity
  8
0
  6
Continuous
100
AcDbCircle
 10
183.5499999999999
 20
18.62999999999999
 30
0.0
 40
1.399999999999999
  0
LINE
  5
9E4
330
6F
100
AcDbEntity
  8
0
  6
Continuous
100
AcDbLine
 10
183.5499999999999
 20
18.62999999999999
 30
0.0
 11
186.95
 21
18.63
 31
0.0
  0
CIRCLE
  5
9E6
330
6F
100
AcDbEntity
  8
0
  6
Continuous
100
AcDbCircle
 10
83.69999999999999
 20
18.63
 30
0.0
 40
1.399999999999999
  0
LINE
  5
9E7
330
6F
100
AcDbEntity
  8
0
  6
Continuous
100
AcDbLine
 10
83.69999999999999
 20
18.63
 30
0.0
 11
80.29999999999999
 21
18.62999999999999
 31
0.0
  0
CIRCLE
  5
9E9
330
6F
100
AcDbEntity
  8
0
  6
Continuous
100
AcDbCircle
 10
361.675
 20
18.63
 30
0.0
 40
1.399999999999999
  0
LINE
  5
9EA
330
6F
100
AcDbEntity
  8
0
  6
Continuous
100
AcDbLine
 10
361.675
 20
18.63
 30
0.0
 11
358.275
 21
18.62999999999999
 31
0.0
  0
LINE
  5
A06
330
6F
100
AcDbEntity
  8
0
  6
Continuous
100
AcDbLine
 10
-0.0000000000000221
 20
6.035533905932759
 30
0.0
 11
-5.000000000000021
 21
6.035533905932759
 31
0.0
  0
CIRCLE
  5
A07
330
6F
100
AcDbEntity
  8
0
  6
Continuous
100
AcDbCircle
 10
-5.000000000000021
 20
6.035533905932759
 30
0.0
 40
2.5
  0
LINE
  5
A08
330
6F
100
AcDbEntity
  8
0
  6
Continuous
100
AcDbLine
 10
0.0000000000000002
 20
125.9644660940672
 30
0.0
 11
-0.0000000000000002
 21
123.4644660940672
 31
0.0
  0
LINE
  5
A09
330
6F
100
AcDbEntity
  8
0
  6
Continuous
100
AcDbLine
 10
-0.0000000000000002
 20
123.4644660940672
 30
0.0
 11
-5.0
 21
123.4644660940672
 31
0.0
  0
CIRCLE
  5
A0A
330
6F
100
AcDbEntity
  8
0
  6
Continuous
100
AcDbCircle
 10
-5.0
 20
123.4644660940672
 30
0.0
 40
2.5
  0
LINE
  5
A19
330
6F
100
AcDbEntity
  8
0
  6
Continuous
100
AcDbLine
 10
-6.999999999999992
 20
129.5
 30
0.0
 11
3.535533905932743
 21
129.5
 31
0.0
  0
LINE
  5
A1A
330
6F
100
AcDbEntity
  8
0
  6
Continuous
100
AcDbLine
 10
-9.499999999999992
 20
125.9644660940672
 30
0.0
 11
-6.999999999999992
 21
129.5
 31
0.0
  0
LINE
  5
A21
330
6F
100
AcDbEntity
  8
0
  6
Continuous
100
AcDbLine
 10
429.9686706903964
 20
129.5
 30
0.0
 11
440.5
 21
129.5
 31
0.0
  0
LINE
  5
A25
330
6F
100
AcDbEntity
  8
0
  6
Continuous
100
AcDbLine
 10
440.5
 20
129.5
 30
0.0
 11
443.0
 21
125.9602514733517
 31
0.0
  0
LINE
  5
A26
330
6F
100
AcDbEntity
  8
0
  6
Continuous
100
AcDbLine
 10
433.5
 20
125.9602514733517
 30
0.0
 11
433.5
 21
123.4602514733517
 31
0.0
  0
CIRCLE
  5
A28
330
6F
100
AcDbEntity
  8
0
  6
Continuous
100
AcDbCircle
 10
438.5
 20
123.4602514733517
 30
0.0
 40
2.5
  0
LINE
  5
A2A
330
6F
100
AcDbEntity
  8
0
  6
Continuous
100
AcDbLine
 10
433.5
 20
123.4602514733517
 30
0.0
 11
438.5
 21
123.4602514733517
 31
0.0
  0
LINE
  5
A2E
330
6F
100
AcDbEntity
  8
0
  6
Continuous
100
AcDbLine
 10
-7.0
 20
0.0000000000000015
 30
0.0
 11
3.535533905932736
 21
0.0
 31
0.0
  0
LINE
  5
A2F
330
6F
100
AcDbEntity
  8
0
  6
Continuous
100
AcDbLine
 10
-7.0
 20
0.0000000000000015
 30
0.0
 11
-9.5
 21
3.53553390593276
 31
0.0
  0
LINE
  5
A34
330
6F
100
AcDbEntity
  8
0
  6
Continuous
100
AcDbLine
 10
440.5
 20
-0.0000000000000001
 30
0.0
 11
443.0
 21
3.535533905932737
 31
0.0
  0
LINE
  5
A35
330
6F
100
AcDbEntity
  8
0
  6
Continuous
100
AcDbLine
 10
429.9644660940672
 20
0.000000000000004
 30
0.0
 11
440.5
 21
0.000000000000004
 31
0.0
  0
LINE
  5
A36
330
6F
100
AcDbEntity
  8
0
  6
Continuous
100
AcDbLine
 10
433.4999999999999
 20
3.535533905932735
 30
0.0
 11
433.4999999999999
 21
6.035533905932735
 31
0.0
  0
LINE
  5
A37
330
6F
100
AcDbEntity
  8
0
  6
Continuous
100
AcDbLine
 10
433.4999999999999
 20
6.035533905932735
 30
0.0
 11
438.4999999999999
 21
6.035533905932735
 31
0.0
  0
LINE
  5
A38
330
6F
100
AcDbEntity
  8
0
  6
Continuous
100
AcDbLine
 10
443.0
 20
3.535533905932737
 30
0.0
 11
443.0
 21
125.9602514733517
 31
0.0
  0
CIRCLE
  5
A39
330
6F
100
AcDbEntity
  8
0
  6
Continuous
100
AcDbCircle
 10
438.4999999999999
 20
6.035533905932735
 30
0.0
 40
2.5
  0
LINE
  5
A3A
330
6F
100
AcDbEntity
  8
0
  6
Continuous
100
AcDbLine
 10
-9.499999999999992
 20
125.9644660940672
 30
0.0
 11
-9.5
 21
3.53553390593276
 31
0.0
  0
CIRCLE
  5
A64
330
6F
100
AcDbEntity
  8
0
  6
Continuous
100
AcDbCircle
 10
428.5000000000001
 20
123.4602514733517
 30
0.0
 40
1.5
  0
LINE
  5
A67
330
6F
100
AcDbEntity
  8
0
  6
Continuous
100
AcDbLine
 10
31.5
 20
123.0
 30
0.0
 11
31.5
 21
123.4602514733517
 31
0.0
  0
CIRCLE
  5
A68
330
6F
100
AcDbEntity
  8
0
  6
Continuous
100
AcDbCircle
 10
31.5
 20
123.4602514733517
 30
0.0
 40
1.5
  0
LINE
  5
A6A
330
6F
100
AcDbEntity
  8
0
  6
Continuous
100
AcDbLine
 10
121.75
 20
123.0
 30
0.0
 11
121.75
 21
123.4602514733517
 31
0.0
  0
CIRCLE
  5
A6B
330
6F
100
AcDbEntity
  8
0
  6
Continuous
100
AcDbCircle
 10
121.75
 20
123.4602514733517
 30
0.0
 40
1.5
  0
LINE
  5
A6D
330
6F
100
AcDbEntity
  8
0
  6
Continuous
100
AcDbLine
 10
207.25
 20
123.0
 30
0.0
 11
207.25
 21
123.4602514733517
 31
0.0
  0
CIRCLE
  5
A6E
330
6F
100
AcDbEntity
  8
0
  6
Continuous
100
AcDbCircle
 10
207.25
 20
123.4602514733517
 30
0.0
 40
1.5
  0
LINE
  5
A70
330
6F
100
AcDbEntity
  8
0
  6
Continuous
100
AcDbLine
 10
292.75
 20
123.0
 30
0.0
 11
292.75
 21
123.4602514733517
 31
0.0
  0
CIRCLE
  5
A71
330
6F
100
AcDbEntity
  8
0
  6
Continuous
100
AcDbCircle
 10
292.75
 20
123.4602514733517
 30
0.0
 40
1.5
  0
LINE
  5
A7B
330
6F
100
AcDbEntity
  8
0
  6
Continuous
100
AcDbLine
 10
106.8875
 20
14.8
 30
0.0
 11
106.8875
 21
6.035533905932752
 31
0.0
  0
CIRCLE
  5
A7C
330
6F
100
AcDbEntity
  8
0
  6
Continuous
100
AcDbCircle
 10
106.8875
 20
6.035533905932751
 30
0.0
 40
1.5
  0
LINE
  5
A81
330
6F
100
AcDbEntity
  8
0
  6
Continuous
100
AcDbLine
 10
160.3625
 20
14.8
 30
0.0
 11
160.3625
 21
6.03553390593275
 31
0.0
  0
CIRCLE
  5
A83
330
6F
100
AcDbEntity
  8
0
  6
Continuous
100
AcDbCircle
 10
160.3625
 20
6.03553390593275
 30
0.0
 40
1.5
  0
LINE
  5
ADF
330
6F
100
AcDbEntity
  8
0
  6
Continuous
100
AcDbLine
 10
292.75
 20
78.53974852664828
 30
0.0
 11
292.75
 21
79.0
 31
0.0
  0
CIRCLE
  5
AE0
330
6F
100
AcDbEntity
  8
0
  6
Continuous
100
AcDbCircle
 10
292.75
 20
79.0
 30
0.0
 40
1.5
  0
LINE
  5
AE1
330
6F
100
AcDbEntity
  8
0
  6
Continuous
100
AcDbLine
 10
428.5000000000001
 20
123.4602514733517
 30
0.0
 11
426.0
 21
123.4602514733517
 31
0.0
  0
CIRCLE
  5
AE2
330
6F
100
AcDbEntity
  8
0
  6
Continuous
100
AcDbCircle
 10
428.5000000000001
 20
79.00000000000002
 30
0.0
 40
1.5
  0
LINE
  5
AE3
330
6F
100
AcDbEntity
  8
0
  6
Continuous
100
AcDbLine
 10
428.5000000000001
 20
79.00000000000002
 30
0.0
 11
426.0
 21
79.00000000000002
 31
0.0
  0
CIRCLE
  5
AE6
330
6F
100
AcDbEntity
  8
0
  6
Continuous
100
AcDbCircle
 10
352.1249999999999
 20
79.00000000000003
 30
0.0
 40
1.5
  0
LINE
  5
AE7
330
6F
100
AcDbEntity
  8
0
  6
Continuous
100
AcDbLine
 10
352.1249999999999
 20
79.00000000000003
 30
0.0
 11
349.6249999999999
 21
79.00000000000003
 31
0.0
  0
CIRCLE
  5
AE9
330
6F
100
AcDbEntity
  8
0
  6
Continuous
100
AcDbCircle
 10
292.75
 20
41.0
 30
0.0
 40
1.5
  0
LINE
  5
AEA
330
6F
100
AcDbEntity
  8
0
  6
Continuous
100
AcDbLine
 10
292.75
 20
41.0
 30
0.0
 11
290.25
 21
41.0
 31
0.0
  0
CIRCLE
  5
AEB
330
6F
100
AcDbEntity
  8
0
  6
Continuous
100
AcDbCircle
 10
352.1249999999999
 20
41.0
 30
0.0
 40
1.5
  0
LINE
  5
AEC
330
6F
100
AcDbEntity
  8
0
  6
Continuous
100
AcDbLine
 10
352.1249999999999
 20
41.0
 30
0.0
 11
349.6249999999999
 21
41.0
 31
0.0
  0
CIRCLE
  5
AED
330
6F
100
AcDbEntity
  8
0
  6
Continuous
100
AcDbCircle
 10
428.5
 20
41.0
 30
0.0
 40
1.5
  0
LINE
  5
AEE
330
6F
100
AcDbEntity
  8
0
  6
Continuous
100
AcDbLine
 10
428.5
 20
41.0
 30
0.0
 11
426.0
 21
41.0
 31
0.0
  0
CIRCLE
  5
AEF
330
6F
100
AcDbEntity
  8
0
  6
Continuous
100
AcDbCircle
 10
31.5
 20
41.00000000000003
 30
0.0
 40
1.5
  0
LINE
  5
AF0
330
6F
100
AcDbEntity
  8
0
  6
Continuous
100
AcDbLine
 10
31.5
 20
41.00000000000003
 30
0.0
 11
29.0
 21
41.00000000000003
 31
0.0
  0
CIRCLE
  5
AF1
330
6F
100
AcDbEntity
  8
0
  6
Continuous
100
AcDbCircle
 10
121.7499999999999
 20
41.00000000000001
 30
0.0
 40
1.5
  0
LINE
  5
AF2
330
6F
100
AcDbEntity
  8
0
  6
Continuous
100
AcDbLine
 10
121.7499999999999
 20
41.00000000000001
 30
0.0
 11
119.2499999999999
 21
41.00000000000001
 31
0.0
  0
CIRCLE
  5
AF3
330
6F
100
AcDbEntity
  8
0
  6
Continuous
100
AcDbCircle
 10
207.25
 20
41.00000000000001
 30
0.0
 40
1.5
  0
LINE
  5
AF4
330
6F
100
AcDbEntity
  8
0
  6
Continuous
100
AcDbLine
 10
207.25
 20
41.00000000000001
 30
0.0
 11
204.75
 21
41.00000000000001
 31
0.0
  0
CIRCLE
  5
AF6
330
6F
100
AcDbEntity
  8
0
  6
Continuous
100
AcDbCircle
 10
207.25
 20
79.00000000000002
 30
0.0
 40
1.5
  0
LINE
  5
AF7
330
6F
100
AcDbEntity
  8
0
  6
Continuous
100
AcDbLine
 10
207.25
 20
79.00000000000002
 30
0.0
 11
204.75
 21
79.00000000000002
 31
0.0
  0
CIRCLE
  5
AF8
330
6F
100
AcDbEntity
  8
0
  6
Continuous
100
AcDbCircle
 10
121.75
 20
79.00000000000003
 30
0.0
 40
1.5
  0
LINE
  5
AF9
330
6F
100
AcDbEntity
  8
0
  6
Continuous
100
AcDbLine
 10
121.75
 20
79.00000000000003
 30
0.0
 11
119.25
 21
79.00000000000003
 31
0.0
  0
CIRCLE
  5
AFA
330
6F
100
AcDbEntity
  8
0
  6
Continuous
100
AcDbCircle
 10
31.5
 20
79.00000000000004
 30
0.0
 40
1.5
  0
LINE
  5
AFB
330
6F
100
AcDbEntity
  8
0
  6
Continuous
100
AcDbLine
 10
31.5
 20
79.00000000000004
 30
0.0
 11
29.0
 21
79.00000000000004
 31
0.0
  0
CIRCLE
  5
AFF
330
6F
100
AcDbEntity
  8
0
  6
Continuous
100
AcDbCircle
 10
240.5
 20
6.035533905932758
 30
0.0
 40
1.5
  0
LINE
  5
B00
330
6F
100
AcDbEntity
  8
0
  6
Continuous
100
AcDbLine
 10
240.5
 20
6.035533905932758
 30
0.0
 11
238.0
 21
6.035533905932758
 31
0.0
  0
LINE
  5
B02
330
6F
100
AcDbEntity
  8
0
  6
Continuous
100
AcDbLine
 10
-0.0000000000000221
 20
6.035533905932759
 30
0.0
 11
3.999999999999977
 21
6.035533905932759
 31
0.0
  0
CIRCLE
  5
B03
330
6F
100
AcDbEntity
  8
0
  6
Continuous
100
AcDbCircle
 10
3.999999999999977
 20
6.035533905932759
 30
0.0
 40
1.5
  0
LINE
  5
B04
330
6F
100
AcDbEntity
  8
0
  6
Continuous
100
AcDbLine
 10
433.4999999999999
 20
6.035533905932735
 30
0.0
 11
429.4999999999999
 21
6.035533905932735
 31
0.0
  0
CIRCLE
  5
B05
330
6F
100
AcDbEntity
  8
0
  6
Continuous
100
AcDbCircle
 10
429.4999999999999
 20
6.035533905932735
 30
0.0
 40
1.5
  0
ENDSEC
  0
SECTION
  2
OBJECTS
  0
DICTIONARY
  5
C
330
0
100
AcDbDictionary
281
     1
  3
ACAD_CIP_PREVIOUS_PRODUCT_INFO
350
785
  3
ACAD_COLOR
350
62
  3
ACAD_DETAILVIEWSTYLE
350
69
  3
ACAD_GROUP
350
D
  3
ACAD_LAYOUT
350
61
  3
ACAD_MATERIAL
350
10
  3
ACAD_MLEADERSTYLE
350
65
  3
ACAD_MLINESTYLE
350
5E
  3
ACAD_PLOTSETTINGS
350
60
  3
ACAD_PLOTSTYLENAME
350
E
  3
ACAD_SCALELIST
350
42
  3
ACAD_SECTIONVIEWSTYLE
350
67
  3
ACAD_TABLESTYLE
350
63
  3
ACAD_VISUALSTYLE
350
29
  3
ACDB_RECOMPOSE_DATA
350
B29
  3
AcDbVariableDictionary
350
832
  0
DICTIONARY
  5
798
330
2
100
AcDbDictionary
280
     1
281
     1
  3
ACAD_LAYERSTATES
360
799
  0
DICTIONARY
  5
791
330
54
100
AcDbDictionary
280
     1
281
     1
  3
ADSK_XREC_LAYER_RECONCILED
360
792
  0
DICTIONARY
  5
793
330
73
100
AcDbDictionary
280
     1
281
     1
  3
ADSK_XREC_LAYER_RECONCILED
360
794
  0
XRECORD
  5
785
102
{ACAD_REACTORS
330
C
102
}
330
C
100
AcDbXrecord
280
     1
300
ACD
300
2020
300
ACD_F_S
  0
DICTIONARY
  5
62
102
{ACAD_REACTORS
330
C
102
}
330
C
100
AcDbDictionary
281
     1
  0
DICTIONARY
  5
69
102
{ACAD_REACTORS
330
C
102
}
330
C
100
AcDbDictionary
281
     1
  3
Imperial24
350
6A
  0
DICTIONARY
  5
D
102
{ACAD_REACTORS
330
C
102
}
330
C
100
AcDbDictionary
281
     1
  0
DICTIONARY
  5
61
102
{ACAD_REACTORS
330
C
102
}
330
C
100
AcDbDictionary
281
     1
  3
Model
350
72
  3
Presentacin1
350
6E
  0
DICTIONARY
  5
10
102
{ACAD_REACTORS
330
C
102
}
330
C
100
AcDbDictionary
281
     1
  3
ByBlock
350
19
  3
ByLayer
350
11
  3
Global
350
21
  0
DICTIONARY
  5
65
102
{ACAD_REACTORS
330
C
102
}
330
C
100
AcDbDictionary
281
     1
  3
Standard
350
66
  0
DICTIONARY
  5
5E
102
{ACAD_REACTORS
330
C
102
}
330
C
100
AcDbDictionary
281
     1
  3
Standard
350
5F
  0
DICTIONARY
  5
60
102
{ACAD_REACTORS
330
C
102
}
330
C
100
AcDbDictionary
281
     1
  0
ACDBDICTIONARYWDFLT
  5
E
102
{ACAD_REACTORS
330
C
102
}
330
C
100
AcDbDictionary
281
     1
  3
Normal
350
F
100
AcDbDictionaryWithDefault
340
F
  0
DICTIONARY
  5
42
102
{ACAD_REACTORS
330
C
102
}
330
C
100
AcDbDictionary
281
     1
  3
A0
350
43
  3
A1
350
44
  3
A2
350
45
  3
A3
350
46
  3
A4
350
47
  3
A5
350
48
  3
A6
350
49
  3
A7
350
4A
  3
A8
350
4B
  3
A9
350
4C
  3
B0
350
4D
  3
B1
350
4E
  3
B2
350
4F
  3
B3
350
50
  3
B4
350
51
  3
B5
350
52
  3
B6
350
53
  0
DICTIONARY
  5
67
102
{ACAD_REACTORS
330
C
102
}
330
C
100
AcDbDictionary
281
     1
  3
Imperial24
350
68
  0
DICTIONARY
  5
63
102
{ACAD_REACTORS
330
C
102
}
330
C
100
AcDbDictionary
281
     1
  3
Standard
350
64
  0
DICTIONARY
  5
29
102
{ACAD_REACTORS
330
C
102
}
330
C
100
AcDbDictionary
281
     1
  3
2dWireframe
350
2F
  3
Basic
350
2E
  3
Brighten
350
35
  3
ColorChange
350
39
  3
Conceptual
350
32
  3
Dim
350
34
  3
EdgeColorOff
350
41
  3
Facepattern
350
38
  3
Flat
350
2A
  3
FlatWithEdges
350
2B
  3
Gouraud
350
2C
  3
GouraudWithEdges
350
2D
  3
Hidden
350
31
  3
JitterOff
350
3F
  3
Linepattern
350
37
  3
OverhangOff
350
40
  3
Realistic
350
33
  3
Shaded
350
3E
  3
Shaded with edges
350
3D
  3
Shades of Gray
350
3A
  3
Sketchy
350
3B
  3
Thicken
350
36
  3
Wireframe
350
30
  3
X-Ray
350
3C
  0
XRECORD
  5
B29
102
{ACAD_REACTORS
330
C
102
}
330
C
100
AcDbXrecord
280
     1
 90
        1
330
64
  0
DICTIONARY
  5
832
102
{ACAD_REACTORS
330
C
102
}
330
C
100
AcDbDictionary
281
     1
  3
CANNOSCALE
350
838
  3
CMLEADERSTYLE
350
834
  3
CTABLESTYLE
350
833
  3
CVIEWDETAILSTYLE
350
835
  3
CVIEWSECTIONSTYLE
350
836
  3
LAYEREVAL
350
83A
  3
LAYERNOTIFY
350
83B
  3
LIGHTINGUNITS
350
839
  3
MSLTSCALE
350
837
  0
DICTIONARY
  5
799
102
{ACAD_REACTORS
330
798
102
}
330
798
100
AcDbDictionary
281
     1
  0
XRECORD
  5
792
102
{ACAD_REACTORS
330
791
102
}
330
791
100
AcDbXrecord
280
     1
290
     1
  0
XRECORD
  5
794
102
{ACAD_REACTORS
330
793
102
}
330
793
100
AcDbXrecord
280
     1
290
     1
  0
ACDBDETAILVIEWSTYLE
  5
6A
102
{ACAD_REACTORS
330
69
102
}
330
69
100
AcDbModelDocViewStyle
 70
     0
  3
Imperial24
290
     0
300
Imperial24
 90
        0
100
AcDbDetailViewStyle
 70
     0
 71
     0
 90
        3
 71
     1
340
55
 62
   256
 40
0.24
340
0
 62
   256
 40
0.24
300

 40
0.36
280
     3
 71
     2
340
5C
 90
       25
 62
   256
 71
     3
340
55
 62
   256
 40
0.24
 90
        1
 40
0.75
 90
        1
300
%<\AcVar ViewType \f "%tc1">% %<\AcVar ViewDetailId>%\PESCALA %<\AcVar ViewScale \f "%sn">%
 71
     4
340
5C
 90
       25
 62
   256
340
5C
 90
       25
 62
   256
280
     0
  0
LAYOUT
  5
72
102
{ACAD_REACTORS
330
61
102
}
330
61
100
AcDbPlotSettings
  1

  2
Microsoft Print to PDF
  4

  6

 40
0.0
 41
0.0
 42
0.0
 43
0.0
 44
0.0
 45
0.0
 46
0.0
 47
0.0
 48
0.0
 49
0.0
140
0.0
141
0.0
142
1.0
143
1.0
 70
  1712
 72
     0
 73
     0
 74
     0
  7

 75
     0
147
1.0
 76
     0
 77
     2
 78
   300
148
0.0
149
0.0
100
AcDbLayout
  1
Model
 70
     1
 71
     0
 10
0.0
 20
0.0
 11
12.0
 21
9.0
 12
0.0
 22
0.0
 32
0.0
 14
0.0
 24
0.0
 34
0.0
 15
0.0
 25
0.0
 35
0.0
146
0.0
 13
0.0
 23
0.0
 33
0.0
 16
1.0
 26
0.0
 36
0.0
 17
0.0
 27
1.0
 37
0.0
 76
     0
330
6F
331
75
  0
LAYOUT
  5
6E
102
{ACAD_REACTORS
330
61
102
}
330
61
100
AcDbPlotSettings
  1

  2
Microsoft Print to PDF
  4

  6

 40
0.0
 41
0.0
 42
0.0
 43
0.0
 44
0.0
 45
0.0
 46
0.0
 47
0.0
 48
0.0
 49
0.0
140
0.0
141
0.0
142
1.0
143
1.0
 70
   688
 72
     0
 73
     0
 74
     5
  7

 75
    16
147
1.0
 76
     0
 77
     2
 78
   300
148
0.0
149
0.0
100
AcDbLayout
  1
Presentacin1
 70
     1
 71
     1
 10
0.0
 20
0.0
 11
12.0
 21
9.0
 12
0.0
 22
0.0
 32
0.0
 14
1.000000000000000E+20
 24
1.000000000000000E+20
 34
1.000000000000000E+20
 15
-1.000000000000000E+20
 25
-1.000000000000000E+20
 35
-1.000000000000000E+20
146
0.0
 13
0.0
 23
0.0
 33
0.0
 16
1.0
 26
0.0
 36
0.0
 17
0.0
 27
1.0
 37
0.0
 76
     0
330
6B
  0
MATERIAL
  5
19
102
{ACAD_XDICTIONARY
360
1A
102
}
102
{ACAD_REACTORS
330
10
102
}
330
10
100
AcDbMaterial
  1
ByBlock
 72
     0
 43
0.0208333333333333
 43
0.0
 43
0.0
 43
0.0
 43
0.0
 43
0.0208333333333333
 43
0.0
 43
0.0
 43
0.0
 43
0.0
 43
1.0
 43
0.0
 43
0.0
 43
0.0
 43
0.0
 43
1.0
 77
     0
 47
0.0208333333333333
 47
0.0
 47
0.0
 47
0.0
 47
0.0
 47
0.0208333333333333
 47
0.0
 47
0.0
 47
0.0
 47
0.0
 47
1.0
 47
0.0
 47
0.0
 47
0.0
 47
0.0
 47
1.0
171
     0
 49
0.0208333333333333
 49
0.0
 49
0.0
 49
0.0
 49
0.0
 49
0.0208333333333333
 49
0.0
 49
0.0
 49
0.0
 49
0.0
 49
1.0
 49
0.0
 49
0.0
 49
0.0
 49
0.0
 49
1.0
175
     0
142
0.0208333333333333
142
0.0
142
0.0
142
0.0
142
0.0
142
0.0208333333333333
142
0.0
142
0.0
142
0.0
142
0.0
142
1.0
142
0.0
142
0.0
142
0.0
142
0.0
142
1.0
179
     0
144
0.0208333333333333
144
0.0
144
0.0
144
0.0
144
0.0
144
0.0208333333333333
144
0.0
144
0.0
144
0.0
144
0.0
144
1.0
144
0.0
144
0.0
144
0.0
144
0.0
144
1.0
147
0.0208333333333333
147
0.0
147
0.0
147
0.0
147
0.0
147
0.0208333333333333
147
0.0
147
0.0
147
0.0
147
0.0
147
1.0
147
0.0
147
0.0
147
0.0
147
0.0
147
1.0
  0
MATERIAL
  5
11
102
{ACAD_XDICTIONARY
360
12
102
}
102
{ACAD_REACTORS
330
10
102
}
330
10
100
AcDbMaterial
  1
ByLayer
 72
     0
 43
0.0208333333333333
 43
0.0
 43
0.0
 43
0.0
 43
0.0
 43
0.0208333333333333
 43
0.0
 43
0.0
 43
0.0
 43
0.0
 43
1.0
 43
0.0
 43
0.0
 43
0.0
 43
0.0
 43
1.0
 77
     0
 47
0.0208333333333333
 47
0.0
 47
0.0
 47
0.0
 47
0.0
 47
0.0208333333333333
 47
0.0
 47
0.0
 47
0.0
 47
0.0
 47
1.0
 47
0.0
 47
0.0
 47
0.0
 47
0.0
 47
1.0
171
     0
 49
0.0208333333333333
 49
0.0
 49
0.0
 49
0.0
 49
0.0
 49
0.0208333333333333
 49
0.0
 49
0.0
 49
0.0
 49
0.0
 49
1.0
 49
0.0
 49
0.0
 49
0.0
 49
0.0
 49
1.0
175
     0
142
0.0208333333333333
142
0.0
142
0.0
142
0.0
142
0.0
142
0.0208333333333333
142
0.0
142
0.0
142
0.0
142
0.0
142
1.0
142
0.0
142
0.0
142
0.0
142
0.0
142
1.0
179
     0
144
0.0208333333333333
144
0.0
144
0.0
144
0.0
144
0.0
144
0.0208333333333333
144
0.0
144
0.0
144
0.0
144
0.0
144
1.0
144
0.0
144
0.0
144
0.0
144
0.0
144
1.0
147
0.0208333333333333
147
0.0
147
0.0
147
0.0
147
0.0
147
0.0208333333333333
147
0.0
147
0.0
147
0.0
147
0.0
147
1.0
147
0.0
147
0.0
147
0.0
147
0.0
147
1.0
  0
MATERIAL
  5
21
102
{ACAD_XDICTIONARY
360
22
102
}
102
{ACAD_REACTORS
330
10
102
}
330
10
100
AcDbMaterial
  1
Global
 72
     0
 43
0.0208333333333333
 43
0.0
 43
0.0
 43
0.0
 43
0.0
 43
0.0208333333333333
 43
0.0
 43
0.0
 43
0.0
 43
0.0
 43
1.0
 43
0.0
 43
0.0
 43
0.0
 43
0.0
 43
1.0
 77
     0
 47
0.0208333333333333
 47
0.0
 47
0.0
 47
0.0
 47
0.0
 47
0.0208333333333333
 47
0.0
 47
0.0
 47
0.0
 47
0.0
 47
1.0
 47
0.0
 47
0.0
 47
0.0
 47
0.0
 47
1.0
171
     0
 49
0.0208333333333333
 49
0.0
 49
0.0
 49
0.0
 49
0.0
 49
0.0208333333333333
 49
0.0
 49
0.0
 49
0.0
 49
0.0
 49
1.0
 49
0.0
 49
0.0
 49
0.0
 49
0.0
 49
1.0
175
     0
142
0.0208333333333333
142
0.0
142
0.0
142
0.0
142
0.0
142
0.0208333333333333
142
0.0
142
0.0
142
0.0
142
0.0
142
1.0
142
0.0
142
0.0
142
0.0
142
0.0
142
1.0
179
     0
144
0.0208333333333333
144
0.0
144
0.0
144
0.0
144
0.0
144
0.0208333333333333
144
0.0
144
0.0
144
0.0
144
0.0
144
1.0
144
0.0
144
0.0
144
0.0
144
0.0
144
1.0
147
0.0208333333333333
147
0.0
147
0.0
147
0.0
147
0.0
147
0.0208333333333333
147
0.0
147
0.0
147
0.0
147
0.0
147
1.0
147
0.0
147
0.0
147
0.0
147
0.0
147
1.0
  0
MLEADERSTYLE
  5
66
102
{ACAD_REACTORS
330
65
102
}
330
65
100
AcDbMLeaderStyle
179
     2
170
     2
171
     1
172
     0
 90
        2
 40
0.0
 41
0.0
173
     1
 91
-1056964608
340
5A
 92
       -2
290
     1
 42
0.09
291
     1
 43
0.36
  3
Standard
 44
0.18
300

342
55
174
     1
178
     6
175
     1
176
     0
 93
-1056964608
 45
0.18
292
     0
297
     0
 46
0.18
 94
-1056964608
 47
1.0
 49
1.0
140
1.0
293
     1
141
0.0
294
     1
177
     0
142
1.0
295
     0
296
     0
143
0.125
271
     0
272
     9
273
     9
298
     0
  0
MLINESTYLE
  5
5F
102
{ACAD_REACTORS
330
5E
102
}
330
5E
100
AcDbMlineStyle
  2
STANDARD
 70
     0
  3

 62
   256
 51
90.0
 52
90.0
 71
     2
 49
0.5
 62
   256
  6
BYLAYER
 49
-0.5
 62
   256
  6
BYLAYER
  0
ACDBPLACEHOLDER
  5
F
102
{ACAD_REACTORS
330
E
102
}
330
E
  0
SCALE
  5
43
102
{ACAD_REACTORS
330
42
102
}
330
42
100
AcDbScale
 70
     0
300
1:1
140
1.0
141
1.0
290
     1
  0
SCALE
  5
44
102
{ACAD_REACTORS
330
42
102
}
330
42
100
AcDbScale
 70
     0
300
1/128" = 1'-0"
140
0.0078125
141
12.0
290
     0
  0
SCALE
  5
45
102
{ACAD_REACTORS
330
42
102
}
330
42
100
AcDbScale
 70
     0
300
1/64" = 1'-0"
140
0.015625
141
12.0
290
     0
  0
SCALE
  5
46
102
{ACAD_REACTORS
330
42
102
}
330
42
100
AcDbScale
 70
     0
300
1/32" = 1'-0"
140
0.03125
141
12.0
290
     0
  0
SCALE
  5
47
102
{ACAD_REACTORS
330
42
102
}
330
42
100
AcDbScale
 70
     0
300
1/16" = 1'-0"
140
0.0625
141
12.0
290
     0
  0
SCALE
  5
48
102
{ACAD_REACTORS
330
42
102
}
330
42
100
AcDbScale
 70
     0
300
3/32" = 1'-0"
140
0.09375
141
12.0
290
     0
  0
SCALE
  5
49
102
{ACAD_REACTORS
330
42
102
}
330
42
100
AcDbScale
 70
     0
300
1/8" = 1'-0"
140
0.125
141
12.0
290
     0
  0
SCALE
  5
4A
102
{ACAD_REACTORS
330
42
102
}
330
42
100
AcDbScale
 70
     0
300
3/16" = 1'-0"
140
0.1875
141
12.0
290
     0
  0
SCALE
  5
4B
102
{ACAD_REACTORS
330
42
102
}
330
42
100
AcDbScale
 70
     0
300
1/4" = 1'-0"
140
0.25
141
12.0
290
     0
  0
SCALE
  5
4C
102
{ACAD_REACTORS
330
42
102
}
330
42
100
AcDbScale
 70
     0
300
3/8" = 1'-0"
140
0.375
141
12.0
290
     0
  0
SCALE
  5
4D
102
{ACAD_REACTORS
330
42
102
}
330
42
100
AcDbScale
 70
     0
300
1/2" = 1'-0"
140
0.5
141
12.0
290
     0
  0
SCALE
  5
4E
102
{ACAD_REACTORS
330
42
102
}
330
42
100
AcDbScale
 70
     0
300
3/4" = 1'-0"
140
0.75
141
12.0
290
     0
  0
SCALE
  5
4F
102
{ACAD_REACTORS
330
42
102
}
330
42
100
AcDbScale
 70
     0
300
1" = 1'-0"
140
1.0
141
12.0
290
     0
  0
SCALE
  5
50
102
{ACAD_REACTORS
330
42
102
}
330
42
100
AcDbScale
 70
     0
300
1-1/2" = 1'-0"
140
1.5
141
12.0
290
     0
  0
SCALE
  5
51
102
{ACAD_REACTORS
330
42
102
}
330
42
100
AcDbScale
 70
     0
300
3" = 1'-0"
140
3.0
141
12.0
290
     0
  0
SCALE
  5
52
102
{ACAD_REACTORS
330
42
102
}
330
42
100
AcDbScale
 70
     0
300
6" = 1'-0"
140
6.0
141
12.0
290
     0
  0
SCALE
  5
53
102
{ACAD_REACTORS
330
42
102
}
330
42
100
AcDbScale
 70
     0
300
1'-0" = 1'-0"
140
12.0
141
12.0
290
     0
  0
ACDBSECTIONVIEWSTYLE
  5
68
102
{ACAD_REACTORS
330
67
102
}
330
67
100
AcDbModelDocViewStyle
 70
     0
  3
Imperial24
290
     0
300
Imperial24
 90
        0
100
AcDbSectionViewStyle
 70
     0
 71
     0
 90
       78
 71
     1
340
55
 62
   256
 40
0.24
340
0
340
0
 62
   256
 40
0.24
300
I, O, Q, S, X, Z
 40
0.48
 90
        3
 40
0.18
 90
        1
 71
     2
340
5C
 90
       25
 62
   256
340
5C
 90
       50
 62
   256
 40
0.24
 40
0.0
 40
0.24
 71
     3
340
55
 62
   256
 40
0.24
 90
        1
 40
0.75
 90
        1
300
%<\AcVar ViewType \f "%tc1">% %<\AcVar ViewSectionStartId>%-%<\AcVar ViewSectionEndId>%\PESCALA %<\AcVar ViewScale \f "%sn">%
 71
     4
 62
   256
 62
   257
300
ANSI31
 40
1.0
 90
        0
290
     0
290
     0
 90
        6
 40
0.0
 40
1.570796326794896
 40
0.2617993877991494
 40
1.308996938995747
 40
-0.2617993877991494
 40
1.832595714594046
  0
TABLESTYLE
  5
64
102
{ACAD_XDICTIONARY
360
B27
102
}
102
{ACAD_REACTORS
330
63
102
}
330
63
100
AcDbTableStyle
280
     0
  3
Standard
 70
     0
 71
     0
 40
0.06
 41
0.06
280
     0
281
     0
  7
Standard
140
0.18
170
     2
 62
     0
 63
     7
283
     0
 90
      512
 91
        0
  1

274
    -2
284
     1
 64
     0
275
    -2
285
     1
 65
     0
276
    -2
286
     1
 66
     0
277
    -2
287
     1
 67
     0
278
    -2
288
     1
 68
     0
279
    -2
289
     1
 69
     0
  7
Standard
140
0.25
170
     5
 62
     0
 63
     7
283
     0
 90
      512
 91
        0
  1

274
    -2
284
     1
 64
     0
275
    -2
285
     1
 65
     0
276
    -2
286
     1
 66
     0
277
    -2
287
     1
 67
     0
278
    -2
288
     1
 68
     0
279
    -2
289
     1
 69
     0
  7
Standard
140
0.18
170
     5
 62
     0
 63
     7
283
     0
 90
      512
 91
        0
  1

274
    -2
284
     1
 64
     0
275
    -2
285
     1
 65
     0
276
    -2
286
     1
 66
     0
277
    -2
287
     1
 67
     0
278
    -2
288
     1
 68
     0
279
    -2
289
     1
 69
     0
  0
VISUALSTYLE
  5
2F
102
{ACAD_REACTORS
330
29
102
}
330
29
100
AcDbVisualStyle
  2
2dWireframe
 70
     4
177
     3
291
     0
 70
    58
 90
        0
176
     1
 90
        2
176
     1
 90
        0
176
     1
 90
        0
176
     1
 40
0.6
176
     1
 40
30.0
176
     1
 62
     7
420
 16777215
176
     1
 90
        1
176
     1
 90
        4
176
     1
 62
     7
176
     1
 62
   257
176
     1
 90
        1
176
     1
 90
        1
176
     1
 40
1.0
176
     1
 90
        0
176
     1
 62
   257
176
     1
 40
1.0
176
     1
 90
        1
176
     1
 90
        6
176
     1
 90
        2
176
     1
 62
     7
176
     1
 90
        5
176
     1
 90
        0
176
     1
 90
        0
176
     1
290
     0
176
     1
 90
        1
176
     1
 40
0.0
176
     1
 90
        0
176
     1
290
     1
176
     1
290
     1
176
     1
290
     0
176
     1
290
     0
176
     1
290
     0
176
     1
290
     0
176
     1
290
     0
176
     1
290
     0
176
     1
290
     0
176
     1
 90
       50
176
     1
 40
0.0
176
     1
 40
1.0
176
     1
 90
        0
176
     1
 62
    18
420
        0
176
     1
 90
       50
176
     1
 90
        3
176
     1
 62
     5
420
      255
176
     1
290
     0
176
     1
 90
       50
176
     1
 90
       50
176
     1
 90
       50
176
     1
290
     0
176
     1
 90
       50
176
     1
 62
   256
176
     0
 40
1.0
176
     0
 90
        2
176
     1
  1
strokes_ogs.tif
176
     1
290
     0
176
     1
 40
1.0
176
     1
 40
1.0
176
     1
  0
VISUALSTYLE
  5
2E
102
{ACAD_REACTORS
330
29
102
}
330
29
100
AcDbVisualStyle
  2
Basic
 70
     7
177
     3
291
     1
 70
    58
 90
        1
176
     1
 90
        0
176
     1
 90
        1
176
     1
 90
        0
176
     1
 40
0.6
176
     1
 40
30.0
176
     1
 62
     7
420
 16777215
176
     1
 90
        0
176
     1
 90
        4
176
     1
 62
     7
176
     1
 62
   257
176
     1
 90
        1
176
     1
 90
        1
176
     1
 40
1.0
176
     1
 90
        8
176
     1
 62
     7
176
     1
 40
1.0
176
     1
 90
        1
176
     1
 90
        6
176
     1
 90
        2
176
     1
 62
     7
176
     1
 90
        5
176
     1
 90
        0
176
     1
 90
        0
176
     1
290
     0
176
     1
 90
        1
176
     1
 40
0.0
176
     1
 90
        0
176
     1
290
     0
176
     1
290
     1
176
     1
290
     1
176
     1
290
     0
176
     1
290
     0
176
     1
290
     0
176
     1
290
     0
176
     1
290
     0
176
     1
290
     0
176
     1
 90
       50
176
     1
 40
0.0
176
     1
 40
1.0
176
     1
 90
        0
176
     1
 62
    18
420
        0
176
     1
 90
       50
176
     1
 90
        3
176
     1
 62
     5
420
      255
176
     1
290
     0
176
     1
 90
       50
176
     1
 90
       50
176
     1
 90
       50
176
     1
290
     0
176
     1
 90
       50
176
     1
 62
   256
176
     0
 40
1.0
176
     0
 90
        2
176
     1
  1
strokes_ogs.tif
176
     1
290
     0
176
     1
 40
1.0
176
     1
 40
1.0
176
     1
  0
VISUALSTYLE
  5
35
102
{ACAD_REACTORS
330
29
102
}
330
29
100
AcDbVisualStyle
  2
Brighten
 70
    12
177
     3
291
     1
 70
    58
 90
        2
176
     1
 90
        2
176
     1
 90
        0
176
     1
 90
        0
176
     1
 40
0.6
176
     1
 40
30.0
176
     1
 62
     7
420
 16777215
176
     1
 90
        1
176
     1
 90
        4
176
     1
 62
     7
176
     1
 62
   257
176
     1
 90
        1
176
     1
 90
        1
176
     1
 40
1.0
176
     1
 90
        8
176
     1
 62
     7
176
     1
 40
1.0
176
     1
 90
        1
176
     1
 90
        6
176
     1
 90
        2
176
     1
 62
     7
176
     1
 90
        5
176
     1
 90
        0
176
     1
 90
        0
176
     1
290
     0
176
     1
 90
        1
176
     1
 40
50.0
176
     1
 90
        0
176
     1
290
     0
176
     1
290
     1
176
     1
290
     1
176
     1
290
     0
176
     1
290
     0
176
     1
290
     0
176
     1
290
     0
176
     1
290
     0
176
     1
290
     0
176
     1
 90
       50
176
     1
 40
0.0
176
     1
 40
1.0
176
     1
 90
        0
176
     1
 62
    18
420
        0
176
     1
 90
       50
176
     1
 90
        3
176
     1
 62
     5
420
      255
176
     1
290
     0
176
     1
 90
       50
176
     1
 90
       50
176
     1
 90
       50
176
     1
290
     0
176
     1
 90
       50
176
     1
 62
   256
176
     0
 40
1.0
176
     0
 90
        2
176
     1
  1
strokes_ogs.tif
176
     1
290
     0
176
     1
 40
1.0
176
     1
 40
1.0
176
     1
  0
VISUALSTYLE
  5
39
102
{ACAD_REACTORS
330
29
102
}
330
29
100
AcDbVisualStyle
  2
ColorChange
 70
    16
177
     3
291
     1
 70
    58
 90
        2
176
     1
 90
        2
176
     1
 90
        3
176
     1
 90
        0
176
     1
 40
0.6
176
     1
 40
30.0
176
     1
 62
     8
420
  8421504
176
     1
 90
        1
176
     1
 90
        4
176
     1
 62
     7
176
     1
 62
   257
176
     1
 90
        1
176
     1
 90
        1
176
     1
 40
1.0
176
     1
 90
        8
176
     1
 62
     8
420
  8421504
176
     1
 40
1.0
176
     1
 90
        1
176
     1
 90
        6
176
     1
 90
        2
176
     1
 62
     7
176
     1
 90
        5
176
     1
 90
        0
176
     1
 90
        0
176
     1
290
     0
176
     1
 90
        1
176
     1
 40
0.0
176
     1
 90
        0
176
     1
290
     0
176
     1
290
     1
176
     1
290
     1
176
     1
290
     0
176
     1
290
     0
176
     1
290
     0
176
     1
290
     0
176
     1
290
     0
176
     1
290
     0
176
     1
 90
       50
176
     1
 40
0.0
176
     1
 40
1.0
176
     1
 90
        0
176
     1
 62
    18
420
        0
176
     1
 90
       50
176
     1
 90
        3
176
     1
 62
     5
420
      255
176
     1
290
     0
176
     1
 90
       50
176
     1
 90
       50
176
     1
 90
       50
176
     1
290
     0
176
     1
 90
       50
176
     1
 62
   256
176
     0
 40
1.0
176
     0
 90
        2
176
     1
  1
strokes_ogs.tif
176
     1
290
     0
176
     1
 40
1.0
176
     1
 40
1.0
176
     1
  0
VISUALSTYLE
  5
32
102
{ACAD_REACTORS
330
29
102
}
330
29
100
AcDbVisualStyle
  2
Conceptual
 70
     9
177
     3
291
     0
 70
    58
 90
        3
176
     1
 90
        2
176
     1
 90
        0
176
     1
 90
        0
176
     1
 40
0.6
176
     1
 40
30.0
176
     1
 62
     7
420
 16777215
176
     1
 90
        2
176
     1
 90
        2
176
     1
 62
     7
176
     1
 62
   257
176
     1
 90
        1
176
     1
 90
        1
176
     1
 40
179.0
176
     1
 90
        8
176
     1
 62
     7
176
     1
 40
1.0
176
     1
 90
        1
176
     1
 90
        6
176
     1
 90
        2
176
     1
 62
     7
176
     1
 90
        3
176
     1
 90
        0
176
     1
 90
        0
176
     1
290
     0
176
     1
 90
        1
176
     1
 40
0.0
176
     1
 90
        0
176
     1
290
     0
176
     1
290
     1
176
     1
290
     1
176
     1
290
     0
176
     1
290
     0
176
     1
290
     0
176
     1
290
     0
176
     1
290
     0
176
     1
290
     0
176
     1
 90
       50
176
     1
 40
0.0
176
     1
 40
1.0
176
     1
 90
        0
176
     1
 62
    18
420
        0
176
     1
 90
       50
176
     1
 90
        3
176
     1
 62
     5
420
      255
176
     1
290
     0
176
     1
 90
       50
176
     1
 90
       50
176
     1
 90
       50
176
     1
290
     0
176
     1
 90
       50
176
     1
 62
   256
176
     0
 40
1.0
176
     0
 90
        2
176
     1
  1
strokes_ogs.tif
176
     1
290
     0
176
     1
 40
1.0
176
     1
 40
1.0
176
     1
  0
VISUALSTYLE
  5
34
102
{ACAD_REACTORS
330
29
102
}
330
29
100
AcDbVisualStyle
  2
Dim
 70
    11
177
     3
291
     1
 70
    58
 90
        2
176
     1
 90
        2
176
     1
 90
        0
176
     1
 90
        0
176
     1
 40
0.6
176
     1
 40
30.0
176
     1
 62
     7
420
 16777215
176
     1
 90
        1
176
     1
 90
        4
176
     1
 62
     7
176
     1
 62
   257
176
     1
 90
        1
176
     1
 90
        1
176
     1
 40
1.0
176
     1
 90
        8
176
     1
 62
     7
176
     1
 40
1.0
176
     1
 90
        1
176
     1
 90
        6
176
     1
 90
        2
176
     1
 62
     7
176
     1
 90
        5
176
     1
 90
        0
176
     1
 90
        0
176
     1
290
     0
176
     1
 90
        1
176
     1
 40
-50.0
176
     1
 90
        0
176
     1
290
     0
176
     1
290
     1
176
     1
290
     1
176
     1
290
     0
176
     1
290
     0
176
     1
290
     0
176
     1
290
     0
176
     1
290
     0
176
     1
290
     0
176
     1
 90
       50
176
     1
 40
0.0
176
     1
 40
1.0
176
     1
 90
        0
176
     1
 62
    18
420
        0
176
     1
 90
       50
176
     1
 90
        3
176
     1
 62
     5
420
      255
176
     1
290
     0
176
     1
 90
       50
176
     1
 90
       50
176
     1
 90
       50
176
     1
290
     0
176
     1
 90
       50
176
     1
 62
   256
176
     0
 40
1.0
176
     0
 90
        2
176
     1
  1
strokes_ogs.tif
176
     1
290
     0
176
     1
 40
1.0
176
     1
 40
1.0
176
     1
  0
VISUALSTYLE
  5
41
102
{ACAD_REACTORS
330
29
102
}
330
29
100
AcDbVisualStyle
  2
EdgeColorOff
 70
    22
177
     3
291
     1
 70
    58
 90
        2
176
     0
 90
        2
176
     0
 90
        0
176
     0
 90
        0
176
     0
 40
0.6
176
     0
 40
30.0
176
     0
 62
     7
420
 16777215
176
     0
 90
        1
176
     0
 90
        4
176
     0
 62
     7
176
     0
 62
   257
176
     0
 90
        1
176
     0
 90
        1
176
     0
 40
1.0
176
     0
 90
        8
176
     2
 62
     7
176
     0
 40
1.0
176
     0
 90
        1
176
     0
 90
        6
176
     0
 90
        2
176
     0
 62
     7
176
     0
 90
        5
176
     0
 90
        0
176
     0
 90
        0
176
     0
290
     0
176
     0
 90
        1
176
     0
 40
0.0
176
     0
 90
        0
176
     0
290
     0
176
     1
290
     1
176
     1
290
     1
176
     1
290
     0
176
     1
290
     0
176
     1
290
     0
176
     1
290
     0
176
     1
290
     0
176
     1
290
     0
176
     1
 90
       50
176
     0
 40
0.0
176
     0
 40
1.0
176
     0
 90
        0
176
     0
 62
    18
420
        0
176
     0
 90
       50
176
     0
 90
        3
176
     0
 62
     5
420
      255
176
     0
290
     0
176
     1
 90
       50
176
     0
 90
       50
176
     0
 90
       50
176
     0
290
     0
176
     1
 90
       50
176
     0
 62
   256
176
     0
 40
1.0
176
     0
 90
        2
176
     0
  1
strokes_ogs.tif
176
     0
290
     0
176
     1
 40
1.0
176
     0
 40
1.0
176
     0
  0
VISUALSTYLE
  5
38
102
{ACAD_REACTORS
330
29
102
}
330
29
100
AcDbVisualStyle
  2
Facepattern
 70
    15
177
     3
291
     1
 70
    58
 90
        2
176
     1
 90
        2
176
     1
 90
        0
176
     1
 90
        0
176
     1
 40
0.6
176
     1
 40
30.0
176
     1
 62
     7
420
 16777215
176
     1
 90
        1
176
     1
 90
        4
176
     1
 62
     7
176
     1
 62
   257
176
     1
 90
        1
176
     1
 90
        1
176
     1
 40
1.0
176
     1
 90
        8
176
     1
 62
     7
176
     1
 40
1.0
176
     1
 90
        1
176
     1
 90
        6
176
     1
 90
        2
176
     1
 62
     7
176
     1
 90
        5
176
     1
 90
        0
176
     1
 90
        0
176
     1
290
     0
176
     1
 90
        1
176
     1
 40
0.0
176
     1
 90
        0
176
     1
290
     0
176
     1
290
     1
176
     1
290
     1
176
     1
290
     0
176
     1
290
     0
176
     1
290
     0
176
     1
290
     0
176
     1
290
     0
176
     1
290
     0
176
     1
 90
       50
176
     1
 40
0.0
176
     1
 40
1.0
176
     1
 90
        0
176
     1
 62
    18
420
        0
176
     1
 90
       50
176
     1
 90
        3
176
     1
 62
     5
420
      255
176
     1
290
     0
176
     1
 90
       50
176
     1
 90
       50
176
     1
 90
       50
176
     1
290
     0
176
     1
 90
       50
176
     1
 62
   256
176
     0
 40
1.0
176
     0
 90
        2
176
     1
  1
strokes_ogs.tif
176
     1
290
     0
176
     1
 40
1.0
176
     1
 40
1.0
176
     1
  0
VISUALSTYLE
  5
2A
102
{ACAD_REACTORS
330
29
102
}
330
29
100
AcDbVisualStyle
  2
Flat
 70
     0
177
     3
291
     1
 70
    58
 90
        2
176
     1
 90
        1
176
     1
 90
        1
176
     1
 90
        2
176
     1
 40
0.6
176
     1
 40
30.0
176
     1
 62
     7
420
 16777215
176
     1
 90
        0
176
     1
 90
        0
176
     1
 62
     7
176
     1
 62
   257
176
     1
 90
        1
176
     1
 90
        1
176
     1
 40
1.0
176
     1
 90
        8
176
     1
 62
     7
176
     1
 40
1.0
176
     1
 90
        1
176
     1
 90
        6
176
     1
 90
        2
176
     1
 62
     7
176
     1
 90
        5
176
     1
 90
        0
176
     1
 90
        0
176
     1
290
     0
176
     1
 90
       13
176
     1
 40
0.0
176
     1
 90
        0
176
     1
290
     0
176
     1
290
     1
176
     1
290
     1
176
     1
290
     0
176
     1
290
     0
176
     1
290
     0
176
     1
290
     0
176
     1
290
     0
176
     1
290
     0
176
     1
 90
       50
176
     1
 40
0.0
176
     1
 40
1.0
176
     1
 90
        0
176
     1
 62
    18
420
        0
176
     1
 90
       50
176
     1
 90
        3
176
     1
 62
     5
420
      255
176
     1
290
     0
176
     1
 90
       50
176
     1
 90
       50
176
     1
 90
       50
176
     1
290
     0
176
     1
 90
       50
176
     1
 62
   256
176
     0
 40
1.0
176
     0
 90
        2
176
     1
  1
strokes_ogs.tif
176
     1
290
     0
176
     1
 40
1.0
176
     1
 40
1.0
176
     1
  0
VISUALSTYLE
  5
2B
102
{ACAD_REACTORS
330
29
102
}
330
29
100
AcDbVisualStyle
  2
FlatWithEdges
 70
     1
177
     3
291
     1
 70
    58
 90
        2
176
     1
 90
        1
176
     1
 90
        1
176
     1
 90
        2
176
     1
 40
0.6
176
     1
 40
30.0
176
     1
 62
     7
420
 16777215
176
     1
 90
        1
176
     1
 90
        0
176
     1
 62
     7
176
     1
 62
   257
176
     1
 90
        1
176
     1
 90
        1
176
     1
 40
1.0
176
     1
 90
        0
176
     1
 62
   257
176
     1
 40
1.0
176
     1
 90
        1
176
     1
 90
        6
176
     1
 90
        2
176
     1
 62
     7
176
     1
 90
        5
176
     1
 90
        0
176
     1
 90
        0
176
     1
290
     0
176
     1
 90
       13
176
     1
 40
0.0
176
     1
 90
        0
176
     1
290
     0
176
     1
290
     1
176
     1
290
     1
176
     1
290
     0
176
     1
290
     0
176
     1
290
     0
176
     1
290
     0
176
     1
290
     0
176
     1
290
     0
176
     1
 90
       50
176
     1
 40
0.0
176
     1
 40
1.0
176
     1
 90
        0
176
     1
 62
    18
420
        0
176
     1
 90
       50
176
     1
 90
        3
176
     1
 62
     5
420
      255
176
     1
290
     0
176
     1
 90
       50
176
     1
 90
       50
176
     1
 90
       50
176
     1
290
     0
176
     1
 90
       50
176
     1
 62
   256
176
     0
 40
1.0
176
     0
 90
        2
176
     1
  1
strokes_ogs.tif
176
     1
290
     0
176
     1
 40
1.0
176
     1
 40
1.0
176
     1
  0
VISUALSTYLE
  5
2C
102
{ACAD_REACTORS
330
29
102
}
330
29
100
AcDbVisualStyle
  2
Gouraud
 70
     2
177
     3
291
     1
 70
    58
 90
        2
176
     1
 90
        2
176
     1
 90
        1
176
     1
 90
        2
176
     1
 40
0.6
176
     1
 40
30.0
176
     1
 62
     7
420
 16777215
176
     1
 90
        0
176
     1
 90
        0
176
     1
 62
     7
176
     1
 62
   257
176
     1
 90
        1
176
     1
 90
        1
176
     1
 40
1.0
176
     1
 90
        0
176
     1
 62
     7
176
     1
 40
1.0
176
     1
 90
        1
176
     1
 90
        6
176
     1
 90
        2
176
     1
 62
     7
176
     1
 90
        5
176
     1
 90
        0
176
     1
 90
        0
176
     1
290
     0
176
     1
 90
       13
176
     1
 40
0.0
176
     1
 90
        0
176
     1
290
     0
176
     1
290
     1
176
     1
290
     1
176
     1
290
     0
176
     1
290
     0
176
     1
290
     0
176
     1
290
     0
176
     1
290
     0
176
     1
290
     0
176
     1
 90
       50
176
     1
 40
0.0
176
     1
 40
1.0
176
     1
 90
        0
176
     1
 62
    18
420
        0
176
     1
 90
       50
176
     1
 90
        3
176
     1
 62
     5
420
      255
176
     1
290
     0
176
     1
 90
       50
176
     1
 90
       50
176
     1
 90
       50
176
     1
290
     0
176
     1
 90
       50
176
     1
 62
   256
176
     0
 40
1.0
176
     0
 90
        2
176
     1
  1
strokes_ogs.tif
176
     1
290
     0
176
     1
 40
1.0
176
     1
 40
1.0
176
     1
  0
VISUALSTYLE
  5
2D
102
{ACAD_REACTORS
330
29
102
}
330
29
100
AcDbVisualStyle
  2
GouraudWithEdges
 70
     3
177
     3
291
     1
 70
    58
 90
        2
176
     1
 90
        2
176
     1
 90
        1
176
     1
 90
        2
176
     1
 40
0.6
176
     1
 40
30.0
176
     1
 62
     7
420
 16777215
176
     1
 90
        1
176
     1
 90
        0
176
     1
 62
     7
176
     1
 62
   257
176
     1
 90
        1
176
     1
 90
        1
176
     1
 40
1.0
176
     1
 90
        0
176
     1
 62
   257
176
     1
 40
1.0
176
     1
 90
        1
176
     1
 90
        6
176
     1
 90
        2
176
     1
 62
     7
176
     1
 90
        5
176
     1
 90
        0
176
     1
 90
        0
176
     1
290
     0
176
     1
 90
       13
176
     1
 40
0.0
176
     1
 90
        0
176
     1
290
     0
176
     1
290
     1
176
     1
290
     1
176
     1
290
     0
176
     1
290
     0
176
     1
290
     0
176
     1
290
     0
176
     1
290
     0
176
     1
290
     0
176
     1
 90
       50
176
     1
 40
0.0
176
     1
 40
1.0
176
     1
 90
        0
176
     1
 62
    18
420
        0
176
     1
 90
       50
176
     1
 90
        3
176
     1
 62
     5
420
      255
176
     1
290
     0
176
     1
 90
       50
176
     1
 90
       50
176
     1
 90
       50
176
     1
290
     0
176
     1
 90
       50
176
     1
 62
   256
176
     0
 40
1.0
176
     0
 90
        2
176
     1
  1
strokes_ogs.tif
176
     1
290
     0
176
     1
 40
1.0
176
     1
 40
1.0
176
     1
  0
VISUALSTYLE
  5
31
102
{ACAD_REACTORS
330
29
102
}
330
29
100
AcDbVisualStyle
  2
Hidden
 70
     6
177
     3
291
     0
 70
    58
 90
        1
176
     1
 90
        2
176
     1
 90
        2
176
     1
 90
        0
176
     1
 40
0.6
176
     1
 40
30.0
176
     1
 62
     7
420
 16777215
176
     1
 90
        2
176
     1
 90
        2
176
     1
 62
     7
176
     1
 62
   257
176
     1
 90
        2
176
     1
 90
        1
176
     1
 40
40.0
176
     1
 90
        0
176
     1
 62
   257
176
     1
 40
1.0
176
     1
 90
        1
176
     1
 90
        6
176
     1
 90
        2
176
     1
 62
     7
176
     1
 90
        3
176
     1
 90
        0
176
     1
 90
        0
176
     1
290
     0
176
     1
 90
        1
176
     1
 40
0.0
176
     1
 90
        0
176
     1
290
     0
176
     1
290
     1
176
     1
290
     1
176
     1
290
     0
176
     1
290
     0
176
     1
290
     0
176
     1
290
     0
176
     1
290
     0
176
     1
290
     0
176
     1
 90
       50
176
     1
 40
0.0
176
     1
 40
1.0
176
     1
 90
        0
176
     1
 62
    18
420
        0
176
     1
 90
       50
176
     1
 90
        3
176
     1
 62
     5
420
      255
176
     1
290
     0
176
     1
 90
       50
176
     1
 90
       50
176
     1
 90
       50
176
     1
290
     0
176
     1
 90
       50
176
     1
 62
   256
176
     0
 40
1.0
176
     0
 90
        2
176
     1
  1
strokes_ogs.tif
176
     1
290
     0
176
     1
 40
1.0
176
     1
 40
1.0
176
     1
  0
VISUALSTYLE
  5
3F
102
{ACAD_REACTORS
330
29
102
}
330
29
100
AcDbVisualStyle
  2
JitterOff
 70
    20
177
     3
291
     1
 70
    58
 90
        2
176
     0
 90
        2
176
     0
 90
        0
176
     0
 90
        0
176
     0
 40
0.6
176
     0
 40
30.0
176
     0
 62
     7
420
 16777215
176
     0
 90
        1
176
     0
 90
        4
176
     0
 62
     7
176
     0
 62
   257
176
     0
 90
        1
176
     0
 90
        1
176
     0
 40
1.0
176
     0
 90
       10
176
     2
 62
     7
176
     0
 40
1.0
176
     0
 90
        1
176
     0
 90
        6
176
     0
 90
        2
176
     0
 62
     7
176
     0
 90
        5
176
     0
 90
        0
176
     0
 90
        0
176
     0
290
     0
176
     0
 90
        1
176
     0
 40
0.0
176
     0
 90
        0
176
     0
290
     0
176
     1
290
     1
176
     1
290
     1
176
     1
290
     0
176
     1
290
     0
176
     1
290
     0
176
     1
290
     0
176
     1
290
     0
176
     1
290
     0
176
     1
 90
       50
176
     0
 40
0.0
176
     0
 40
1.0
176
     0
 90
        0
176
     0
 62
    18
420
        0
176
     0
 90
       50
176
     0
 90
        3
176
     0
 62
     5
420
      255
176
     0
290
     0
176
     1
 90
       50
176
     0
 90
       50
176
     0
 90
       50
176
     0
290
     0
176
     1
 90
       50
176
     0
 62
   256
176
     0
 40
1.0
176
     0
 90
        2
176
     0
  1
strokes_ogs.tif
176
     0
290
     0
176
     1
 40
1.0
176
     0
 40
1.0
176
     0
  0
VISUALSTYLE
  5
37
102
{ACAD_REACTORS
330
29
102
}
330
29
100
AcDbVisualStyle
  2
Linepattern
 70
    14
177
     3
291
     1
 70
    58
 90
        2
176
     1
 90
        2
176
     1
 90
        0
176
     1
 90
        0
176
     1
 40
0.6
176
     1
 40
30.0
176
     1
 62
     7
420
 16777215
176
     1
 90
        1
176
     1
 90
        4
176
     1
 62
     7
176
     1
 62
   257
176
     1
 90
        7
176
     1
 90
        7
176
     1
 40
1.0
176
     1
 90
        8
176
     1
 62
     7
176
     1
 40
1.0
176
     1
 90
        1
176
     1
 90
        6
176
     1
 90
        2
176
     1
 62
     7
176
     1
 90
        5
176
     1
 90
        0
176
     1
 90
        0
176
     1
290
     0
176
     1
 90
        1
176
     1
 40
0.0
176
     1
 90
        0
176
     1
290
     0
176
     1
290
     1
176
     1
290
     1
176
     1
290
     0
176
     1
290
     0
176
     1
290
     0
176
     1
290
     0
176
     1
290
     0
176
     1
290
     0
176
     1
 90
       50
176
     1
 40
0.0
176
     1
 40
1.0
176
     1
 90
        0
176
     1
 62
    18
420
        0
176
     1
 90
       50
176
     1
 90
        3
176
     1
 62
     5
420
      255
176
     1
290
     0
176
     1
 90
       50
176
     1
 90
       50
176
     1
 90
       50
176
     1
290
     0
176
     1
 90
       50
176
     1
 62
   256
176
     0
 40
1.0
176
     0
 90
        2
176
     1
  1
strokes_ogs.tif
176
     1
290
     0
176
     1
 40
1.0
176
     1
 40
1.0
176
     1
  0
VISUALSTYLE
  5
40
102
{ACAD_REACTORS
330
29
102
}
330
29
100
AcDbVisualStyle
  2
OverhangOff
 70
    21
177
     3
291
     1
 70
    58
 90
        2
176
     0
 90
        2
176
     0
 90
        0
176
     0
 90
        0
176
     0
 40
0.6
176
     0
 40
30.0
176
     0
 62
     7
420
 16777215
176
     0
 90
        1
176
     0
 90
        4
176
     0
 62
     7
176
     0
 62
   257
176
     0
 90
        1
176
     0
 90
        1
176
     0
 40
1.0
176
     0
 90
        9
176
     2
 62
     7
176
     0
 40
1.0
176
     0
 90
        1
176
     0
 90
        6
176
     0
 90
        2
176
     0
 62
     7
176
     0
 90
        5
176
     0
 90
        0
176
     0
 90
        0
176
     0
290
     0
176
     0
 90
        1
176
     0
 40
0.0
176
     0
 90
        0
176
     0
290
     0
176
     1
290
     1
176
     1
290
     1
176
     1
290
     0
176
     1
290
     0
176
     1
290
     0
176
     1
290
     0
176
     1
290
     0
176
     1
290
     0
176
     1
 90
       50
176
     0
 40
0.0
176
     0
 40
1.0
176
     0
 90
        0
176
     0
 62
    18
420
        0
176
     0
 90
       50
176
     0
 90
        3
176
     0
 62
     5
420
      255
176
     0
290
     0
176
     1
 90
       50
176
     0
 90
       50
176
     0
 90
       50
176
     0
290
     0
176
     1
 90
       50
176
     0
 62
   256
176
     0
 40
1.0
176
     0
 90
        2
176
     0
  1
strokes_ogs.tif
176
     0
290
     0
176
     1
 40
1.0
176
     0
 40
1.0
176
     0
  0
VISUALSTYLE
  5
33
102
{ACAD_REACTORS
330
29
102
}
330
29
100
AcDbVisualStyle
  2
Realistic
 70
     8
177
     3
291
     0
 70
    58
 90
        2
176
     1
 90
        3
176
     1
 90
        0
176
     1
 90
        2
176
     1
 40
0.6
176
     1
 40
30.0
176
     1
 62
     7
420
 16777215
176
     1
 90
        0
176
     1
 90
        0
176
     1
 62
     7
176
     1
 62
   257
176
     1
 90
        1
176
     1
 90
        1
176
     1
 40
1.0
176
     1
 90
        8
176
     1
 62
   257
176
     1
 40
1.0
176
     1
 90
        1
176
     1
 90
        6
176
     1
 90
        2
176
     1
 62
     7
176
     1
 90
        3
176
     1
 90
        0
176
     1
 90
        0
176
     1
290
     0
176
     1
 90
       13
176
     1
 40
0.0
176
     1
 90
        0
176
     1
290
     0
176
     1
290
     1
176
     1
290
     1
176
     1
290
     0
176
     1
290
     0
176
     1
290
     0
176
     1
290
     0
176
     1
290
     0
176
     1
290
     0
176
     1
 90
       50
176
     1
 40
0.0
176
     1
 40
1.0
176
     1
 90
        0
176
     1
 62
    18
420
        0
176
     1
 90
       50
176
     1
 90
        3
176
     1
 62
     5
420
      255
176
     1
290
     0
176
     1
 90
       50
176
     1
 90
       50
176
     1
 90
       50
176
     1
290
     0
176
     1
 90
       50
176
     1
 62
   256
176
     0
 40
1.0
176
     0
 90
        2
176
     1
  1
strokes_ogs.tif
176
     1
290
     0
176
     1
 40
1.0
176
     1
 40
1.0
176
     1
  0
VISUALSTYLE
  5
3E
102
{ACAD_REACTORS
330
29
102
}
330
29
100
AcDbVisualStyle
  2
Shaded
 70
    27
177
     3
291
     0
 70
    58
 90
        2
176
     1
 90
        2
176
     1
 90
        1
176
     1
 90
        2
176
     1
 40
0.6
176
     1
 40
30.0
176
     1
 62
     7
420
 16777215
176
     1
 90
        0
176
     1
 90
        4
176
     1
 62
     7
176
     1
 62
   257
176
     1
 90
        1
176
     1
 90
        1
176
     1
 40
1.0
176
     1
 90
        8
176
     1
 62
   257
176
     1
 40
1.0
176
     1
 90
        1
176
     1
 90
        6
176
     1
 90
        2
176
     1
 62
     8
420
  7895160
176
     1
 90
        3
176
     1
 90
        0
176
     1
 90
        0
176
     1
290
     0
176
     1
 90
        5
176
     1
 40
0.0
176
     1
 90
        0
176
     1
290
     0
176
     1
290
     1
176
     1
290
     1
176
     1
290
     0
176
     1
290
     0
176
     1
290
     0
176
     1
290
     0
176
     1
290
     0
176
     1
290
     0
176
     1
 90
       50
176
     1
 40
0.0
176
     1
 40
1.0
176
     1
 90
        0
176
     1
 62
    18
420
        0
176
     1
 90
       50
176
     1
 90
        3
176
     1
 62
     5
420
      255
176
     1
290
     0
176
     1
 90
       50
176
     1
 90
       50
176
     1
 90
       50
176
     1
290
     0
176
     1
 90
       50
176
     1
 62
   256
176
     0
 40
1.0
176
     0
 90
        2
176
     1
  1
strokes_ogs.tif
176
     1
290
     0
176
     1
 40
1.0
176
     1
 40
1.0
176
     1
  0
VISUALSTYLE
  5
3D
102
{ACAD_REACTORS
330
29
102
}
330
29
100
AcDbVisualStyle
  2
Shaded with edges
 70
    26
177
     3
291
     0
 70
    58
 90
        2
176
     1
 90
        2
176
     1
 90
        1
176
     1
 90
        2
176
     1
 40
0.6
176
     1
 40
30.0
176
     1
 62
     7
420
 16777215
176
     1
 90
        1
176
     1
 90
        2
176
     1
 62
     7
176
     1
 62
   257
176
     1
 90
        2
176
     1
 90
        1
176
     1
 40
1.0
176
     1
 90
        8
176
     1
 62
   257
176
     1
 40
1.0
176
     1
 90
        1
176
     1
 90
        6
176
     1
 90
        2
176
     1
 62
     7
176
     1
 90
        3
176
     1
 90
        0
176
     1
 90
        0
176
     1
290
     0
176
     1
 90
        5
176
     1
 40
0.0
176
     1
 90
        0
176
     1
290
     0
176
     1
290
     1
176
     1
290
     1
176
     1
290
     0
176
     1
290
     0
176
     1
290
     0
176
     1
290
     0
176
     1
290
     0
176
     1
290
     0
176
     1
 90
       50
176
     1
 40
0.0
176
     1
 40
1.0
176
     1
 90
        0
176
     1
 62
    18
420
        0
176
     1
 90
       50
176
     1
 90
        3
176
     1
 62
     5
420
      255
176
     1
290
     0
176
     1
 90
       50
176
     1
 90
       50
176
     1
 90
       50
176
     1
290
     0
176
     1
 90
       50
176
     1
 62
   256
176
     0
 40
1.0
176
     0
 90
        2
176
     1
  1
strokes_ogs.tif
176
     1
290
     0
176
     1
 40
1.0
176
     1
 40
1.0
176
     1
  0
VISUALSTYLE
  5
3A
102
{ACAD_REACTORS
330
29
102
}
330
29
100
AcDbVisualStyle
  2
Shades of Gray
 70
    23
177
     3
291
     0
 70
    58
 90
        2
176
     1
 90
        2
176
     1
 90
        3
176
     1
 90
        0
176
     1
 40
0.6
176
     1
 40
30.0
176
     1
 62
     7
420
 16777215
176
     1
 90
        2
176
     1
 90
        2
176
     1
 62
     7
176
     1
 62
     7
176
     1
 90
        1
176
     1
 90
        1
176
     1
 40
40.0
176
     1
 90
        8
176
     1
 62
     7
176
     1
 40
1.0
176
     1
 90
        1
176
     1
 90
        6
176
     1
 90
        2
176
     1
 62
     7
176
     1
 90
        3
176
     1
 90
        0
176
     1
 90
        0
176
     1
290
     0
176
     1
 90
        1
176
     1
 40
0.0
176
     1
 90
        0
176
     1
290
     0
176
     1
290
     1
176
     1
290
     1
176
     1
290
     0
176
     1
290
     0
176
     1
290
     0
176
     1
290
     0
176
     1
290
     0
176
     1
290
     0
176
     1
 90
       50
176
     1
 40
0.0
176
     1
 40
1.0
176
     1
 90
        0
176
     1
 62
    18
420
        0
176
     1
 90
       50
176
     1
 90
        3
176
     1
 62
     5
420
      255
176
     1
290
     0
176
     1
 90
       50
176
     1
 90
       50
176
     1
 90
       50
176
     1
290
     0
176
     1
 90
       50
176
     1
 62
   256
176
     0
 40
1.0
176
     0
 90
        2
176
     1
  1
strokes_ogs.tif
176
     1
290
     0
176
     1
 40
1.0
176
     1
 40
1.0
176
     1
  0
VISUALSTYLE
  5
3B
102
{ACAD_REACTORS
330
29
102
}
330
29
100
AcDbVisualStyle
  2
Sketchy
 70
    24
177
     3
291
     0
 70
    58
 90
        1
176
     1
 90
        2
176
     1
 90
        2
176
     1
 90
        0
176
     1
 40
0.6
176
     1
 40
30.0
176
     1
 62
     7
420
 16777215
176
     1
 90
        2
176
     1
 90
        2
176
     1
 62
     7
176
     1
 62
     7
176
     1
 90
        1
176
     1
 90
        1
176
     1
 40
40.0
176
     1
 90
       11
176
     1
 62
     7
176
     1
 40
1.0
176
     1
 90
        1
176
     1
 90
        6
176
     1
 90
        2
176
     1
 62
     7
176
     1
 90
        6
176
     1
 90
        0
176
     1
 90
        0
176
     1
290
     0
176
     1
 90
        1
176
     1
 40
0.0
176
     1
 90
        0
176
     1
290
     0
176
     1
290
     1
176
     1
290
     1
176
     1
290
     0
176
     1
290
     0
176
     1
290
     0
176
     1
290
     0
176
     1
290
     0
176
     1
290
     0
176
     1
 90
       50
176
     1
 40
0.0
176
     1
 40
1.0
176
     1
 90
        0
176
     1
 62
    18
420
        0
176
     1
 90
       50
176
     1
 90
        3
176
     1
 62
     5
420
      255
176
     1
290
     0
176
     1
 90
       50
176
     1
 90
       50
176
     1
 90
       50
176
     1
290
     0
176
     1
 90
       50
176
     1
 62
   256
176
     0
 40
1.0
176
     0
 90
        2
176
     1
  1
strokes_ogs.tif
176
     1
290
     0
176
     1
 40
1.0
176
     1
 40
1.0
176
     1
  0
VISUALSTYLE
  5
36
102
{ACAD_REACTORS
330
29
102
}
330
29
100
AcDbVisualStyle
  2
Thicken
 70
    13
177
     3
291
     1
 70
    58
 90
        2
176
     1
 90
        2
176
     1
 90
        0
176
     1
 90
        0
176
     1
 40
0.6
176
     1
 40
30.0
176
     1
 62
     7
420
 16777215
176
     1
 90
        1
176
     1
 90
        4
176
     1
 62
     7
176
     1
 62
   257
176
     1
 90
        1
176
     1
 90
        1
176
     1
 40
1.0
176
     1
 90
       12
176
     1
 62
     7
176
     1
 40
1.0
176
     1
 90
        1
176
     1
 90
        6
176
     1
 90
        2
176
     1
 62
     7
176
     1
 90
        5
176
     1
 90
        0
176
     1
 90
        0
176
     1
290
     0
176
     1
 90
        1
176
     1
 40
0.0
176
     1
 90
        0
176
     1
290
     0
176
     1
290
     1
176
     1
290
     1
176
     1
290
     0
176
     1
290
     0
176
     1
290
     0
176
     1
290
     0
176
     1
290
     0
176
     1
290
     0
176
     1
 90
       50
176
     1
 40
0.0
176
     1
 40
1.0
176
     1
 90
        0
176
     1
 62
    18
420
        0
176
     1
 90
       50
176
     1
 90
        3
176
     1
 62
     5
420
      255
176
     1
290
     0
176
     1
 90
       50
176
     1
 90
       50
176
     1
 90
       50
176
     1
290
     0
176
     1
 90
       50
176
     1
 62
   256
176
     0
 40
1.0
176
     0
 90
        2
176
     1
  1
strokes_ogs.tif
176
     1
290
     0
176
     1
 40
1.0
176
     1
 40
1.0
176
     1
  0
VISUALSTYLE
  5
30
102
{ACAD_REACTORS
330
29
102
}
330
29
100
AcDbVisualStyle
  2
Wireframe
 70
     5
177
     3
291
     0
 70
    58
 90
        0
176
     1
 90
        2
176
     1
 90
        0
176
     1
 90
        0
176
     1
 40
0.6
176
     1
 40
30.0
176
     1
 62
     7
420
 16777215
176
     1
 90
        1
176
     1
 90
        4
176
     1
 62
     7
176
     1
 62
   257
176
     1
 90
        1
176
     1
 90
        1
176
     1
 40
1.0
176
     1
 90
        0
176
     1
 62
   257
176
     1
 40
1.0
176
     1
 90
        1
176
     1
 90
        6
176
     1
 90
        2
176
     1
 62
     7
176
     1
 90
        3
176
     1
 90
        0
176
     1
 90
        0
176
     1
290
     0
176
     1
 90
        1
176
     1
 40
0.0
176
     1
 90
        0
176
     1
290
     0
176
     1
290
     1
176
     1
290
     1
176
     1
290
     0
176
     1
290
     0
176
     1
290
     0
176
     1
290
     0
176
     1
290
     0
176
     1
290
     0
176
     1
 90
       50
176
     1
 40
0.0
176
     1
 40
1.0
176
     1
 90
        0
176
     1
 62
    18
420
        0
176
     1
 90
       50
176
     1
 90
        3
176
     1
 62
     5
420
      255
176
     1
290
     0
176
     1
 90
       50
176
     1
 90
       50
176
     1
 90
       50
176
     1
290
     0
176
     1
 90
       50
176
     1
 62
   256
176
     0
 40
1.0
176
     0
 90
        2
176
     1
  1
strokes_ogs.tif
176
     1
290
     0
176
     1
 40
1.0
176
     1
 40
1.0
176
     1
  0
VISUALSTYLE
  5
3C
102
{ACAD_REACTORS
330
29
102
}
330
29
100
AcDbVisualStyle
  2
X-Ray
 70
    25
177
     3
291
     0
 70
    58
 90
        2
176
     1
 90
        2
176
     1
 90
        1
176
     1
 90
        1
176
     1
 40
0.5
176
     1
 40
30.0
176
     1
 62
     7
420
 16777215
176
     1
 90
        1
176
     1
 90
        0
176
     1
 62
     7
176
     1
 62
   257
176
     1
 90
        1
176
     1
 90
        1
176
     1
 40
1.0
176
     1
 90
        8
176
     1
 62
     7
176
     1
 40
1.0
176
     1
 90
        1
176
     1
 90
        6
176
     1
 90
        2
176
     1
 62
     7
176
     1
 90
        3
176
     1
 90
        0
176
     1
 90
        0
176
     1
290
     0
176
     1
 90
       13
176
     1
 40
0.0
176
     1
 90
        0
176
     1
290
     0
176
     1
290
     1
176
     1
290
     1
176
     1
290
     0
176
     1
290
     0
176
     1
290
     0
176
     1
290
     0
176
     1
290
     0
176
     1
290
     0
176
     1
 90
       50
176
     1
 40
0.0
176
     1
 40
1.0
176
     1
 90
        0
176
     1
 62
    18
420
        0
176
     1
 90
       50
176
     1
 90
        3
176
     1
 62
     5
420
      255
176
     1
290
     0
176
     1
 90
       50
176
     1
 90
       50
176
     1
 90
       50
176
     1
290
     0
176
     1
 90
       50
176
     1
 62
   256
176
     0
 40
1.0
176
     0
 90
        2
176
     1
  1
strokes_ogs.tif
176
     1
290
     0
176
     1
 40
1.0
176
     1
 40
1.0
176
     1
  0
DICTIONARYVAR
  5
838
102
{ACAD_REACTORS
330
832
102
}
330
832
100
DictionaryVariables
280
     0
  1
1:1
  0
DICTIONARYVAR
  5
834
102
{ACAD_REACTORS
330
832
102
}
330
832
100
DictionaryVariables
280
     0
  1
STANDARD
  0
DICTIONARYVAR
  5
833
102
{ACAD_REACTORS
330
832
102
}
330
832
100
DictionaryVariables
280
     0
  1
STANDARD
  0
DICTIONARYVAR
  5
835
102
{ACAD_REACTORS
330
832
102
}
330
832
100
DictionaryVariables
280
     0
  1
Imperial24
  0
DICTIONARYVAR
  5
836
102
{ACAD_REACTORS
330
832
102
}
330
832
100
DictionaryVariables
280
     0
  1
Imperial24
  0
DICTIONARYVAR
  5
83A
102
{ACAD_REACTORS
330
832
102
}
330
832
100
DictionaryVariables
280
     0
  1
1
  0
DICTIONARYVAR
  5
83B
102
{ACAD_REACTORS
330
832
102
}
330
832
100
DictionaryVariables
280
     0
  1
15
  0
DICTIONARYVAR
  5
839
102
{ACAD_REACTORS
330
832
102
}
330
832
100
DictionaryVariables
280
     0
  1
0
  0
DICTIONARYVAR
  5
837
102
{ACAD_REACTORS
330
832
102
}
330
832
100
DictionaryVariables
280
     0
  1
0
  0
DICTIONARY
  5
1A
330
19
100
AcDbDictionary
280
     1
281
     1
  3
BUMPTILE
360
1C
  3
DIFFUSETILE
360
1B
  3
OPACITYTILE
360
1F
  3
REFLECTIONTILE
360
1E
  3
REFRACTIONTILE
360
20
  3
SPECULARTILE
360
1D
  0
DICTIONARY
  5
12
330
11
100
AcDbDictionary
280
     1
281
     1
  3
BUMPTILE
360
14
  3
DIFFUSETILE
360
13
  3
OPACITYTILE
360
17
  3
REFLECTIONTILE
360
16
  3
REFRACTIONTILE
360
18
  3
SPECULARTILE
360
15
  0
DICTIONARY
  5
22
330
21
100
AcDbDictionary
280
     1
281
     1
  3
BUMPTILE
360
24
  3
DIFFUSETILE
360
23
  3
OPACITYTILE
360
27
  3
REFLECTIONTILE
360
26
  3
REFRACTIONTILE
360
28
  3
SPECULARTILE
360
25
  0
DICTIONARY
  5
B27
330
64
100
AcDbDictionary
280
     1
281
     1
  3
ACAD_ROUNDTRIP_2008_TABLESTYLE_CELLSTYLEMAP
360
B28
  0
XRECORD
  5
1C
102
{ACAD_REACTORS
330
1A
102
}
330
1A
100
AcDbXrecord
280
     1
270
     1
271
     1
  0
XRECORD
  5
1B
102
{ACAD_REACTORS
330
1A
102
}
330
1A
100
AcDbXrecord
280
     1
270
     1
271
     1
  0
XRECORD
  5
1F
102
{ACAD_REACTORS
330
1A
102
}
330
1A
100
AcDbXrecord
280
     1
270
     1
271
     1
  0
XRECORD
  5
1E
102
{ACAD_REACTORS
330
1A
102
}
330
1A
100
AcDbXrecord
280
     1
270
     1
271
     1
  0
XRECORD
  5
20
102
{ACAD_REACTORS
330
1A
102
}
330
1A
100
AcDbXrecord
280
     1
270
     1
271
     1
  0
XRECORD
  5
1D
102
{ACAD_REACTORS
330
1A
102
}
330
1A
100
AcDbXrecord
280
     1
270
     1
271
     1
  0
XRECORD
  5
14
102
{ACAD_REACTORS
330
12
102
}
330
12
100
AcDbXrecord
280
     1
270
     1
271
     1
  0
XRECORD
  5
13
102
{ACAD_REACTORS
330
12
102
}
330
12
100
AcDbXrecord
280
     1
270
     1
271
     1
  0
XRECORD
  5
17
102
{ACAD_REACTORS
330
12
102
}
330
12
100
AcDbXrecord
280
     1
270
     1
271
     1
  0
XRECORD
  5
16
102
{ACAD_REACTORS
330
12
102
}
330
12
100
AcDbXrecord
280
     1
270
     1
271
     1
  0
XRECORD
  5
18
102
{ACAD_REACTORS
330
12
102
}
330
12
100
AcDbXrecord
280
     1
270
     1
271
     1
  0
XRECORD
  5
15
102
{ACAD_REACTORS
330
12
102
}
330
12
100
AcDbXrecord
280
     1
270
     1
271
     1
  0
XRECORD
  5
24
102
{ACAD_REACTORS
330
22
102
}
330
22
100
AcDbXrecord
280
     1
270
     1
271
     1
  0
XRECORD
  5
23
102
{ACAD_REACTORS
330
22
102
}
330
22
100
AcDbXrecord
280
     1
270
     1
271
     1
  0
XRECORD
  5
27
102
{ACAD_REACTORS
330
22
102
}
330
22
100
AcDbXrecord
280
     1
270
     1
271
     1
  0
XRECORD
  5
26
102
{ACAD_REACTORS
330
22
102
}
330
22
100
AcDbXrecord
280
     1
270
     1
271
     1
  0
XRECORD
  5
28
102
{ACAD_REACTORS
330
22
102
}
330
22
100
AcDbXrecord
280
     1
270
     1
271
     1
  0
XRECORD
  5
25
102
{ACAD_REACTORS
330
22
102
}
330
22
100
AcDbXrecord
280
     1
270
     1
271
     1
  0
CELLSTYLEMAP
  5
B28
102
{ACAD_REACTORS
330
B27
102
}
330
B27
100
AcDbCellStyleMap
 90
        3
300
CELLSTYLE
  1
TABLEFORMAT_BEGIN
 90
        5
170
     1
 91
        0
 92
    32768
 62
   257
 93
        1
300
CONTENTFORMAT
  1
CONTENTFORMAT_BEGIN
 90
        0
 91
        0
 92
      512
 93
        0
300

 40
0.0
140
1.0
 94
        5
 62
     0
340
55
144
0.25
309
CONTENTFORMAT_END
171
     0
 94
        0
309
TABLEFORMAT_END
  1
CELLSTYLE_BEGIN
 90
        1
 91
        1
300
_TITLE
309
CELLSTYLE_END
300
CELLSTYLE
  1
TABLEFORMAT_BEGIN
 90
        5
170
     1
 91
        0
 92
        0
 62
   257
 93
        1
300
CONTENTFORMAT
  1
CONTENTFORMAT_BEGIN
 90
        0
 91
        0
 92
      512
 93
        0
300

 40
0.0
140
1.0
 94
        5
 62
     0
340
55
144
0.18
309
CONTENTFORMAT_END
171
     0
 94
        0
309
TABLEFORMAT_END
  1
CELLSTYLE_BEGIN
 90
        2
 91
        1
300
_HEADER
309
CELLSTYLE_END
300
CELLSTYLE
  1
TABLEFORMAT_BEGIN
 90
        5
170
     1
 91
        0
 92
        0
 62
   257
 93
        1
300
CONTENTFORMAT
  1
CONTENTFORMAT_BEGIN
 90
        0
 91
        0
 92
      512
 93
        0
300

 40
0.0
140
1.0
 94
        2
 62
     0
340
55
144
0.18
309
CONTENTFORMAT_END
171
     0
 94
        0
309
TABLEFORMAT_END
  1
CELLSTYLE_BEGIN
 90
        3
 91
        2
300
_DATA
309
CELLSTYLE_END
  0
ENDSEC
  0
SECTION
  2
ACDSDATA
 70
     2
 71
     8
  0
ACDSSCHEMA
 90
        0
  1
AcDb_Thumbnail_Schema
  2
AcDbDs::ID
280
    10
 91
        8
  2
Thumbnail_Data
280
    15
 91
        0
101
ACDSRECORD
 95
        0
 90
        1
  2
AcDbDs::TreatedAsObjectData
280
     1
291
     1
101
ACDSRECORD
 95
        0
 90
        2
  2
AcDbDs::Legacy
280
     1
291
     1
101
ACDSRECORD
  1
AcDbDs::ID
 90
        3
  2
AcDs:Indexable
280
     1
291
     1
101
ACDSRECORD
  1
AcDbDs::ID
 90
        4
  2
AcDbDs::HandleAttribute
280
     7
282
     1
  0
ACDSSCHEMA
 90
        1
  1
AcDbDs::TreatedAsObjectDataSchema
  2
AcDbDs::TreatedAsObjectData
280
     1
 91
        0
  0
ACDSSCHEMA
 90
        2
  1
AcDbDs::LegacySchema
  2
AcDbDs::Legacy
280
     1
 91
        0
  0
ACDSSCHEMA
 90
        3
  1
AcDbDs::IndexedPropertySchema
  2
AcDs:Indexable
280
     1
 91
        0
  0
ACDSSCHEMA
 90
        4
  1
AcDbDs::HandleAttributeSchema
  2
AcDbDs::HandleAttribute
280
     7
 91
        1
284
     1
  0
ACDSRECORD
 90
        0
  2
AcDbDs::ID
280
    10
320
72
  2
Thumbnail_Data
280
    15
 94
     1612
310
89504E470D0A1A0A0000000D49484452000001000000007108030000000DA58D8400000300504C5445212830FFFFFF2128300000000000000000000000000000000000000000000000000000330000660000990000CC0000FF0033000033330033660033990033CC0033FF0066000066330066660066990066CC0066FF0099
310
000099330099660099990099CC0099FF00CC0000CC3300CC6600CC9900CCCC00CCFF00FF0000FF3300FF6600FF9900FFCC00FFFF3300003300333300663300993300CC3300FF3333003333333333663333993333CC3333FF3366003366333366663366993366CC3366FF3399003399333399663399993399CC3399FF33CC00
310
33CC3333CC6633CC9933CCCC33CCFF33FF0033FF3333FF6633FF9933FFCC33FFFF6600006600336600666600996600CC6600FF6633006633336633666633996633CC6633FF6666006666336666666666996666CC6666FF6699006699336699666699996699CC6699FF66CC0066CC3366CC6666CC9966CCCC66CCFF66FF0066
310
FF3366FF6666FF9966FFCC66FFFF9900009900339900669900999900CC9900FF9933009933339933669933999933CC9933FF9966009966339966669966999966CC9966FF9999009999339999669999999999CC9999FF99CC0099CC3399CC6699CC9999CCCC99CCFF99FF0099FF3399FF6699FF9999FFCC99FFFFCC0000CC00
310
33CC0066CC0099CC00CCCC00FFCC3300CC3333CC3366CC3399CC33CCCC33FFCC6600CC6633CC6666CC6699CC66CCCC66FFCC9900CC9933CC9966CC9999CC99CCCC99FFCCCC00CCCC33CCCC66CCCC99CCCCCCCCCCFFCCFF00CCFF33CCFF66CCFF99CCFFCCCCFFFFFF0000FF0033FF0066FF0099FF00CCFF00FFFF3300FF3333
310
FF3366FF3399FF33CCFF33FFFF6600FF6633FF6666FF6699FF66CCFF66FFFF9900FF9933FF9966FF9999FF99CCFF99FFFFCC00FFCC33FFCC66FFCC99FFCCCCFFCCFFFFFF00FFFF33FFFF66FFFF99FFFFCCFFFFFF0000000D0D0D1A1A1A2828283535354343435050505D5D5D6B6B6B787878868686939393A1A1A1AEAEAEBB
310
BBBBC9C9C9D6D6D6E4E4E4F1F1F1FFFFFF0000000000000000000000000000000000000000000000000000000000002E4550F1000002774944415478DAED9AD17283300C04EFFFFF57EF9D690B9685B04921C6A4BB33491A9B127C08FB249000000000000000000000000000000000000A363523C62FF72BBD1FB4B7F5EE1C
310
990D09002D6A2F6FA5AD3E1D234FE7A810283A9B7BAD6DA6F2616BF3D2E0BFC8BABD734680BC00EA08A0E6107BBDAF1F1A02DC2F806502ACCD16C6DBEE9D58003FDF54139EE22476A6775E012675280880004F17C0FEEA02EF9904BBAEEF45271826C1DC1B769CE3D065B05EF38FB5E56BFEB2B93957A7741375F6F2700192
310
2B0D016616E0FB0F6B38C19F63AA1D9EFB081650DE1ED583B4FA2AC9BDE3782798CC6057B7B5BFEAAE49301601AE1BB6AAF8D8DD3878E89F5C78A400F52519035FCDC06FB6A91AD3F612C8D3A75F35460AA0FA784E4C7DB10C522A4D0727C1122F1F214089E41756015B7FF70304D033046838539DAC83AEAFE35658C30598
310
2BA9BB4380FC8CE88A3B1BCF8800CB0CEBB9CBDFC2EE5FB4C21F23C0335681F709F0101F2067DCAE32812E239ADF09AAFCE605994EF0F5AAC635672E209FB534366EF6C7DEEA4E4BFEBF8D1DDE900EDB753786C319F77A587217668E9A60B945764131C89FDCFA345B562FBE7B127C8F00F225D1E302DCB10CBE43003FB568
310
7A0146CC01CAE6804F4E86CCECD0D232453254A726F26BF866549B0159E951B28B2C242A97E082E2AE0808BEAC3286B6BD82B731BD147E36BBF01DA9135478B4E09E642814847C6AB0DEDEB09DF7DF4DF25DD84E9691AD1636C12A901E7557009D134061B91CED034CCEAA5D2680FD5D00A7C3A80725637D26148894646AF5
310
2CBF5F556C971B4DDD4775C744C09104C7F2D56A2FCB39BF5A0E8A807FFFB034000000000000000000000000000000C013F902153B0CADCF4DC6120000000049454E44AE426082F5511900680400FD2100C32320FF16B001703C17F001503F00DA0DC04A86F83909B115004F01C0AD7F29500A227A09C67A5780E48BAC926A
310
ED504B5753BFF3293BD03A6EC84A97A752FF3986390206BD9AB323177130A1A857C5DA4E23D9EF8547FD69EA4F80F58B130270FBFF0841100441100441100441D005FA02BACF76C0C01A9CB30000000049454E44AE426082
  0
ENDSEC
  0
EOF
